<svg width="250" height="250" xmlns="http://www.w3.org/2000/svg">
 <g>
  <title>Layer 1</title>
  <rect stroke="null" id="svg_21" height="103.73472" width="33.55103" y="53.87499" x="82.29796" fill="#ff0000"/>
  <ellipse stroke="null" ry="35.61225" rx="35.55103" id="svg_22" cy="36.48724" cx="98.03266" fill="#ff0000"/>
  <rect transform="rotate(23.0561 72.1778 98.1035)" stroke="null" id="svg_28" height="111.31938" width="14.20688" y="42.44352" x="65.07444" fill="#ff0000"/>
  <rect transform="rotate(12.5621 79.6476 194.115)" stroke="null" id="svg_29" height="108.30055" width="16.69509" y="139.96448" x="71.30002" fill="#ff0000"/>
  <rect transform="rotate(-28.9626 152.783 133.8)" stroke="null" id="svg_32" height="31.22717" width="8.2298" y="118.18664" x="148.66761" fill="#333333"/>
  <rect transform="rotate(-32.913 138.204 142.407)" stroke="null" id="svg_33" height="9.78895" width="34" y="137.51283" x="121.20391" fill="#333333"/>
  <path stroke="null" id="svg_48" d="m153.39651,127.19978c0,0 95.87697,-52.81333 95.39689,-53.29056c0.48008,0.47722 -93.35695,64.74405 -93.83703,64.26683" opacity="NaN" fill="#333333"/>
  <rect transform="rotate(-15.4265 120.531 193.104)" stroke="null" id="svg_51" height="110.37402" width="16.69509" y="137.91706" x="112.18301" fill="#ff0000"/>
  <rect transform="rotate(-22.6677 121.157 100.144)" stroke="null" id="svg_52" height="111.31938" width="14.20688" y="44.48434" x="114.05402" fill="#ff0000"/>
 </g>

</svg>