<?xml version="1.0"?>
<svg width="250" height="250" xmlns="http://www.w3.org/2000/svg" xmlns:svg="http://www.w3.org/2000/svg">
 <g class="layer">
  <title>Layer 1</title>
  <path d="m103.59,67.69c-5.7,16.35 -28.9,79.47 -28.9,79.47c0,0 12.17,5.32 12,5.31c0.17,0.01 19.56,-50.94 19.39,-50.95c0.17,0.01 0.93,43.73 0.93,43.73c0,0 -22.05,99.24 -22.05,99.24c0,0 15.97,3.81 15.8,3.8c0.17,0.01 20.32,-91.25 20.15,-91.26c0.17,0.01 26.03,91.27 26.03,91.27c0,0 15.97,-4.57 15.8,-4.57c0.17,0 -26.45,-95.43 -26.62,-95.44c0.17,0.01 -0.21,-46 -0.38,-46.01c0.17,0.01 21.84,50.58 21.84,50.58c0,0 12.93,-4.94 12.76,-4.95c0.17,0.01 -33.29,-79.46 -33.46,-79.47c0.17,0.01 10.82,-7.22 10.82,-7.22c3.8,-5.7 6.08,-11.02 6.08,-11.02c0,0 3.42,-11.03 3.25,-11.42c0.17,0.01 -1.35,-10.64 -1.52,-10.64c0.17,0 -4.39,-11.4 -4.39,-11.4c-0.38,0 -9.51,-8.75 -9.68,-8.76c-6.29,-3.03 -10.47,-4.55 -10.64,-4.56c0.17,0.01 -13.52,-1.89 -13.69,-1.9c0.93,0.39 -10.86,2.67 -11.03,2.66c0.17,0.01 -8.95,6.47 -9.12,6.47c0.17,0 -6.68,8.37 -6.85,8.36c0.17,0.01 -5.91,5.71 -4.39,18.26c-0.76,-8.75 1.14,11.41 0.97,11.4c1.69,5.33 7.02,11.41 7.02,11.41c0,0 3.8,4.19 9.88,7.61z" fill="#ff0000" id="svg_3" opacity="NaN"/>
  <path d="m158.78,12.97l34.24,60.56l-3.11,-61.78l-31.67,36.02l45.56,-4.44l-25.01,-18.45l-39.86,224.67l48.69,-218.1l-28.84,-18.48z" fill="#333333" id="svg_9"/>
  <path d="m70.8,20.15l-25.58,62.93l-4.76,-60.21l35.24,30.91l-44.73,1.4l21.92,-20.99l66.93,212.56l-74.66,-205.09l25.63,-21.5l0.01,-0.01z" fill="#333333" id="svg_10"/>
  <circle cx="52.14" cy="49.56" fill="url(#svg_1)" id="svg_4" r="49.91" stroke="#000000" stroke-opacity="0"/>
  <circle cx="182.64" cy="40.06" fill="url(#svg_1)" id="svg_5" r="41.58" stroke="#000000" stroke-opacity="0"/>
 </g>
 <defs>
  <radialGradient id="svg_1" spreadMethod="pad">
   <stop id="jq_stop_2335" offset="0" stop-color="#FF0000"/>
   <stop id="jq_stop_4362" offset="1" stop-color="#000000" stop-opacity="0"/>
  </radialGradient>
 </defs>
</svg>