<?xml version="1.0"?>
<svg width="250" height="250" xmlns="http://www.w3.org/2000/svg" xmlns:svg="http://www.w3.org/2000/svg">
 <g class="layer">
  <title>Layer 1</title>
  <rect fill="#00bf00" height="103.73" id="svg_21" width="31.23" x="134.8" y="53.37"/>
  <path d="m149.37,75.09c-19.64,0 -35.55,-15.94 -35.55,-35.61c0,-19.68 15.91,-35.62 35.55,-35.62c19.64,0 35.55,15.94 35.55,35.62c0,19.67 -15.91,35.61 -35.55,35.61z" fill="#00bf00" id="svg_22" opacity="undefined"/>
  <rect fill="#00bf00" height="108.3" id="svg_29" transform="rotate(12.5621 132.148 193.615)" width="16.7" x="123.8" y="139.46"/>
  <rect fill="#00bf00" height="110.37" id="svg_51" transform="rotate(-15.4265 173.031 192.604)" width="16.7" x="164.68" y="137.42"/>
  <rect fill="#00bf00" height="49.46" id="svg_9" transform="rotate(25.4139 128.97 89.8974)" width="12.95" x="122.5" y="65.17"/>
  <rect fill="#00bf00" height="62.14" id="svg_3" transform="rotate(-1.0137 99.6712 103.14) matrix(-0.00596149 1.02592 -0.806797 -0.165835 171.612 63.9499)" width="12.95" x="46.08" y="57.71"/>
  <g id="svg_8" transform="matrix(1 0 0 1 0 0) matrix(0.789572 -0.613658 0.613658 0.789572 -46.5878 75.5368)">
   <path d="m75.59,17.96l1.56,-20.12l10.72,-1.09l5.6,19.39l-1.57,20.11l-10.72,1.09l-5.6,-19.38z" fill="#333333" id="svg_1"/>
   <rect fill="#333333" height="4.49" id="svg_5" transform="rotate(-1.28688 82.7904 1.35331) matrix(0.951963 -0.101542 0.0971669 0.994831 0.50393 6.57272)" width="17.42" x="77.37" y="1.29"/>
   <rect fill="#333333" height="5.06" id="svg_7" transform="matrix(0.994831 -0.101542 0.101542 0.994831 -4.42795 4.95213)" width="17.42" x="78.63" y="33.64"/>
   <path d="m81.6,6.19l0.6,9.16l-12.25,-3.5l11.65,-5.66z" fill="#333333" id="svg_2"/>
   <path d="m87.83,29.03l-0.6,-9.16l12.25,3.5l-11.65,5.66z" fill="#333333" id="svg_4"/>
   <path d="m86.48,15.03l-0.6,-9.16l12.25,3.5l-11.65,5.66z" fill="#333333" id="svg_10"/>
   <path d="m82.69,20.02l0.6,9.16l-12.25,-3.5l11.65,-5.66z" fill="#333333" id="svg_11"/>
   <rect fill="#333333" height="181.64" id="svg_6" transform="rotate(-4.5591 93.2471 123.864)" width="6.58" x="89.96" y="33.05"/>
  </g>
  <rect fill="#00bf00" height="90.62" id="svg_12" transform="matrix(0.93023 0.366977 -0.366977 0.93023 55.7043 -22.676)" width="12.51" x="120.64" y="50.22"/>
 </g>
</svg>