<svg width="250" height="250" xmlns="http://www.w3.org/2000/svg">
 <g>
  <title>Layer 1</title>
  <rect id="svg_21" height="103.73472" width="31.22545" y="52.90881" x="118.52984" fill="#00bf00" stroke="null"/>
  <path fill="#00bf00" stroke="null" opacity="undefined" d="m133.10175,74.62168c-19.64145,0 -35.55103,-15.93697 -35.55103,-35.61225c0,-19.67528 15.90958,-35.61225 35.55103,-35.61225c19.64145,0 35.55103,15.93697 35.55103,35.61225c0,19.67528 -15.90958,35.61225 -35.55103,35.61225z" id="svg_22"/>
  <rect transform="rotate(-27.4866 160.914 106.441)" stroke="null" id="svg_28" height="93.81503" width="13.31501" y="59.53386" x="154.25697" fill="#00bf00"/>
  <rect transform="rotate(12.5621 115.879 193.149)" stroke="null" id="svg_29" height="108.30055" width="16.69509" y="138.9983" x="107.5319" fill="#00bf00"/>
  <rect transform="rotate(-15.4265 156.763 192.138)" stroke="null" id="svg_51" height="110.37402" width="16.69509" y="136.95088" x="148.41489" fill="#00bf00"/>
  <rect transform="rotate(12.8273 111.714 112.916)" stroke="null" fill="#00bf00" x="104.96506" y="64.66755" width="13.49714" height="96.49594" id="svg_9"/>
  <path transform="rotate(177.193 181.899 134.584)" stroke="null" id="svg_3" d="m140.76588,197.74517l15.4251,-126.32281l51.41701,0l15.4251,126.32281l-82.26721,0z" fill="#333333"/>
  <g transform="rotate(-13.8076 60.8818 117.793)" stroke="null" id="svg_4">
   <rect stroke="null" transform="matrix(-0.55697 -0.85221 -0.762247 0.622706 148.986 221.645)" fill="#333333" x="88.99871" y="3.23314" width="6.53885" height="26.72895" id="svg_5"/>
   <rect stroke="null" transform="matrix(-0.762146 0.62286 0.557108 0.852098 11.531 -91.5341)" fill="#333333" x="68.12575" y="231.37852" width="8.13954" height="23.25581" id="svg_6"/>
   <path stroke="null" fill="#333333" opacity="NaN" d="m93.21888,154.10514l-72.92322,-91.46195l65.59124,97.8072" id="svg_8"/>
  </g>
  <path transform="rotate(-3.89952 183 130.039)" stroke="null" id="svg_10" d="m166.3331,100.74896l0,0c3.06831,0 5.55567,-6.55694 5.55567,-14.64533l22.222,0l0,0c0,8.08839 2.48736,14.64533 5.55566,14.64533l0,58.57956l0,0c-3.06831,0 -5.55566,6.55693 -5.55566,14.64532l-22.222,0c0,-8.0884 -2.48736,-14.64532 -5.55567,-14.64532l0,-58.57956z" fill="#4c4c4c"/>
 </g>

</svg>