<?xml version="1.0"?>
<svg width="250" height="250" xmlns="http://www.w3.org/2000/svg" xmlns:svg="http://www.w3.org/2000/svg">
 <g class="layer">
  <title>Layer 1</title>
  <rect fill="#00bf00" height="103.73" id="svg_21" width="31.23" x="134.8" y="53.37"/>
  <path d="m149.37,75.09c-19.64,0 -35.55,-15.94 -35.55,-35.61c0,-19.68 15.91,-35.62 35.55,-35.62c19.64,0 35.55,15.94 35.55,35.62c0,19.67 -15.91,35.61 -35.55,35.61z" fill="#00bf00" id="svg_22" opacity="undefined"/>
  <rect fill="#00bf00" height="108.3" id="svg_29" transform="rotate(12.5621 132.148 193.615)" width="16.7" x="123.8" y="139.46"/>
  <rect fill="#00bf00" height="110.37" id="svg_51" transform="rotate(-15.4265 173.031 192.604)" width="16.7" x="164.68" y="137.42"/>
  <rect fill="#00bf00" height="49.46" id="svg_9" transform="rotate(48.0912 122.475 92.4)" width="12.95" x="116" y="67.67"/>
  <g id="svg_11" transform="matrix(1 0 0 1 0 0) rotate(122.95 106.025 81.5983)">
   <path d="m107.92,152.21l-1.08,10.13l2.48,13.86l-2.48,12.65l-2.48,-7.83c0,0 -0.16,-9.53 0.26,-9.53c0.41,0 -2.89,-10.85 -2.73,-10.96c0.16,-0.12 -4.28,4.33 -4.13,4.22c0.16,-0.12 3.15,-11.33 3.3,-12.05c0.16,-0.72 1.08,-14.35 1.24,-15.06c0.16,-0.72 6.04,-17.96 5.78,-18.68c-0.26,-0.72 -4.7,-11.33 -4.54,-10.85c0.16,0.49 1.91,-16.15 2.06,-16.27c0.16,-0.12 -3.05,-16.15 -2.89,-16.27c0.16,-0.12 -2.56,-6.91 -6.19,-6.03c-3.63,0.88 -7.15,-6.95 -6.99,-7.56c0.16,-0.62 7.66,-1.36 7.82,-1.47c0.16,-0.12 7.28,4.94 7.43,4.82c0.16,-0.12 -0.57,-14.95 -0.41,-15.06c0.16,-0.12 -3.05,-16.15 -2.89,-16.27c0.16,-0.12 3.97,-15.55 4.13,-15.67c0.16,-0.12 -5.94,-13.14 -5.78,-13.26c0.16,-0.12 1.5,-19.77 1.65,-19.88c0.16,-0.12 3.97,-10.73 4.13,-10.85c0.16,-0.12 4.39,5.54 4.54,5.42c0.16,-0.12 -0.98,6.74 -0.83,6.63c0.16,-0.12 -0.57,13.97 -0.41,13.86c0.16,-0.12 3.97,13.37 4.13,13.26c0.16,-0.12 -0.57,11.56 -0.41,11.45c0.16,-0.12 5.21,1.92 5.37,1.21c0.16,-0.72 4.39,8.55 4.54,8.44c0.16,-0.12 -4.7,0.72 -4.54,0.6c0.16,-0.12 -5.11,-2.29 -4.95,-2.41c0.16,-0.12 0.26,7.95 0.41,7.83c0.16,-0.12 -0.98,16.38 -0.41,16.27c0.57,-0.12 1.08,12.77 1.24,12.65c0.16,-0.12 -2.22,13.97 -2.22,13.37c0,-0.6 2.48,11.45 2.63,11.33c0.16,-0.12 -1.81,11.56 -1.65,11.45c0.16,-0.12 0.67,17.59 0.83,17.47c0.16,-0.12 -1.81,10.96 -1.65,11.45c0.16,0.49 -4.28,17.59 -4.28,17.59z" fill="#4f2803" id="svg_8"/>
   <ellipse cx="96.67" cy="180.39" fill="#007f00" id="svg_10" rx="4.22" ry="1.98" transform="matrix(-0.898901 0.556517 0.602108 0.830836 73.2385 -38.3042)"/>
  </g>
  <rect fill="#00bf00" height="62.14" id="svg_7" transform="matrix(-0.674427 0.717489 -0.464854 -0.723785 156.461 146.044)" width="12.95" x="13.4" y="67.23"/>
  <rect fill="#00bf00" height="90.62" id="svg_28" transform="rotate(6.99688 173.562 94.2618) matrix(1.29204 -0.158228 0.417499 0.48967 -86.5425 75.5376)" width="12.51" x="164.84" y="48.21"/>
  <rect fill="#00bf00" height="33.31" id="svg_13" transform="matrix(0.665625 0.832447 -0.873093 0.634638 166.473 -103.017)" width="13.68" x="173.67" y="105.18"/>
 </g>
</svg>