<svg width="250" height="250" xmlns="http://www.w3.org/2000/svg">
 <g>
  <title>Layer 1</title>
  <rect fill="#00bf00" x="80.9605" y="142.68616" width="17.18539" height="103.87036" id="svg_28" stroke="null" transform="rotate(10.0844 89.5532 194.621)"/>
  <rect fill="#00bf00" x="106.42021" y="140.84758" width="18.05979" height="102.41487" id="svg_31" stroke="null" transform="rotate(-7.7109 115.45 192.055)"/>
  <path transform="rotate(-162.271 153.802 132.224)" stroke="null" id="svg_5" d="m169.87901,233.72411l0,0c-17.75631,0 -32.1535,-45.43511 -32.1535,-101.5c0,-56.05771 14.39719,-101.5 32.1535,-101.5l0,0c-10.11933,23.96009 -16.07565,61.56651 -16.07565,101.5s5.95632,77.53273 16.07565,101.5z" fill="#333333"/>
  <rect transform="rotate(-44.8143 141.532 103.464)" fill="#00bf00" x="134.09463" y="58.14254" width="14.87401" height="90.6436" id="svg_10" stroke="null"/>
  <rect transform="rotate(17.6152 143.002 128.69)" stroke="null" id="svg_11" height="190.00407" width="4.76033" y="33.68784" x="140.62222" fill="#333333"/>
  <path transform="rotate(-19.6877 78.2748 100.771)" stroke="null" id="svg_13" d="m60.24746,68.78698l36.05477,0l0,63.96763l-36.05477,0l0,-63.96763z" opacity="undefined" fill="#333333"/>
  <rect transform="rotate(-0.16025 104.649 104.341)" fill="#00bf00" x="90.1389" y="62.3182" width="29.01965" height="84.04473" id="svg_14" stroke="null"/>
  <rect transform="rotate(13.2628 79.7791 104.688)" stroke="null" fill="#00bf00" x="72.88603" y="65.61913" width="13.78612" height="78.13735" id="svg_15"/>
  <ellipse fill="#00bf00" stroke="null" cx="104.64731" cy="38.33777" id="svg_17" rx="33.5" ry="35"/>
  <path transform="rotate(11.1978 157.413 128.082)" stroke="null" id="svg_18" d="m190.15923,133.26987c2.60296,-0.92969 5.0924,-2.0015 7.28543,-2.96362l-65.71066,-0.44147l-9.01323,3.80195l-28.55413,-0.32654c3.57787,-1.73098 7.49729,-3.76442 10.40319,-5.29174l-10.33684,-5.13451l30.46662,0l6.19899,3.20808l67.08897,0l-8.32187,-3.2009c2.56824,-1.00873 6.36909,-2.35489 8.43092,-3.06071l22.56314,8.15808l-22.61446,8.28463l-7.88608,-3.03325l0.00001,0z" fill="#333333"/>
  <path transform="rotate(-111.588 89.3157 129.675)" id="svg_19" d="m81.86787,107.80476l14.89565,0l0,43.73989l-14.89565,0l0,-43.73989z" opacity="undefined" stroke="null" fill="#00bf00"/>
  <rect transform="rotate(-19.3572 73.3909 67.1236)" stroke="null" id="svg_21" height="16.43013" width="5.29834" y="58.90857" x="70.74176" fill="#333333"/>
  <rect transform="rotate(-13.1332 61.7943 71.6576)" stroke="null" id="svg_22" height="43" width="5.29834" y="50.15758" x="59.14513" fill="#333333"/>
  <rect transform="rotate(-9.69596 68.6301 74.2711)" stroke="null" id="svg_23" height="34.44573" width="6.54455" y="57.04819" x="65.35785" fill="#333333"/>
  <rect transform="rotate(-37.5197 58.0469 75.0797)" stroke="null" id="svg_24" height="33.9779" width="5.29834" y="58.09072" x="55.39775" fill="#333333"/>
 </g>

</svg>