<svg width="250" height="250" xmlns="http://www.w3.org/2000/svg">
 <g>
  <title>Layer 1</title>
  <rect id="svg_21" height="103.73472" width="31.22545" y="53.87499" x="82.29796" fill="#00bf00" stroke="null"/>
  <path fill="#00bf00" stroke="null" opacity="undefined" d="m96.86987,75.58786c-19.64145,0 -35.55103,-15.93697 -35.55103,-35.61225c0,-19.67528 15.90958,-35.61225 35.55103,-35.61225c19.64145,0 35.55103,15.93697 35.55103,35.61225c0,19.67528 -15.90958,35.61225 -35.55103,35.61225z" id="svg_22"/>
  <rect transform="rotate(-55.9239 125.315 88.2936)" stroke="null" id="svg_28" height="57.11958" width="13.15484" y="59.73382" x="118.73792" fill="#00bf00"/>
  <rect stroke="null" id="svg_29" height="108.30055" width="16.69509" y="139.96448" x="71.30002" fill="#00bf00" transform="rotate(12.5621 79.6476 194.115)"/>
  <rect transform="rotate(-15.4265 120.25 193.104)" stroke="null" id="svg_51" height="110.37402" width="16.69509" y="137.91706" x="111.90229" fill="#00bf00"/>
  <rect transform="rotate(25.4139 76.9255 100.337)" stroke="null" fill="#00bf00" x="70.30227" y="73.59312" width="13.24642" height="53.48686" id="svg_9"/>
  <g transform="rotate(-152.815 30.0906 118.356)" stroke="null">
   <g stroke="null">
    <title stroke="null">Layer 1</title>
    <g stroke="null" id="svg_2">
     <path stroke="null" fill="#333333" opacity="undefined" d="m43.41095,86.65023l-16.138,46.31072l-4.23964,-1.38552l20.37763,-44.92519z" id="svg_6"/>
     <path stroke="null" fill="#333333" opacity="undefined" d="m16.77014,149.03156l6.71634,-17.79989l3.0275,1.03027l-6.71634,17.79989l-3.0275,-1.03027z" id="svg_5"/>
     <path stroke="null" fill="#333333" d="m41.63439,122.81207l0,0c-3.60845,8.16677 -11.18771,12.93417 -16.92986,10.64594c-5.74141,-2.28793 -7.46979,-10.76439 -3.86134,-18.93116l0,0c0.39752,5.63215 -0.07308,15.81984 4.01689,17.44968s12.26312,-5.48842 16.77429,-9.16447l0.00001,0z" id="svg_3"/>
    </g>
   </g>
  </g>
  <rect transform="rotate(-146.541 153.758 85.692)" stroke="null" id="svg_16" height="43.9759" width="12.50835" y="63.70405" x="147.50424" fill="#00bf00"/>
  <rect transform="rotate(-32.3505 55.446 113.245)" stroke="null" id="svg_17" height="40.75445" width="13.27602" y="92.86823" x="48.80804" fill="#00bf00"/>
  <g transform="rotate(6.55557 173.296 51.4359)" stroke="null" id="svg_8">
   <path stroke="null" id="svg_1" d="m187.25829,17.75509l-16.91503,49.19554l-4.44377,-1.47183l21.3588,-47.72371z" opacity="undefined" fill="#333333"/>
   <path stroke="null" id="svg_4" d="m159.33462,84.02228l7.03972,-18.9087l3.17327,1.09445l-7.03972,18.9087l-3.17327,-1.09445z" opacity="undefined" fill="#333333"/>
   <path stroke="null" id="svg_7" d="m185.39606,56.1695l0,0c-3.7822,8.6755 -11.72639,13.73988 -17.74501,11.30911c-6.01785,-2.43045 -7.82945,-11.43494 -4.04725,-20.11044l0,0c0.41666,5.98299 -0.0766,16.80531 4.2103,18.53667s12.85357,-5.83031 17.58195,-9.73535l0.00001,0z" fill="#333333"/>
  </g>
 </g>

</svg>