<svg width="250" height="250" xmlns="http://www.w3.org/2000/svg">
 <g>
  <title>Layer 1</title>
  <rect transform="rotate(-74.8071 85.12 223.766)" stroke="null" fill="#007f3f" x="69.50726" y="171.89825" width="31.22545" height="103.73472" id="svg_21"/>
  <path id="svg_22" d="m39.31173,250.00647c-19.64145,0 -35.55103,-15.93697 -35.55103,-35.61225c0,-19.67528 15.90958,-35.61225 35.55103,-35.61225c19.64145,0 35.55103,15.93697 35.55103,35.61225c0,19.67528 -15.90958,35.61225 -35.55103,35.61225z" opacity="undefined" stroke="null" fill="#007f3f"/>
  <path transform="rotate(-83.9534 101.801 238.627)" stroke="null" id="svg_28" d="m95.70684,183.11148l12.18761,0l0,111.03161l-12.18761,0l0,-111.03161z" opacity="undefined" fill="#007f3f"/>
  <rect transform="rotate(93.0913 169.182 224.929)" fill="#007f3f" x="160.8349" y="170.77844" width="16.69509" height="108.30055" id="svg_29" stroke="null"/>
  <rect transform="rotate(-79.2914 176.926 234.965)" fill="#007f3f" x="168.57836" y="179.77753" width="16.69509" height="110.37402" id="svg_51" stroke="null"/>
  <rect transform="rotate(-93.9173 93.4151 211.441)" stroke="null" id="svg_9" height="109.30233" width="12.57961" y="156.79021" x="87.12532" fill="#007f3f"/>
  <path id="svg_10" d="m206.9781,131.46533" opacity="NaN" stroke="null" fill="#333333"/>
 </g>

</svg>