<svg width="250" height="250" xmlns="http://www.w3.org/2000/svg">
 <g>
  <title>Layer 1</title>
  <rect fill="#333333" stroke="#333333" x="47.9739" y="159.48909" width="0.45045" height="0" id="svg_41"/>
  <rect transform="rotate(-85.1805 191.217 125.03)" fill="#191919" x="128.41777" y="82.37567" width="125.59924" height="85.30773" id="svg_45"/>
  <rect transform="rotate(162.724 152.088 183.336)" fill="#191919" x="81.33697" y="152.46657" width="141.50222" height="61.73977" id="svg_46" stroke="null"/>
  <g id="svg_49">
   <rect transform="rotate(-22.0847 101.249 94.1601)" fill="#4c4c4c" x="57.78174" y="34.46761" width="86.93455" height="119.38493" id="svg_47"/>
   <rect transform="rotate(-36.274 102.028 169.849)" fill="#4c4c4c" x="29.78752" y="147.84081" width="144.48104" height="44.01731" id="svg_48"/>
  </g>
  <path id="svg_15" d="m105.40849,39.80792l2.82987,-2.82987l4.00209,0l2.82987,2.82987l0,4.00209l-2.82987,2.82987l-4.00209,0l-2.82987,-2.82987l0,-4.00209z" fill="#282828"/>
  <path id="svg_16" d="m79.32153,48.98666l2.82987,-2.82987l4.00209,0l2.82987,2.82987l0,4.00209l-2.82987,2.82988l-4.00209,0l-2.82987,-2.82988l0,-4.00209z" fill="#282828"/>
  <path id="svg_17" d="m53.71766,58.64849l2.82987,-2.82987l4.00209,0l2.82987,2.82987l0,4.00209l-2.82987,2.82988l-4.00209,0l-2.82987,-2.82988l0,-4.00209z" fill="#282828"/>
 </g>

</svg>