<svg width="250" height="250" xmlns="http://www.w3.org/2000/svg">
 <g>
  <title>Layer 1</title>
  <rect transform="rotate(-85.1805 191.217 125.03)" fill="#191919" x="128.41777" y="82.37567" width="125.59924" height="85.30773" id="svg_45"/>
  <rect transform="rotate(162.724 152.088 183.336)" fill="#191919" x="81.33697" y="152.46657" width="141.50222" height="61.73977" id="svg_46" stroke="null"/>
  <g id="svg_49">
   <rect transform="rotate(-22.0847 100.283 92.2277)" fill="#4c4c4c" x="56.81555" y="32.53524" width="86.93455" height="119.38493" id="svg_47"/>
   <rect transform="rotate(-36.274 101.062 167.917)" fill="#4c4c4c" x="28.82133" y="145.90844" width="144.48104" height="44.01731" id="svg_48"/>
  </g>
  <path id="svg_16" d="m78.35535,49.46975l2.82987,-2.82987l4.00209,0l2.82987,2.82987l0,4.00209l-2.82987,2.82988l-4.00209,0l-2.82987,-2.82988l0,-4.00209z" fill="#282828"/>
  <path id="svg_17" d="m53.23457,59.13159l2.82987,-2.82987l4.00209,0l2.82987,2.82987l0,4.00209l-2.82987,2.82988l-4.00209,0l-2.82987,-2.82988l0,-4.00209z" fill="#282828"/>
  <path d="m61.39402,105.48114c0,0 1.03973,0.36974 1.93237,0c0.63119,-0.26145 1.03973,-0.11335 1.93237,-0.48309c0.6312,-0.26145 0.96619,-0.48309 0.96619,-0.48309c0.48309,0 0.48309,0 1.44927,0c0.48309,0 1.44928,0.48309 1.93237,0.48309c0.48309,0 0.62458,0.14149 0.96618,0.48309c0.34159,0.34159 0.14149,0.14149 0.48309,0.48309c0.3416,0.3416 0,0.96619 0,0.96619c0,0.48309 -0.3416,0.62459 0,0.96619c0.3416,0.3416 1.30698,0.16724 2.41546,0.96618c0.87633,0.63162 1.44927,0.96619 1.44927,0.96619c0,0 0,0.48309 0,0.48309c0.48309,0.48309 0.96619,0.48309 1.93237,0.48309c0.48309,0 0.96618,0 0.96618,0c0.48309,-0.48309 0.29822,-1.00296 0.48309,-1.44928c0.26145,-0.6312 0.48309,-0.96619 0.48309,-0.96619c0.48309,0 1.55959,-0.55462 2.89855,0c0.6312,0.26145 0.96619,0.48309 0.96619,0.48309c0.48309,0.48309 0.96618,0.48309 0.96618,0.48309c0,0.48309 0.718,0.88104 0.96619,1.93237c0.11099,0.47017 -0.1481,0.70473 0.48309,0.96619c0.89263,0.36974 1.93237,0 2.89854,0.48309l0.96619,0.48309l0.96619,0" id="svg_103" stroke="#333333" fill="none"/>
  <path d="m107.77084,39.78065c0,0 0,0.48309 0,0.48309c0,0.48309 0,0.96618 0,0.96618c-0.48309,0.48309 -0.48309,0.48309 -0.48309,0.96618c0,0 0,0.48309 0,0.96618c0,0 0,0.48309 0,0.48309c0,0.48309 0.03677,0.29822 0.48309,0.48309c0.63119,0.26144 0.96618,0.48309 0.96618,0.48309c0.48309,0 0.96619,0 1.44928,0c0.48309,0 0.48309,0 0.48309,0c0.48309,-0.48309 0.62459,-0.14149 0.96618,-0.48309c0.3416,-0.3416 0,-0.48309 0.48309,-0.48309c0,0 0.48309,0 1.44928,0c0,0 0.14149,0.34159 0.48309,0c0.3416,-0.3416 0,-0.48309 0,-0.96618c0,-0.48309 0,-0.96619 0,-0.96619c0,-0.48309 0,-0.48309 0,-0.96618c0,0 0.48309,0 0.96619,0c0.48309,0 0.96619,0 0.96619,0c0,-0.48309 -0.48309,-0.48309 -0.48309,-0.48309c-0.48309,0 -0.96619,0 -0.96619,0c-0.48309,-0.48309 -0.48309,-0.48309 -0.96618,-0.48309c-0.48309,0 -0.48309,0 -0.48309,-0.48309c0,0 -0.48309,0 -0.48309,-0.48309c0,0 -0.62459,0.3416 -0.96619,0c-0.3416,-0.3416 0,0 0,0c-0.48309,0.48309 -0.48309,0.96618 -0.48309,1.44928c0,0 -0.48309,0 -0.96619,0c-0.48309,0 -0.48309,0 -0.96619,0c0,0 -0.48309,0 -0.48309,0l-0.48309,0" id="svg_104" stroke="#333333" fill="none"/>
  <path d="m170.57278,141.22993c0,0 -0.48309,0 -1.44928,0c-1.93237,0 -3.88968,-0.17357 -5.7971,-0.48309c-1.50795,-0.24471 -2.89854,-0.48309 -4.34782,-0.48309c-0.96619,0 -1.93237,-0.48309 -2.41547,-0.48309c-0.48308,0 -0.496,-0.11099 -0.96617,0c-1.05133,0.24818 -1.30075,1.05605 -1.93237,1.93237c-0.39948,0.55424 -0.70474,0.81808 -0.96619,1.44928c-0.36974,0.89262 -0.48309,1.44926 -0.48309,1.93236c0,0.48309 0,0.96619 0,1.44928c0,0.48309 0,0.96619 0,0.96619c0,0.48309 0,0.96619 0,1.44926c0,0.48309 0,0.48309 0,0.96619c0,0 -0.48309,0 -1.44926,0c-0.48309,0 -0.96619,0 -1.44928,0c-0.48309,0 -0.99203,0.22198 -1.93237,0c-1.05133,-0.24818 -2.07385,-1.30779 -2.41545,-0.96619c-0.3416,0.3416 0,0.96619 0,1.44928c0,0.48309 -0.3416,1.10768 0,1.44928c0.3416,0.3416 0,0 0,0c0,0.48309 -0.14149,1.10768 -0.48309,1.44928c-0.3416,0.3416 -0.48309,0 -0.48309,0.48308c0,0.48309 -0.48309,0.96619 -0.96619,1.44928c0,0 0,0 -0.48309,0c0,0 -0.62459,0.3416 -0.96619,0c-0.3416,-0.3416 0,-0.48309 -0.48309,-0.48309c0,0 -0.48308,-0.48309 -0.48308,-0.48309c-0.48309,-0.48309 -0.96619,-0.96617 -0.96619,-0.96617c-0.48309,0 -0.48309,0 -0.96619,0c0,0 -0.48309,0 -0.48309,0c-0.48309,0.48308 -0.96619,0.48308 -0.96619,0.48308c0,0.48309 -0.48309,0.48309 -0.96619,0.48309c-0.48308,0 -0.48308,0 -0.96617,0c0,0 -0.14149,-0.14149 -0.48309,-0.48309c-0.3416,-0.3416 -0.48309,0 -0.96619,0c0,0 -0.48309,0 -0.96619,0c0,0 -0.48309,0 -0.48309,0c-0.48309,0 -0.14151,-0.14149 -0.48309,-0.48308c-0.3416,-0.3416 -0.48309,0.48308 -0.48309,1.44926c0,0.48309 0,0.48309 -0.48309,0.48309c-0.48308,0 -0.96617,0 -1.44926,0c0,0 -0.48309,0 -0.96619,0c0,0 -0.48309,0 -0.48309,0c-0.48309,0 -0.48309,0 -0.96619,0c0,0 0.48309,-0.48309 0,-0.48309c-0.48309,0 -0.22164,0.33499 -0.48309,0.96619c-0.18487,0.44632 0,1.44928 0,1.44928c0,0.48309 0,0.48309 0,0.96619c0,0.48309 0,0.48309 0,0.96617c0,0 -0.3416,0.62459 0,0.96619c0.34159,0.3416 0.48309,0 0.48309,0.48309c0,0 0.48309,0 0.48309,0.48309c0,0.48309 0,0.48309 -0.48309,0.48309c0,0 -0.48309,0 -0.48309,0.48309l0,0l0,0.48309" id="svg_106" stroke="#333333" fill="none"/>
  <path d="m55.59692,225.28792c0,-0.48309 0,-0.48309 0,-1.44928c0,-0.48309 0,-0.96619 0,-1.44928c0,-0.96619 0.48309,-1.93236 0.48309,-1.93236c0,-0.48309 0,-0.48309 0,-0.48309c0.96619,-0.48309 1.4622,-0.85519 1.93237,-0.96619c1.05133,-0.24818 1.10768,-1.10768 1.44928,-1.44928c0.34159,-0.3416 0.48309,0 0.96618,-0.48309c0.48309,-0.48309 1.44928,-0.96619 1.44928,-0.96619c0,-0.48308 0,-0.48308 0,-0.96617c0,-0.48309 0,-0.96619 0,-1.44928c0,0 -0.48309,-0.48309 -0.96618,-0.48309c0,0 -0.48309,0 -0.48309,-0.48309c0,0 0.22165,-0.33499 0.48309,-0.96619c0.18487,-0.44632 0,-0.96617 0.48309,-1.44926c0,0 -0.33499,-0.22165 -0.96618,-0.48309c-0.44632,-0.18488 -0.96618,-0.48309 -1.44928,-0.48309l0,0l-0.48309,0l-0.48309,0" id="svg_107" stroke="#333333" fill="none"/>
  <path d="m83.61625,204.99806c0,-0.48309 0.15476,-1.46176 0,-2.41547c-0.24471,-1.50795 -0.48309,-2.89854 -0.48309,-3.86473c0,-0.48309 0.3416,-1.10768 0,-1.44928c-0.34159,-0.3416 0,0 0.48309,0c0,0 0.82469,-0.14149 0.48309,-0.48309c-0.3416,-0.3416 -0.96619,0 -1.44927,-0.48309c-0.48309,-0.48309 -0.96619,-0.48309 -0.96619,-0.48309c-0.48309,0 -0.51987,0.18488 -0.96619,0c-0.6312,-0.26144 -0.96618,-0.48309 -0.96618,-0.48309c-0.48309,0 -0.96619,0 -0.96619,0c-0.48309,0 -0.48309,0 -0.96619,0c0,0 -0.48309,0 -0.96618,0c-0.48309,0 -0.96619,0 -0.96619,0.48309c0,0 -0.33499,-0.22165 -0.96619,-0.48309c-0.44631,-0.18488 -0.48309,-0.48308 -0.48309,-0.48308c0,-0.48309 0,-0.96619 0,-1.44928c0,-0.48309 0.14149,-0.14149 0.48309,-0.48309c0.3416,-0.3416 0.48309,-0.48309 0.48309,-0.48309c0.48309,-0.48309 1.10768,-0.14149 1.44928,-0.48309c0.3416,-0.3416 -0.14149,-0.62459 -0.48309,-0.96619c-0.3416,-0.3416 -0.29823,-0.51987 -0.48309,-0.96617c-0.26145,-0.6312 -0.48309,-0.96619 -0.48309,-0.96619l0,-0.48309l-0.48309,0l0,-0.48309" id="svg_109" stroke="#333333" fill="none"/>
  <path d="m79.75152,155.23959c0.48309,0 0.96618,0 2.41546,0c0.96618,0 1.84722,0.23491 2.89855,0.48309c0.94033,0.22198 1.44927,0 1.93237,0c0,0 0.48309,0 0.48309,0c0.48309,0.48309 0.48309,0.48309 0.96618,0.48309c0,0 0.14149,0.62459 0.48309,0.96619c0.3416,0.3416 0.29822,0.03677 0.48309,0.48309c0.26145,0.6312 0.48309,0.48309 0.48309,0.96619c0,0.48308 0,0.48308 0.48309,0.48308c0.48309,0 0.96618,0.48309 1.93237,0.48309c0.48309,0 1.3906,0.72148 2.89855,0.96619c0.9537,0.15477 1.44927,0 1.93237,0c0,0 0,-0.48309 0,-0.48309c0,-0.48309 0,-0.96619 0,-0.96619c0,-0.48308 0.48309,-0.48308 0.48309,-0.48308c0.96618,0 1.44927,0 1.93237,0c0.48309,0 0.29822,0.51985 0.48309,0.96617c0.26145,0.6312 0.48309,0.96619 0.48309,0.96619l0,0" id="svg_110" stroke="#333333" fill="none"/>
  <path transform="rotate(36.4492 95.0293 119.249)" d="m92.3119,135.91592c0.48309,0 0.50894,-0.22198 1.44927,0c1.05133,0.24818 1.44928,0.48309 1.44928,0.48309c0.96618,0 1.44927,0 2.41546,0c0,0 0.48309,0 0.96618,0c0.48309,0 0.48309,0 0.48309,-0.48309c0,-0.96617 -0.74419,-1.47511 -0.96618,-2.41545c-0.24818,-1.05133 -1.2011,-1.84723 -1.44928,-2.89855c-0.11099,-0.47017 0,-0.48309 0,-0.48309c0,-0.96618 0,-1.93237 0,-2.89855c0,-0.96618 -0.23814,-2.52851 -1.44927,-4.83092c-0.8109,-1.54154 -1.49657,-3.77991 -2.41546,-4.34782c-0.41094,-0.25397 -0.96619,-0.48309 -1.44928,-0.48309c-0.48309,0 -0.48309,-0.48309 0,-0.48309c0.48309,0 1.44928,0 2.89855,0c0.96619,0 1.44928,0 1.93237,-0.48309c0,0 0.48309,0 0.48309,-0.48309c0,-0.96619 -0.07738,-1.45552 0,-1.93237c0.24471,-1.50794 0.48309,-2.41546 0.48309,-3.86473c0,-0.96619 0,-1.44928 0,-1.93237c0,0 0,-0.48309 -0.48309,-1.44928c-0.48309,-0.96618 -0.96618,-1.93237 -1.44927,-2.89855c-0.48309,-0.96618 -0.92941,-0.7813 -0.48309,-0.96618c0.6312,-0.26145 1.93237,-0.96619 2.41546,-0.96619l0.48309,0" id="svg_112" stroke="#333333" fill="none"/>
  <path d="m101.00756,81.32654c0,0 0.50894,-0.22198 1.44927,0c1.05133,0.24818 1.95821,0.7442 2.89855,0.96619c1.05133,0.24818 2.26736,1.18783 2.89855,1.44927c0.44632,0.18487 0.62459,0.14149 0.96619,0.48309c0.34159,0.34159 1.44927,0.48309 1.93237,0.96619c0.48309,0.48309 1.20109,0.88103 1.44927,1.93237c0.11099,0.47017 0.48309,0.96619 0.48309,1.44927c0,0 0,0.48309 0,0.48309c0.48309,0.48309 0.82469,0.62459 0.48309,0.96619c-0.3416,0.3416 -1.03973,0.59645 -1.93237,0.96619c-0.63119,0.26144 -1.05605,0.81765 -1.93237,1.44927c-0.55423,0.39948 -0.48309,0.48309 -0.48309,0.96619c0,0.48309 0.48309,0.96618 0.48309,0.96618c0.48309,0.48309 0.48309,0.96619 0.48309,1.44928c0,0 0.14149,0.14149 0.48309,0.48309c0.3416,0.3416 0,0.96619 0,0.96619c0,0.48309 -0.11099,0.49602 0,0.96619c0.24818,1.05132 0.29822,1.00295 0.48309,1.44927c0.26145,0.6312 0.48309,0.48309 0.48309,0.96619c0,0 0.48309,0.48309 0.48309,0.48309c0,0.48309 0,0.48309 0,0.96618c0,0 0,0.48309 0,0.48309c0,0.48309 0,0.48309 -0.48309,0.96619c0,0 -0.48309,0 -0.48309,0c0,0.48309 0,0.96618 0,0.96618l0,0.48309" id="svg_113" stroke="#333333" fill="none"/>
 </g>

</svg>