<svg width="250" height="250" xmlns="http://www.w3.org/2000/svg">
 <g id="Layer_1">
  <title>Layer 1</title>
  <path transform="rotate(-11.3851 118.477 125.944)" fill="#4c4c4c" stroke-opacity="0" d="m46.99855,201.48357l26.80446,-151.07878l89.3482,0l26.80445,151.07878l-142.9571,0l-0.00001,0z" id="svg_117" stroke="#000000"/>
  <rect transform="rotate(-15.1015 113.906 108.086)" fill="#4c4c4c" stroke-opacity="0" x="109.4147" y="91.71134" width="8.98204" height="32.74881" id="svg_122" stroke="#000000"/>
  <rect transform="rotate(-47.27 59.7691 208.908)" stroke="#000000" id="svg_12" height="26.74412" width="52.32529" y="195.53604" x="33.60647" stroke-opacity="0" fill="#4c4c4c"/>
  <rect transform="rotate(29.5498 201.629 179.257)" stroke="#000000" id="svg_13" height="26.74412" width="52.32529" y="165.88494" x="175.46659" stroke-opacity="0" fill="#4c4c4c"/>
  <rect transform="rotate(-11.2139 132.387 195.188)" stroke="#000000" fill="#666666" stroke-opacity="0" x="76.13721" y="190.24741" width="112.50016" height="9.88024" id="svg_123"/>
  <rect transform="rotate(-11.2139 104.001 54.7141)" fill="#666666" stroke-opacity="0" x="58.27833" y="51.77026" width="91.44499" height="5.88766" id="svg_124" stroke="#000000"/>
  <rect transform="rotate(78.1224 120.129 125.694)" fill="#4c4c4c" stroke-opacity="0" x="108.79876" y="87.41437" width="22.65961" height="76.55765" id="svg_125" stroke="#000000"/>
  <rect transform="rotate(76.7314 124.249 159.094)" stroke="#000000" id="svg_23" height="7.07878" width="33.33363" y="155.55439" x="107.5822" stroke-opacity="0" fill="#000000"/>
  <ellipse stroke="#000000" ry="14.52031" rx="15.69764" id="svg_4" cy="105.67446" cx="138.77679" stroke-opacity="0" fill="#000000"/>
  <rect transform="rotate(-59.7432 41.0179 209.539)" stroke="#000000" fill="#666666" stroke-opacity="0" x="18.56789" y="204.59838" width="44.89995" height="9.88024" id="svg_14"/>
  <rect transform="rotate(45.2884 218.278 174.247)" stroke="#000000" fill="#666666" stroke-opacity="0" x="198.56671" y="169.30689" width="39.42166" height="9.88024" id="svg_15"/>
  <ellipse stroke="#000000" ry="14.52031" rx="15.69764" id="svg_26" cy="113.81398" cx="95.17225" stroke-opacity="0" fill="#000000"/>
  <rect transform="rotate(106.394 99.7717 164.534)" stroke="#000000" id="svg_27" height="7.07878" width="27.83399" y="160.99466" x="85.85473" stroke-opacity="0" fill="#000000"/>
  <rect transform="rotate(52.6678 149.955 155.544)" stroke="#000000" id="svg_28" height="7.07878" width="29.74228" y="152.00412" x="135.08348" stroke-opacity="0" fill="#000000"/>
  <path transform="rotate(-98.6128 106.91 74.7007)" stroke="#000000" id="svg_25" d="m138.99036,163.36017l0,0c-35.43215,0 -64.16127,-39.68723 -64.16127,-88.65949c0,-48.96599 28.72912,-88.65949 64.16127,-88.65949l0,0c-20.1928,20.92896 -32.07843,53.77789 -32.07843,88.65949s11.88563,67.72426 32.07843,88.65949z" stroke-opacity="0" fill="#4c4c4c"/>
 </g>

</svg>