<svg width="250" height="250" xmlns="http://www.w3.org/2000/svg">
 <g id="Layer_1">
  <title>Layer 1</title>
  <path transform="rotate(-11.3851 118.477 125.944)" fill="#4c4c4c" stroke-opacity="0" d="m46.99855,201.48357l26.80446,-151.07878l89.3482,0l26.80445,151.07878l-142.9571,0l-0.00001,0z" id="svg_117" stroke="#000000"/>
  <rect transform="rotate(-15.1015 113.906 108.086)" fill="#4c4c4c" stroke-opacity="0" x="109.4147" y="91.71134" width="8.98204" height="32.74881" id="svg_122" stroke="#000000"/>
  <rect transform="rotate(4.95717 41.7459 197.28)" stroke="#000000" id="svg_12" height="26.74412" width="52.32529" y="183.90816" x="15.58325" stroke-opacity="0" fill="#4c4c4c"/>
  <rect transform="rotate(-22.472 207.443 166.466)" stroke="#000000" id="svg_13" height="26.74412" width="52.32529" y="153.09428" x="181.28053" stroke-opacity="0" fill="#4c4c4c"/>
  <rect transform="rotate(-11.2139 132.831 195.1)" fill="#666666" stroke-opacity="0" x="61.30093" y="190.15952" width="143.05997" height="9.88024" id="svg_123" stroke="#000000"/>
  <rect transform="rotate(-11.2139 104.001 54.7141)" fill="#666666" stroke-opacity="0" x="58.27833" y="51.77026" width="91.44499" height="5.88766" id="svg_124" stroke="#000000"/>
  <rect transform="rotate(78.1224 120.129 125.694)" fill="#4c4c4c" stroke-opacity="0" x="108.79876" y="87.41437" width="22.65961" height="76.55765" id="svg_125" stroke="#000000"/>
  <ellipse stroke="#000000" ry="17.15112" rx="17.15112" id="svg_3" cy="112.95642" cx="89.64901" stroke-opacity="0" fill="#000000"/>
  <ellipse stroke="#000000" ry="17.15112" rx="17.15112" id="svg_4" cy="105.3983" cx="136.16052" stroke-opacity="0" fill="#000000"/>
  <rect transform="rotate(79.6003 128.725 169.445)" fill="#000000" stroke-opacity="0" x="125.83732" y="150.06922" width="5.7754" height="38.7522" id="svg_5" stroke="#000000"/>
  <rect transform="rotate(79.6003 125.818 158.98)" fill="#000000" stroke-opacity="0" x="122.93035" y="139.60413" width="5.7754" height="38.7522" id="svg_6" stroke="#000000"/>
  <rect transform="rotate(79.6003 122.911 148.515)" fill="#000000" stroke-opacity="0" x="120.02338" y="129.13904" width="5.7754" height="38.7522" id="svg_7" stroke="#000000"/>
  <path transform="rotate(-3.31596 111.83 102.035)" stroke="#000000" id="svg_8" d="m77.73043,95.44721l35.59248,23.73856l32.60697,-34.30224l-68.19946,10.56369z" opacity="NaN" stroke-opacity="0" fill="#4c4c4c"/>
  <rect transform="rotate(-57.2249 89.1201 116.234)" stroke="#000000" id="svg_9" height="7.06363" width="32.71377" y="112.70221" x="72.7632" stroke-opacity="0" fill="#4c4c4c"/>
  <rect transform="rotate(36.8186 138.32 108.529)" stroke="#000000" id="svg_10" height="6.84412" width="35.34699" y="105.1074" x="120.64635" stroke-opacity="0" fill="#4c4c4c"/>
  <path transform="rotate(75.4758 110.873 81.1828)" stroke="#000000" id="svg_11" d="m112.60328,81.1828l-17.13756,-75.57855l30.81388,75.57855l-30.81388,75.57851l17.13756,-75.57851z" stroke-opacity="0" fill="#666666"/>
  <rect transform="rotate(8.93527 32.8783 183.376)" stroke="#000000" fill="#666666" stroke-opacity="0" x="10.42837" y="178.43566" width="44.89995" height="9.88024" id="svg_14"/>
  <rect transform="rotate(-29.2 217.115 146.34)" stroke="#000000" fill="#666666" stroke-opacity="0" x="197.40392" y="141.39998" width="39.42166" height="9.88024" id="svg_15"/>
 </g>

</svg>