<svg width="250" height="250" xmlns="http://www.w3.org/2000/svg">
 <g>
  <title>Layer 1</title>
  <rect id="svg_41" height="0" width="0.45045" y="159.48909" x="47.9739" stroke="#333333" fill="#bf5f00"/>
  <g transform="rotate(-3.431 127.704 120.469)" stroke="null" id="svg_79">
   <rect stroke="null" transform="matrix(1.71922 -0.00531189 0.00494982 1.84498 -42.832 -15.0698)" id="svg_40" height="16.6799" width="90.60048" y="34.38379" x="54.07293" fill="#333333"/>
   <rect stroke="null" transform="matrix(1.71922 -0.00531188 0.00494982 1.84498 -42.9836 -15.0636)" id="svg_69" height="16.6812" width="91.05093" y="65.01383" x="54.97383" fill="#333333"/>
   <path stroke="null" id="svg_70" d="m167.97841,211.02069l26.99921,-164.62615l28.24249,5.33425l-26.99921,164.62615l-28.24249,-5.33425z" opacity="undefined" fill="#333333"/>
   <rect stroke="null" transform="matrix(0.384917 1.79815 -1.67559 0.413073 190.754 -56.7036)" id="svg_71" height="19.3826" width="90.59269" y="83.60039" x="37.40596" fill="#333333"/>
   <rect stroke="null" transform="matrix(-0.000111031 -1.84498 1.71923 -0.000119152 36.6762 348.703)" id="svg_72" height="16.6799" width="86.50442" y="48.8628" x="73.43025" fill="#333333"/>
   <path stroke="null" id="svg_73" d="m76.8425,203.60514l-0.24355,-10.40066l121.71991,-3.2825l0.24355,10.40066l-121.71991,3.2825z" opacity="undefined" fill="#333333"/>
   <rect stroke="null" transform="matrix(-1.71922 -0.00403446 0.00375947 -1.84498 367.768 255.686)" id="svg_74" height="19.35217" width="79.32346" y="58.56321" x="98.25085" fill="#333333"/>
   <path stroke="null" id="svg_75" d="m62.18025,167.57633l-0.30629,-13.08017l140.54731,-3.7902l0.30629,13.08017l-140.54731,3.7902z" opacity="undefined" fill="#333333"/>
   <path stroke="null" id="svg_76" d="m65.2792,185.05057l-0.30678,-13.10105l128.18372,-3.45678l0.30678,13.10105l-128.18372,3.45678z" opacity="undefined" fill="#333333"/>
   <ellipse stroke="null" ry="25.76333" rx="95.64193" id="svg_77" cy="50.34654" cx="127.70376" fill="#333333"/>
  </g>
 </g>

</svg>