<svg width="250" height="250" xmlns="http://www.w3.org/2000/svg">
 <g>
  <title>Layer 1</title>
  <g id="svg_108">
   <rect id="svg_41" height="0" width="0.45045" y="159.48909" x="47.9739" stroke="#333333" fill="#bf5f00"/>
   <rect transform="rotate(-21.3254 62.1632 41.2456)" stroke="null" id="svg_84" height="24.89227" width="10.76434" y="28.79949" x="56.78101" fill="#7f3f00"/>
   <rect transform="rotate(-6.49947 118.801 36.2658)" stroke="null" id="svg_85" height="30.89628" width="12.50059" y="20.81765" x="112.55119" fill="#7f3f00"/>
   <rect transform="rotate(11.401 179.28 33.8132)" stroke="null" id="svg_86" height="28.13606" width="12.97741" y="19.74515" x="172.79178" fill="#7f3f00"/>
   <g id="svg_103">
    <g transform="rotate(-3.431 129.055 130.829)" stroke="null" id="svg_98">
     <rect stroke="null" transform="matrix(1.71922 -0.00531189 0.00494982 1.84498 -42.832 -15.0698)" id="svg_88" height="16.6799" width="90.60048" y="40.00145" x="54.84278" fill="#bf5f00"/>
     <rect stroke="null" transform="matrix(1.71922 -0.00531188 0.00494982 1.84498 -42.9836 -15.0636)" id="svg_89" height="16.6812" width="91.05093" y="70.63148" x="55.74369" fill="#bf5f00"/>
     <path stroke="null" id="svg_90" d="m169.32976,221.38106l26.99921,-164.62616l28.24249,5.33425l-26.99921,164.62615l-28.24249,-5.33424z" opacity="undefined" fill="#bf5f00"/>
     <rect stroke="null" transform="matrix(0.384917 1.79815 -1.67559 0.413073 190.754 -56.7036)" id="svg_91" height="19.3826" width="90.59269" y="84.09156" x="43.05482" fill="#bf5f00"/>
     <rect stroke="null" transform="matrix(-0.000111031 -1.84498 1.71923 -0.000119152 36.6762 348.703)" id="svg_92" height="16.6799" width="86.50442" y="49.64846" x="67.81476" fill="#bf5f00"/>
     <path stroke="null" id="svg_93" d="m78.19385,213.96551l-0.24355,-10.40066l121.71992,-3.28251l0.24354,10.40067l-121.71991,3.2825z" opacity="undefined" fill="#bf5f00"/>
     <rect stroke="null" transform="matrix(-1.71922 -0.00403446 0.00375947 -1.84498 367.768 255.686)" id="svg_94" height="19.35217" width="79.32346" y="52.94952" x="97.45255" fill="#bf5f00"/>
     <path stroke="null" id="svg_95" d="m63.5316,177.9367l-0.30629,-13.08017l140.5473,-3.7902l0.30629,13.08017l-140.5473,3.7902z" opacity="undefined" fill="#bf5f00"/>
     <path stroke="null" id="svg_96" d="m66.63055,195.41094l-0.30678,-13.10105l128.18372,-3.45679l0.30678,13.10105l-128.18372,3.45679z" opacity="undefined" fill="#bf5f00"/>
     <ellipse stroke="null" ry="25.76333" rx="95.64193" id="svg_97" cy="60.70691" cx="129.05511" fill="#bf5f00"/>
    </g>
    <rect transform="rotate(0.0389552 149.836 29.1089)" stroke="null" id="svg_99" height="32.43248" width="18.23618" y="12.89266" x="140.71858" fill="#bf5f00"/>
    <rect transform="rotate(-7.98072 84.9338 30.3727)" stroke="null" id="svg_100" height="32.43248" width="17.20296" y="14.15644" x="76.33228" fill="#bf5f00"/>
    <rect transform="rotate(-24.6796 38.0641 44.3988)" stroke="null" id="svg_101" height="40.52993" width="20.25413" y="24.13382" x="27.93698" fill="#bf5f00"/>
    <path transform="rotate(24.6796 208.98 36.8067)" id="svg_102" d="m198.51581,20.59042l20.92855,0l0,32.43248l-20.92855,0l0,-32.43248z" opacity="undefined" stroke="null" fill="#bf5f00"/>
   </g>
   <rect transform="rotate(-24.1227 160.119 84.628)" stroke="null" id="svg_104" height="23.87391" width="56.76098" y="72.69104" x="131.7388" fill="#bf5f00"/>
   <rect transform="rotate(14.7432 103.723 88.949)" stroke="null" id="svg_107" height="23.87391" width="63.59553" y="77.01207" x="71.92538" fill="#bf5f00"/>
  </g>
 </g>

</svg>