<svg width="250" height="250" xmlns="http://www.w3.org/2000/svg">
 <g id="Layer_1">
  <title>Layer 1</title>
  <path transform="rotate(-11.3851 119.058 123.619)" stroke="#000000" id="svg_117" d="m47.57994,199.15799l26.80446,-151.07878l89.3482,0l26.80445,151.07878l-142.9571,0z" stroke-opacity="0" fill="#4c4c4c"/>
  <rect transform="rotate(-11.9913 117.17 115.588)" stroke="#000000" id="svg_121" height="33.92134" width="70.75966" y="98.62727" x="81.78981" stroke-opacity="0" fill="#000000"/>
  <rect transform="rotate(-15.1015 114.487 105.76)" stroke="#000000" id="svg_122" height="32.74881" width="8.98204" y="89.38576" x="109.99609" stroke-opacity="0" fill="#4c4c4c"/>
  <rect transform="rotate(-11.2139 133.412 192.774)" stroke="#000000" id="svg_123" height="9.88024" width="143.05997" y="187.83394" x="61.88232" stroke-opacity="0" fill="#666666"/>
  <rect transform="rotate(-11.2139 104.582 52.3885)" stroke="#000000" id="svg_124" height="5.88766" width="91.44499" y="49.44468" x="58.85972" stroke-opacity="0" fill="#666666"/>
  <rect transform="rotate(78.1224 120.71 123.368)" stroke="#000000" id="svg_125" height="76.55765" width="22.65961" y="85.08879" x="109.38015" stroke-opacity="0" fill="#4c4c4c"/>
  <rect transform="rotate(-12.8555 122.036 148.071)" stroke="#000000" id="svg_126" height="37.94313" width="6.55904" y="129.09903" x="118.75601" stroke-opacity="0" fill="#000000"/>
  <rect transform="rotate(-12.8555 109.539 157.817)" stroke="#000000" id="svg_127" height="38.7522" width="5.7754" y="138.44134" x="106.65132" stroke-opacity="0" fill="#000000"/>
  <rect transform="rotate(-12.8555 138.192 152.244)" stroke="#000000" id="svg_128" height="38.7522" width="5.68335" y="132.86753" x="135.35053" stroke-opacity="0" fill="#000000"/>
  <rect transform="rotate(-12.8555 97.9558 166.689)" stroke="#000000" id="svg_129" height="32.8731" width="4.80766" y="150.25211" x="95.55199" stroke-opacity="0" fill="#000000"/>
  <rect transform="rotate(-12.8555 152.665 154.658)" stroke="#000000" id="svg_130" height="33.8154" width="4.67443" y="137.75006" x="150.32818" stroke-opacity="0" fill="#000000"/>
 </g>

</svg>