<svg width="250" height="250" xmlns="http://www.w3.org/2000/svg">
 <g id="Layer_1">
  <title>Layer 1</title>
  <path transform="rotate(-11.3851 119.058 123.619)" stroke="#000000" id="svg_117" d="m47.57994,199.15799l26.80446,-151.07878l89.3482,0l26.80445,151.07878l-142.9571,0z" stroke-opacity="0" fill="#4c4c4c"/>
  <rect transform="rotate(-11.9913 117.17 115.588)" stroke="#000000" id="svg_121" height="33.92134" width="70.75966" y="98.62727" x="81.78981" stroke-opacity="0" fill="#000000"/>
  <rect transform="rotate(-11.2139 133.412 192.774)" stroke="#000000" id="svg_123" height="9.88024" width="143.05997" y="187.83394" x="61.88232" stroke-opacity="0" fill="#666666"/>
  <rect transform="rotate(-11.2139 104.582 52.3885)" stroke="#000000" id="svg_124" height="5.88766" width="91.44499" y="49.44468" x="58.85972" stroke-opacity="0" fill="#666666"/>
  <path d="m101.84939,132.70187c0,-0.29939 0.15553,-0.2878 0.2994,0.5988c0.15166,0.93457 0.31571,1.82343 0.5988,3.29341c0.3049,1.58324 0.5988,2.39522 0.5988,2.99402c0,0.5988 0,1.1976 0,1.1976c0,0.29941 0.21172,0.68649 0,0.89821c-0.21171,0.2117 -0.3871,0.08769 -0.5988,0.29939c-0.21171,0.2117 -0.2994,0.29941 -0.5988,0.29941c0,0 -0.2994,0.29939 -0.2994,0.5988c0,0.29941 0,0.5988 0,0.5988c0,0.29941 0,0.5988 0,0.89821c0,0.5988 0,0.5988 0,0.89819c0,0.59882 -0.2994,0.59882 -0.2994,0.89821c0,0.29941 -0.29941,0.29941 -0.89821,0.29941c-0.2994,0 -0.2994,0.29939 -0.5988,0.29939c-0.2994,0 -0.38709,0.08771 -0.5988,0.29941c-0.2117,0.2117 -0.2994,0.89821 -0.2994,1.49701l-0.2994,0.29939l0,0.29941" id="svg_148" stroke="#000000" fill="none"/>
  <path d="m146.16077,96.17493c0.29939,0 0.29939,0 0.5988,0c0.29939,0 0.5988,0 0.89821,0c0,0 0.29939,0 0.29939,0c0,-0.8982 0,-1.497 0,-1.497c0,-0.2994 -0.42342,-0.77419 0,-1.19761c0.42342,-0.42342 0.73618,-0.20761 0.89821,-0.5988c0.22916,-0.55322 0.29939,-0.5988 0.29939,-0.8982c0,0 0.3871,0.2117 0.5988,0c0.2117,-0.21171 0.142,-0.64352 0.29941,-0.89821c0.35196,-0.5695 0.5988,-0.5988 0.5988,-0.5988c0.29941,0 0.89821,0 1.1976,0c0.29941,0 0.9859,0.21172 1.19762,0c0.2117,-0.21171 0.08769,-0.3871 0.29939,-0.5988c0.42342,-0.42342 -0.13757,-0.61482 0,-1.1976c0.15382,-0.65158 0.29941,-0.89821 0.29941,-1.19761c0,-0.2994 -0.2117,-0.68649 0,-0.8982c0.2117,-0.2117 0.29939,0 0.29939,-0.2994c0,-0.89821 0,-1.19761 0,-1.79641c0,-0.5988 0,-0.8982 0,-1.1976c0,-0.29941 0.2117,-0.6865 0,-0.89821c-0.2117,-0.2117 -0.38708,0.21172 -0.5988,0c-0.2117,-0.21171 0.09206,-0.6545 -0.29939,-1.1976c-0.24757,-0.3435 -0.1754,-0.47478 -0.59882,-0.89821c-0.2117,-0.2117 -0.18481,-0.32219 -0.29939,-0.5988c-0.16203,-0.39119 -0.18483,-0.32219 -0.29941,-0.5988c-0.16203,-0.39118 -0.50702,-0.73617 -0.89819,-0.8982c-0.27661,-0.11458 -1.19762,-0.29941 -2.09581,-0.59881l-0.89821,-0.2994l-0.29939,0" id="svg_149" stroke="#000000" fill="none"/>
  <path d="m147.95717,74.01924c0,-0.2994 -0.0441,-0.35123 0.29941,-0.5988c0.54311,-0.39145 0.89819,-0.2994 0.89819,-0.5988c0,0 0.29941,-0.29941 0.5988,-0.29941c0.29941,0 0.68651,-0.0877 0.89821,-0.2994c0.2117,-0.21171 0,-0.5988 0,-0.8982c0,-0.2994 0,-0.5988 0,-1.49701c0,-0.5988 0,-0.8982 0,-0.8982c0,-0.2994 -0.08769,-0.3871 -0.29939,-0.5988c-0.2117,-0.21171 -0.08771,-0.38709 -0.29941,-0.5988c-0.21172,-0.21172 -0.38708,-0.38709 -0.5988,-0.59881c-0.21172,-0.21172 -0.20763,-0.13737 -0.5988,-0.2994c-0.27661,-0.11458 -0.5988,0 -0.5988,0c-0.29941,0 -0.76083,-0.20762 -0.5988,-0.5988c0.11458,-0.2766 0.29939,0 0.29939,-0.2994c0,-0.2994 -0.11458,-0.32219 0,-0.5988c0.16203,-0.39119 0.18483,-0.62159 0.29941,-0.89821c0.16203,-0.39118 0.38708,-0.38708 0.5988,-0.5988c0.2117,-0.21171 0,-0.5988 0,-0.8982c0,-0.2994 0,-0.2994 0,-0.5988c0,-0.2994 0.2117,-0.68649 0,-0.8982c-0.21172,-0.21171 -0.29941,0 -0.29941,-0.2994c0,-0.2994 0,-0.5988 0,-0.8982l0.5988,-0.2994l0,0l0.5988,0" id="svg_150" stroke="#000000" fill="none"/>
  <path d="m153.047,80.30666c0.29939,0 0.20735,-0.35509 0.5988,-0.8982c0.24757,-0.34349 0.87354,-0.41523 1.1976,-1.1976c0.22916,-0.55323 0.29939,-0.89821 0.29939,-1.19761c0,-0.2994 0,-0.2994 0,-0.5988c0,-0.2994 0,-0.5988 0,-0.8982c0,-0.29941 0,-0.29941 0,-0.59881c0,-0.2994 0,-0.5988 0,-0.8982c0,0 -0.13736,-0.50702 -0.29939,-0.8982c-0.11458,-0.27661 -0.13737,-0.50702 -0.29941,-0.89821c-0.11458,-0.27661 -0.08769,-0.3871 -0.29939,-0.5988c-0.2117,-0.21171 -0.20763,-0.43677 -0.5988,-0.5988c-0.27661,-0.11458 -0.29941,0 -0.29941,0c-0.29939,0 -0.50702,-0.13737 -0.89821,-0.2994c-0.2766,-0.11457 -0.5988,0 -0.5988,-0.2994c0,0 -0.5988,0 -0.89819,-0.2994l-0.29941,0l0,-0.29941l0,0" id="svg_151" stroke="#000000" fill="none"/>
  <path d="m102.44819,141.08511c0.2994,0 0.44498,0.54604 0.5988,1.1976c0.06879,0.29138 0.2994,0.5988 0.2994,0.89821c0,0 0,0.29939 0.2994,0.29939c0.2994,0 0.2994,0 0.89821,0.29941c0,0 0.2994,0 0.5988,0c0.5988,0 0.8982,0 0.8982,0c0.5988,0 0.921,-0.11458 1.19761,0c0.39118,0.16203 0.5988,0.5988 0.8982,0.5988c0.2994,0 0.38708,0.38708 0.5988,0.5988c0.21171,0.2117 0.2994,0 0.2994,0.29939l0,0.59882l0,0.5988" id="svg_153" stroke="#4c4c4c" fill="none"/>
  <path d="m179.6937,157.55217c0,0.29941 0,0.5988 0,1.19762c0,0.5988 0,1.49699 0,2.09579c0,0.29941 0,0.59882 -0.29939,0.59882c-0.29941,0 -0.59882,0.29939 -0.89821,0.29939c0,0 -0.68649,-0.21172 -0.89821,0c-0.21172,0.21172 -0.29939,0.29941 -0.29939,0.5988c0,0.29941 0,0.5988 0,0.5988c0,0.29941 0.12402,0.77419 -0.29941,1.19762c-0.2117,0.2117 -0.29939,0.29939 -0.5988,0.29939c0,0 -0.29941,0 -0.5988,0c-0.29941,0 -1.1976,0 -1.49701,0c0,0 -0.35123,0.25533 -0.5988,0.5988c-0.39145,0.54311 -0.29941,0.89821 -0.5988,1.1976c-0.29941,0.29941 -0.29941,0.59882 -0.29941,0.89821c0,0 0,0.29941 0,0.5988l0,0.29941l0,0.29939l0,0" id="svg_157" stroke="#191919" fill="none"/>
  <path d="m176.69968,163.54021c0,-0.29941 -0.29941,-0.29941 -0.29941,-0.59882c0,-0.29939 -0.38708,-0.38708 -0.5988,-0.5988c-0.2117,-0.2117 -0.5988,-0.29939 -0.5988,-0.29939c-0.29939,0 -0.84543,-0.14558 -1.49701,-0.29941c-0.58278,-0.13757 -0.92099,0.11458 -1.1976,0c-0.39117,-0.16203 -0.89819,-0.29939 -1.1976,-0.29939c-0.29941,0 -0.89821,0 -1.7964,0c-0.29941,0 -0.81052,-0.08769 -0.5988,-0.29941c0.2117,-0.2117 0.29939,-0.5988 0.29939,-0.5988c0,-0.29941 -0.11458,-0.6216 0,-0.89821c0.16203,-0.39119 0.29941,-0.29939 0.29941,-0.5988c0,0 -0.21172,-0.38708 0,-0.5988c0.42342,-0.42342 0.68649,-0.3871 0.89819,-0.5988c0.21172,-0.21172 0.29941,-0.29939 0,-0.5988c-0.29941,-0.29941 -0.38708,-0.68649 -0.5988,-0.89821c-0.2117,-0.2117 -0.29939,0 -0.29939,-0.29939c0,-0.29941 0.2117,-0.68651 0,-0.89821c-0.21172,-0.21172 -0.29941,0 -0.29941,-0.29941l0,-0.29939" id="svg_158" stroke="#191919" fill="none"/>
 </g>

</svg>