<svg width="250" height="250" xmlns="http://www.w3.org/2000/svg">
 <g id="Layer_1">
  <title>Layer 1</title>
  <rect transform="rotate(159.52 119.681 130.983)" stroke="#000000" stroke-opacity="0" id="svg_105" height="91.74228" width="75.19262" y="85.11155" x="82.08479" fill="#000000"/>
  <rect transform="rotate(-59.508 167.686 102.475)" stroke="#000000" id="svg_106" height="65.05439" width="97.40703" y="69.94806" x="118.98217" stroke-opacity="0" fill="#000000"/>
  <path transform="rotate(-7.61547 124.651 65.7582)" stroke="null" id="svg_100" d="m31.17431,89.56344l35.05366,-47.61048l116.84554,0l35.05365,47.61048l-186.95286,0z" fill="#442100"/>
  <path transform="rotate(-14.4663 88.5775 139.524)" stroke="null" id="svg_104" d="m46.32607,89.32935l42.25144,100.38842l42.25144,-100.38842l-84.50289,0z" fill="#442100"/>
  <rect transform="rotate(-40.6144 71.0073 58.5127)" stroke="null" id="svg_108" height="14.35807" width="3.08328" y="51.33366" x="69.46561" fill="#261200"/>
  <rect transform="rotate(-59.9015 85.0339 71.5346)" stroke="null" id="svg_109" height="17.06296" width="2.98045" y="63.0031" x="83.5437" fill="#261200"/>
  <rect transform="rotate(-52.5911 104.466 84.4124)" stroke="null" id="svg_110" height="18.38789" width="3.1111" y="75.21843" x="102.91042" fill="#261200"/>
  <rect transform="rotate(-42.0215 114.763 182.584)" stroke="null" id="svg_114" height="56.14328" width="6.28743" y="154.51281" x="111.61933" fill="#442100"/>
  <rect transform="rotate(-40.5169 165.322 169.229)" stroke="null" id="svg_115" height="45.50898" width="5.98802" y="146.47433" x="162.32842" fill="#000000"/>
 </g>

</svg>