<svg width="250" height="250" xmlns="http://www.w3.org/2000/svg">
 <g>
  <title>Layer 1</title>
  <g id="svg_59">
   <rect transform="rotate(-4.86216 130.625 133.852)" stroke="null" id="svg_40" height="162.8247" width="116.72939" y="52.43989" x="72.2605" fill="#bf5f00"/>
   <rect id="svg_41" height="0" width="0.45045" y="159.48909" x="47.9739" stroke="#333333" fill="#bf5f00"/>
   <rect transform="rotate(-53.006 61.437 109.638)" id="svg_44" height="55.86657" width="87.95294" y="81.70521" x="17.46057" fill="#bf5f00"/>
   <rect transform="rotate(-138.536 194.429 96.4619)" stroke="null" id="svg_57" height="56.15601" width="83.80046" y="68.38387" x="152.52914" fill="#bf5f00"/>
  </g>
  <path d="m65.09104,56.78623c0,0.45045 -0.18288,0.68154 0.9009,1.35135c1.21172,0.74888 2.75993,1.65704 4.05406,2.25225c2.38626,1.09753 3.66352,2.05834 5.40542,2.70271c0.94467,0.34946 2.25225,1.35135 3.60361,1.8018c1.35135,0.45045 2.35513,0.83422 3.60361,1.35136c1.76563,0.73135 3.18849,2.15759 4.50451,2.70271c0.93057,0.38546 2.75092,0.93739 4.50452,1.35136c1.96059,0.46283 4.95496,1.35136 8.10812,1.8018c3.15316,0.45045 6.34115,0.95027 9.90993,0.45045c3.24763,-0.45485 6.75677,-1.8018 6.75677,-1.8018c2.70271,-0.45045 5.85587,-1.35135 9.00903,-2.25225c3.15316,-0.9009 6.33395,-1.27235 9.00903,-2.25226c2.27776,-0.83436 5.78293,-2.46194 8.10812,-3.15316c2.20163,-0.65448 4.89563,-1.9318 6.75676,-2.70271c1.31602,-0.54511 3.25647,-1.05045 4.95496,-1.8018c1.48529,-0.65705 2.88834,-0.88674 4.50452,-1.8018c0.55435,-0.31387 1.81926,-0.68444 3.15315,-0.90091c1.40607,-0.22817 2.67305,-0.9659 3.60362,-1.35135c1.31602,-0.54511 2.27634,-0.69392 3.15315,-0.9009c0.9803,-0.23141 1.8018,-0.90091 3.15315,-1.35135c1.35136,-0.45045 2.64801,-1.12318 4.05406,-1.35135c1.33391,-0.21646 2.72681,-0.69392 3.60361,-0.9009c0.9803,-0.23141 1.8018,-0.00001 1.8018,-0.45045c0,-0.45044 -1.35135,0 -2.25224,0c-0.90091,0 -1.85979,-0.39161 -3.15317,0c-1.55443,0.47065 -2.73734,1.23038 -4.5045,1.8018c-2.30809,0.74633 -3.63896,1.70714 -4.95497,2.25225c-0.93056,0.38545 -2.14464,1.08824 -3.60361,1.8018c-1.2796,0.62584 -2.73244,1.29625 -3.60361,1.80181c-1.40471,0.81519 -3.15315,1.8018 -4.95497,2.70271c-1.8018,0.9009 -4.13319,2.07524 -6.3063,3.15316c-2.353,1.16715 -5.4946,2.53737 -8.10812,4.05406c-2.80945,1.63039 -5.51985,2.86363 -8.10812,4.05406c-2.38626,1.09752 -5.0852,1.82374 -7.20721,2.70271c-1.5005,0.62152 -3.12767,1.4179 -5.40542,2.25226c-1.33753,0.48994 -3.15315,0.90089 -4.95496,1.35135c-1.8018,0.45045 -4.02063,1.12503 -6.30631,1.35136c-2.24129,0.22193 -4.05406,0.45045 -5.85587,0.45045c-2.25226,0 -3.60698,-0.39541 -4.05406,-0.45045c-1.84335,-0.22693 -3.21307,-0.70699 -4.95496,-1.35136c-1.88935,-0.69891 -4.14651,-1.68246 -5.85587,-2.25225c-2.13668,-0.71223 -3.92274,-2.55524 -6.75677,-3.60361c-1.74189,-0.64436 -2.95414,-1.58527 -4.50451,-2.70271c-0.81712,-0.58894 -1.88559,-1.21286 -2.70271,-1.8018c-1.03358,-0.74496 -1.66913,-2.4082 -2.70271,-3.15316c-0.81712,-0.58894 -1.35136,-1.35135 -2.25226,-2.25226c-0.45045,-0.45045 -0.58238,-0.13193 -0.9009,-0.45045c-0.31852,-0.31852 -0.9009,-0.45045 -0.9009,-0.9009c0,-0.45045 -0.45045,-0.45045 -0.45045,-0.9009l-0.45045,0l0,-0.45045l-0.45045,0" id="svg_66" stroke="#ffff00" fill="#ffff00"/>
  <ellipse ry="12.83786" rx="13.06308" id="svg_67" cy="79.53401" cx="106.53255" fill="#ff0000"/>
 </g>

</svg>