<svg width="250" height="250" xmlns="http://www.w3.org/2000/svg">
 <g id="Layer_1">
  <title>Layer 1</title>
  <path transform="rotate(-7.53222 125.402 132.038)" id="svg_1" d="m64.86977,58.43596l121.06464,0l0,147.2049l-121.06464,0l0,-147.2049z" opacity="undefined" stroke="null" fill="#4c4c4c"/>
  <rect transform="rotate(-48.5906 178.923 80.4275)" stroke="null" id="svg_2" height="42.76869" width="40.37359" y="59.04319" x="158.73616" fill="#4c4c4c"/>
  <rect transform="rotate(33.3041 61.7698 97.0754)" stroke="null" id="svg_3" height="44.08603" width="42.47438" y="75.03236" x="40.5326" fill="#4c4c4c"/>
  <rect transform="rotate(33.3041 57.4037 93.0247)" stroke="null" id="svg_4" height="35.85504" width="37.90622" y="75.09717" x="38.45057" fill="#7f7f7f"/>
  <rect transform="rotate(-7.53222 133.653 192.172)" stroke="null" id="svg_6" height="24.45375" width="121.06464" y="179.94496" x="73.1203" fill="#666666"/>
  <path transform="rotate(-7.42051 120.226 78.1915)" stroke="null" id="svg_7" d="m69.96937,58.67018l50.25644,39.04256l50.25644,-39.04256l-100.51288,0z" fill="#999999"/>
  <path transform="rotate(-22.9458 133.185 193.217)" stroke="null" id="svg_9" d="m129.34647,194.32695l0.76038,-3.45082l3.07859,-1.53576l3.07859,1.53576l0.7604,3.45082l-2.13051,2.76736l-3.41695,0l-2.13049,-2.76736z" fill="#999999"/>
  <path stroke="null" id="svg_10" d="m161.70789,189.65654l0.80058,-3.73088l3.24133,-1.6604l3.24134,1.6604l0.80059,3.73088l-2.24314,2.99196l-3.59758,0l-2.24312,-2.99196z" fill="#999999"/>
  <path d="m94.66376,180.00726c0,0.29941 0,1.1976 0,1.7964c0,1.19762 0,2.09581 0,3.29343c0,0.29939 0.2994,0.5988 0.2994,0.89819c0,0.5988 0,1.1976 0,2.39522c0,1.1976 0,2.09581 0,2.3952c0,0.29941 0,0.5988 0,0.89821c0,0.29939 0,0.5988 0,0.5988c0,0.29939 0.09179,0.73618 -0.2994,0.89821c-0.27661,0.11458 -0.5988,0 -1.1976,0c0,0 -0.59881,0.29939 -1.19761,0.29939c-0.2994,0 -0.2994,0 -0.5988,0c-0.2994,0 -0.5988,0 -0.89821,0.29941c0,0 -0.2994,0 -0.5988,0c-0.2994,0 -0.5988,0 -0.8982,0c0,0 -0.38709,-0.2117 -0.5988,0c-0.2117,0.2117 0,0.5988 0,0.89819c0,0.29941 0,0.29941 0,0.5988c0,0.29941 0,0.59882 0,0.89821c0,0.29941 -0.13737,0.20763 -0.2994,0.5988c-0.11458,0.27661 -0.13737,0.80641 -0.29941,1.1976c-0.34374,0.82983 0,1.19762 0,1.19762c-0.2994,0 -0.5988,0 -0.8982,0c-0.2994,0 -0.5988,0.29939 -0.5988,0.5988l0,0.29939l0,0.29941l0,0.29939" id="svg_72" stroke="#4c4c4c" fill="none"/>
  <path d="m85.08292,193.48032c0,0 -0.5988,0 -1.1976,-0.29939c0,0 -0.20762,0.13736 -0.5988,0.29939c-0.27661,0.11458 -0.38709,0.08769 -0.59881,0.29941c-0.2117,0.2117 -0.2994,0.29939 -0.2994,0.29939c0,0.29941 -0.2994,0.29941 -0.5988,0.29941c-0.2994,0 -0.8982,0 -0.8982,0c-0.2994,0 -0.38709,-0.08771 -0.5988,-0.29941c-0.2117,-0.2117 -0.3871,-0.3871 -0.59881,-0.5988c-0.2117,-0.2117 -0.59879,-0.5988 -0.8982,-0.89821c-0.2994,-0.29939 -0.5988,-0.29939 -0.5988,-0.89819c0,0 -0.0877,-0.3871 -0.2994,-0.5988c-0.21172,-0.21172 -0.29941,-0.29941 -0.59881,-0.29941c-0.5988,0 -0.5988,0 -1.1976,0c-0.2994,0 -0.5988,0 -0.5988,0c0,0 -0.59881,-0.29939 -1.19761,-0.5988c-0.5988,-0.29941 -0.8982,-0.5988 -0.8982,-0.5988l0,-0.29941" id="svg_74" stroke="#4c4c4c" fill="none"/>
  <path d="m96.16077,193.77972c0.2994,0 0.8982,0 1.1976,0.29939c0.29941,0.29941 0.86157,0.91797 1.1976,1.49701c0.54184,0.93369 0.59881,1.1976 0.59881,1.49701c0,0.29939 0.20762,0.73616 0.5988,0.89819c0.27661,0.11458 0.2994,0.29941 0.5988,0.29941c0,0 0.2994,0 0.5988,0c0.2994,0 0.59881,0 0.89821,-0.29941c0,0 0.2994,0 0.5988,0c0.2994,0 0.8982,0.29941 0.8982,0.59882l0.2994,0.29939l0.2994,0l0.29941,0" id="svg_75" stroke="#4c4c4c" fill="none"/>
  <ellipse ry="1.34731" rx="1.34731" id="svg_88" cy="59.79768" cx="177.44819" stroke="#7f7f7f" fill="#7f7f7f"/>
  <ellipse ry="1.34731" rx="1.34731" id="svg_90" cy="75.36655" cx="164.27453" stroke="#7f7f7f" fill="#7f7f7f"/>
  <ellipse ry="1.34731" rx="1.34731" id="svg_91" cy="78.06116" cx="195.71166" stroke="#7f7f7f" fill="#7f7f7f"/>
  <ellipse ry="1.34731" rx="1.34731" id="svg_92" cy="92.43241" cx="181.9392" stroke="#7f7f7f" fill="#7f7f7f"/>
 </g>

</svg>