<svg width="250" height="250" xmlns="http://www.w3.org/2000/svg">
 <g id="Layer_1">
  <title>Layer 1</title>
  <path id="svg_1" d="m65.16917,58.43596l121.06464,0l0,147.2049l-121.06464,0l0,-147.2049z" transform="rotate(-7.53222 125.701 132.038)" opacity="undefined" stroke="null" fill="#4c4c4c"/>
  <rect transform="rotate(-48.5906 178.923 80.4275)" stroke="null" id="svg_2" height="42.76869" width="40.37359" y="59.04319" x="158.73616" fill="#4c4c4c"/>
  <rect transform="rotate(33.3041 61.7698 97.0754)" stroke="null" id="svg_3" height="44.08603" width="42.47438" y="75.03236" x="40.5326" fill="#4c4c4c"/>
  <rect transform="rotate(33.3041 57.4037 93.0247)" stroke="null" id="svg_4" height="35.85504" width="37.90622" y="75.09717" x="38.45057" fill="#7f7f7f"/>
  <rect transform="rotate(-48.5906 183.914 74.2925)" stroke="null" id="svg_5" height="32.51968" width="33.04462" y="58.03266" x="167.39205" fill="#7f7f7f"/>
  <rect transform="rotate(-7.53222 133.653 192.172)" stroke="null" id="svg_6" height="24.45375" width="121.06464" y="179.94496" x="73.1203" fill="#666666"/>
  <path transform="rotate(-7.42051 120.226 78.1915)" stroke="null" id="svg_7" d="m69.96937,58.67018l50.25644,39.04256l50.25644,-39.04256l-100.51288,0z" fill="#999999"/>
  <path stroke="null" id="svg_8" d="m98.91149,198.47933l0.88953,-3.86413l3.60148,-1.7197l3.60148,1.7197l0.88955,3.86413l-2.49237,3.09881l-3.99731,0l-2.49235,-3.09881z" fill="#999999"/>
  <path transform="rotate(-22.9458 133.185 193.217)" stroke="null" id="svg_9" d="m129.34647,194.32695l0.76038,-3.45082l3.07859,-1.53576l3.07859,1.53576l0.7604,3.45082l-2.13051,2.76736l-3.41695,0l-2.13049,-2.76736z" fill="#999999"/>
  <path stroke="null" id="svg_10" d="m161.70789,189.65654l0.80058,-3.73088l3.24133,-1.6604l3.24134,1.6604l0.80059,3.73088l-2.24314,2.99196l-3.59758,0l-2.24312,-2.99196z" fill="#999999"/>
  <rect transform="rotate(-7.53222 124.899 125.969)" stroke="null" id="svg_11" height="15.13207" width="121.06464" y="118.40313" x="64.36665" fill="#666666"/>
  <rect transform="rotate(-7.53222 129.38 157.592)" stroke="null" id="svg_12" height="19.06072" width="121.06464" y="148.06156" x="68.84732" fill="#666666"/>
  <path transform="rotate(-22.9458 124.802 125.553)" stroke="null" id="svg_13" d="m120.96324,126.66228l0.76038,-3.45082l3.07858,-1.53576l3.07859,1.53576l0.7604,3.45082l-2.13051,2.76736l-3.41695,0l-2.13049,-2.76736z" fill="#999999"/>
  <path transform="rotate(-22.9458 128.395 157.289)" stroke="null" id="svg_14" d="m124.55605,158.39881l0.76038,-3.45082l3.07858,-1.53576l3.07859,1.53576l0.7604,3.45082l-2.13051,2.76736l-3.41695,0l-2.13049,-2.76736z" fill="#999999"/>
  <path stroke="null" id="svg_15" d="m164.1031,120.81543l0.71163,-3.33114l2.88118,-1.4825l2.88119,1.4825l0.71164,3.33114l-1.9939,2.67139l-3.19785,0l-1.99388,-2.67139z" fill="#999999"/>
  <path stroke="null" id="svg_16" d="m162.0073,154.24151l0.74128,-3.46439l3.00123,-1.5418l3.00124,1.5418l0.74129,3.46439l-2.07698,2.77825l-3.33109,0l-2.07696,-2.77825z" fill="#999999"/>
  <path stroke="null" id="svg_17" d="m77.0552,132.03344l0.80058,-3.46439l3.24133,-1.5418l3.24133,1.5418l0.80059,3.46439l-2.24313,2.77824l-3.59758,0l-2.24311,-2.77824z" fill="#999999"/>
  <path stroke="null" id="svg_18" d="m84.83963,163.76996l0.80058,-3.46439l3.24133,-1.5418l3.24133,1.5418l0.80059,3.46439l-2.24313,2.77824l-3.59758,0l-2.24311,-2.77824z" fill="#999999"/>
  <path transform="rotate(-58.1506 56.9604 92.9685)" stroke="null" id="svg_19" d="m43.44537,85.52637l6.55342,-7.00577l6.9616,7.44206l6.9616,-7.44206l6.55348,7.00577l-6.9616,7.44212l6.9616,7.44212l-6.55348,7.00583l-6.9616,-7.44212l-6.9616,7.44212l-6.55342,-7.00583l6.96154,-7.44212l-6.96154,-7.44212z" fill="#999999"/>
  <path transform="rotate(40.6997 183.725 74.4154)" stroke="null" id="svg_20" d="m170.14926,67.48289l6.58291,-6.52597l6.99293,6.93238l6.99293,-6.93238l6.58298,6.52597l-6.99293,6.93244l6.99293,6.93244l-6.58298,6.52603l-6.99293,-6.93244l-6.99293,6.93244l-6.58291,-6.52603l6.99287,-6.93244l-6.99287,-6.93244z" fill="#999999"/>
  <g stroke="null">
   <g stroke="null">
    <title stroke="null">Layer 1</title>
    <ellipse stroke="null" fill="url(#svg_28)" cx="55.98632" cy="71.1311" id="svg_31" rx="50.62701" ry="46.30594"/>
   </g>
   <defs stroke="null" transform="translate(0.898204 0) translate(-0.598802 1.1976) translate(1.79641 -1.79641) translate(-43.1138 -29.0419) translate(0.299401 0) translate(18.2635 13.1737) translate(22.1557 18.5629) translate(0.299401 -1.79641) translate(-21.5569 -11.0778) translate(19.4611 14.0719) translate(2.69461 0) translate(2.39521 -23.0539) translate(-18.5629 12.8743) translate(-5.08982 -11.6766) translate(30.2395 14.9701) translate(0 11.0778) translate(3.54902 0) translate(0 0.0333672) translate(-0.029911 28.418) scale(0.70066 0.711831) translate(0.029911 -28.418) translate(106.866 44.549) scale(1.08424 1) translate(-106.866 -44.549) translate(3.11352 62.6351) scale(1.87686 1.71538) translate(-3.11352 -62.6351)">
    <radialGradient spreadMethod="pad" id="svg_69">
     <stop offset="0" stop-opacity="0.99609" stop-color="#ffff00"/>
     <stop offset="1" stop-color="rgba(255,255,255,0)"/>
     <stop offset="NaN" stop-opacity="0" stop-color="0"/>
    </radialGradient>
   </defs>
  </g>
  <rect id="svg_70" height="77.24551" width="78.14371" y="156.35457" x="155.7416" stroke="null" fill="url(#svg_69)"/>
 </g>
 <defs>
  <radialGradient id="svg_28" spreadMethod="pad">
   <stop stop-color="#ffff60" stop-opacity="0.99609" offset="0.05078"/>
   <stop stop-color="rgba(255,255,255,0)" offset="1"/>
  </radialGradient>
 </defs>
</svg>