<svg width="250" height="250" xmlns="http://www.w3.org/2000/svg">
 <g id="Layer_1">
  <title>Layer 1</title>
  <path transform="rotate(-7.53222 125.402 132.038)" id="svg_1" d="m64.86977,58.43596l121.06464,0l0,147.2049l-121.06464,0l0,-147.2049z" opacity="undefined" stroke="null" fill="#3d1d00"/>
  <rect transform="rotate(-48.5906 178.923 80.4275)" stroke="null" id="svg_2" height="42.76869" width="40.37359" y="59.04319" x="158.73616" fill="#3d1d00"/>
  <rect transform="rotate(33.3041 61.7698 97.0754)" stroke="null" id="svg_3" height="44.08603" width="42.47438" y="75.03236" x="40.5326" fill="#3d1d00"/>
  <rect transform="rotate(-7.53222 133.653 192.172)" stroke="null" id="svg_6" height="24.45375" width="121.06464" y="179.94496" x="73.1203" fill="#7f3f00"/>
  <path transform="rotate(-7.42051 120.226 78.1915)" stroke="null" id="svg_7" d="m69.96937,58.67018l50.25644,39.04256l50.25644,-39.04256l-100.51288,0z" fill="#7f3f00"/>
  <rect transform="rotate(-58.2757 48.8811 87.7151)" stroke="null" id="svg_93" height="20.47801" width="31.92579" y="77.47611" x="32.91819" fill="#7f7f7f"/>
  <rect transform="rotate(41.3382 188.67 69.0716)" stroke="null" id="svg_94" height="19.76775" width="31.92579" y="59.18774" x="172.70661" fill="#7f7f7f"/>
  <rect transform="rotate(-7.83511 93.9837 186.114)" stroke="null" id="svg_95" height="9.28144" width="27.30476" y="181.47284" x="80.33136" fill="#4c4c4c"/>
  <rect transform="rotate(-7.83511 131.451 180.584)" stroke="null" id="svg_96" height="9.28144" width="24.97272" y="175.94316" x="118.96503" fill="#4c4c4c"/>
  <rect transform="rotate(-7.83511 169.475 174.896)" stroke="null" id="svg_97" height="9.28144" width="24.97272" y="170.25454" x="156.98898" fill="#4c4c4c"/>
 </g>

</svg>