<?xml version="1.0"?>
<svg width="250" height="250" xmlns="http://www.w3.org/2000/svg" xmlns:svg="http://www.w3.org/2000/svg">
 <g class="layer" id="Layer_1">
  <title>Layer 1</title>
  <rect fill="#666666" height="252.28" id="svg_3" width="251.19" x="-0.54" y="-1.38"/>
  <line fill="none" id="svg_6" stroke="#4c4c4c" x1="41.68" x2="46.63" y1="219.39" y2="219.89"/>
  <line fill="none" id="svg_7" stroke="#4c4c4c" x1="149.11" x2="151.09" y1="196.62" y2="192.17"/>
  <line fill="none" id="svg_8" stroke="#4c4c4c" x1="89.7" x2="88.22" y1="171.38" y2="169.39"/>
  <line fill="none" id="svg_10" stroke="#4c4c4c" x1="21.39" x2="24.36" y1="16.92" y2="14.45"/>
  <line fill="none" id="svg_11" stroke="#4c4c4c" x1="17.42" x2="12.47" y1="52.07" y2="52.07"/>
  <line fill="none" id="svg_13" stroke="#4c4c4c" x1="59.5" x2="52.57" y1="105.04" y2="100.09"/>
  <line fill="none" id="svg_14" stroke="#4c4c4c" x1="139.7" x2="142.18" y1="28.31" y2="26.82"/>
  <line fill="none" id="svg_15" stroke="#4c4c4c" x1="94.16" x2="90.69" y1="34.25" y2="31.77"/>
  <line fill="none" id="svg_16" stroke="#4c4c4c" x1="67.42" x2="66.43" y1="48.11" y2="51.57"/>
  <line fill="none" id="svg_17" stroke="#4c4c4c" x1="25.35" x2="20.89" y1="85.73" y2="85.73"/>
  <line fill="none" id="svg_18" stroke="#4c4c4c" x1="36.24" x2="40.69" y1="181.28" y2="182.27"/>
  <line fill="none" id="svg_19" stroke="#4c4c4c" x1="9.5" x2="14.45" y1="249.1" y2="247.12"/>
  <line fill="none" id="svg_21" stroke="#4c4c4c" x1="105.05" x2="109.01" y1="238.21" y2="239.2"/>
  <line fill="none" id="svg_22" stroke="#4c4c4c" x1="192.18" x2="195.15" y1="228.31" y2="224.34"/>
  <line fill="none" id="svg_26" stroke="#4c4c4c" x1="237.72" x2="231.28" y1="28.8" y2="29.3"/>
  <line fill="none" id="svg_28" stroke="#4c4c4c" x1="130.3" x2="133.76" y1="54.05" y2="56.03"/>
  <line fill="none" id="svg_29" stroke="#4c4c4c" x1="90.69" x2="87.72" y1="69.89" y2="70.88"/>
  <line fill="none" id="svg_30" stroke="#4c4c4c" x1="83.76" x2="87.72" y1="118.9" y2="119.4"/>
  <line fill="none" id="svg_31" stroke="#4c4c4c" x1="58.02" x2="56.04" y1="136.23" y2="137.71"/>
  <line fill="none" id="svg_32" stroke="#4c4c4c" x1="88.22" x2="89.7" y1="200.09" y2="201.57"/>
  <line fill="none" id="svg_34" stroke="#4c4c4c" x1="132.77" x2="137.23" y1="139.2" y2="131.77"/>
  <line fill="none" id="svg_35" stroke="#4c4c4c" x1="192.18" x2="190.2" y1="72.37" y2="75.34"/>
  <line fill="none" id="svg_36" stroke="#4c4c4c" x1="216.43" x2="221.38" y1="92.66" y2="98.6"/>
  <line fill="none" id="svg_37" stroke="#4c4c4c" x1="168.91" x2="164.45" y1="93.16" y2="95.63"/>
  <line fill="none" id="svg_38" stroke="#4c4c4c" x1="193.66" x2="200.1" y1="145.14" y2="148.6"/>
  <line fill="none" id="svg_42" stroke="#4c4c4c" x1="11.48" x2="9.5" y1="167.41" y2="165.43"/>
  <line fill="none" id="svg_43" stroke="#4c4c4c" x1="27.33" x2="17.92" y1="120.88" y2="116.92"/>
  <line fill="none" id="svg_44" stroke="#4c4c4c" x1="33.76" x2="39.7" y1="59.49" y2="58.01"/>
  <line fill="none" id="svg_45" stroke="#4c4c4c" x1="10.49" x2="7.03" y1="32.76" y2="30.29"/>
  <line fill="none" id="svg_47" stroke="#4c4c4c" x1="97.13" x2="94.65" y1="19.4" y2="18.41"/>
  <line fill="none" id="svg_48" stroke="#4c4c4c" x1="70.39" x2="68.91" y1="10.98" y2="7.02"/>
  <line fill="none" id="svg_49" stroke="#4c4c4c" x1="93.66" x2="95.15" y1="94.64" y2="95.63"/>
  <line fill="none" id="svg_50" stroke="#4c4c4c" x1="116.93" x2="118.41" y1="21.87" y2="19.89"/>
  <line fill="none" id="svg_51" stroke="#4c4c4c" x1="176.83" x2="178.31" y1="20.88" y2="16.92"/>
  <line fill="none" id="svg_52" stroke="#4c4c4c" x1="151.58" x2="155.54" y1="69.89" y2="70.39"/>
  <line fill="none" id="svg_53" stroke="#4c4c4c" x1="165.44" x2="170.89" y1="124.35" y2="125.34"/>
  <line fill="none" id="svg_54" stroke="#4c4c4c" x1="179.3" x2="174.35" y1="173.85" y2="171.87"/>
  <line fill="none" id="svg_55" stroke="#4c4c4c" x1="160.49" x2="165.44" y1="222.36" y2="225.34"/>
  <line fill="none" id="svg_56" stroke="#4c4c4c" x1="137.23" x2="135.25" y1="240.68" y2="241.18"/>
  <line fill="none" id="svg_57" stroke="#4c4c4c" x1="197.13" x2="203.07" y1="238.7" y2="243.16"/>
  <line fill="none" id="svg_58" stroke="#4c4c4c" x1="245.15" x2="239.2" y1="246.13" y2="245.14"/>
  <line fill="none" id="svg_59" stroke="#4c4c4c" x1="247.62" x2="246.63" y1="221.87" y2="214.94"/>
  <line fill="none" id="svg_60" stroke="#4c4c4c" x1="222.37" x2="227.32" y1="212.96" y2="208.01"/>
  <line fill="none" id="svg_61" stroke="#4c4c4c" x1="222.37" x2="224.85" y1="226.82" y2="230.29"/>
  <line fill="none" id="svg_62" stroke="#4c4c4c" x1="197.13" x2="193.17" y1="205.04" y2="204.54"/>
  <line fill="none" id="svg_63" stroke="#4c4c4c" x1="215.44" x2="217.92" y1="185.24" y2="178.8"/>
  <line fill="none" id="svg_64" stroke="#4c4c4c" x1="180.29" x2="176.33" y1="189.69" y2="189.2"/>
  <line fill="none" id="svg_67" stroke="#4c4c4c" x1="227.32" x2="228.81" y1="85.24" y2="85.24"/>
  <line fill="none" id="svg_68" stroke="#4c4c4c" x1="224.35" x2="229.8" y1="54.54" y2="54.54"/>
  <line fill="none" id="svg_69" stroke="#4c4c4c" x1="234.75" x2="239.2" y1="119.89" y2="120.88"/>
  <line fill="none" id="svg_72" stroke="#4c4c4c" x1="72.87" x2="68.41" y1="163.45" y2="163.45"/>
  <line fill="none" id="svg_73" stroke="#4c4c4c" x1="45.64" x2="44.16" y1="156.03" y2="156.03"/>
  <line fill="none" id="svg_75" stroke="#4c4c4c" x1="20.4" x2="17.42" y1="225.34" y2="225.34"/>
  <line fill="none" id="svg_76" stroke="#4c4c4c" x1="60.49" x2="65.94" y1="241.18" y2="243.65"/>
  <line fill="none" id="svg_77" stroke="#4c4c4c" x1="52.08" x2="52.08" y1="42.17" y2="41.18"/>
  <line fill="none" id="svg_78" stroke="#4c4c4c" x1="131.29" x2="131.29" y1="6.03" y2="3.55"/>
  <line fill="none" id="svg_79" stroke="#4c4c4c" x1="157.03" x2="162.97" y1="9" y2="7.02"/>
  <line fill="none" id="svg_80" stroke="#4c4c4c" x1="174.85" x2="180.79" y1="59.99" y2="60.98"/>
  <line fill="none" id="svg_81" stroke="#4c4c4c" x1="192.67" x2="195.15" y1="24.35" y2="22.37"/>
  <line fill="none" id="svg_82" stroke="#4c4c4c" x1="241.19" x2="243.17" y1="8.51" y2="8.01"/>
  <line fill="none" id="svg_83" stroke="#4c4c4c" x1="240.2" x2="242.67" y1="62.96" y2="61.97"/>
  <line fill="none" id="svg_84" stroke="#4c4c4c" x1="242.18" x2="245.64" y1="98.11" y2="100.09"/>
  <line fill="none" id="svg_85" stroke="#4c4c4c" x1="216.93" x2="217.92" y1="135.73" y2="143.65"/>
  <line fill="none" id="svg_86" stroke="#4c4c4c" x1="164.95" x2="161.98" y1="149.1" y2="151.57"/>
  <line fill="none" id="svg_87" stroke="#4c4c4c" x1="149.11" x2="146.63" y1="110.48" y2="109.99"/>
  <line fill="none" id="svg_89" stroke="#4c4c4c" x1="119.9" x2="117.92" y1="119.89" y2="120.39"/>
  <line fill="none" id="svg_90" stroke="#4c4c4c" x1="5.54" x2="4.06" y1="101.57" y2="96.13"/>
  <line fill="none" id="svg_92" stroke="#4c4c4c" x1="243.17" x2="250.59" y1="189.69" y2="193.65"/>
  <path d="m35.81,57.31c1.13,0 2.14,0.37 2.91,-0.01c0.74,-0.37 0.88,-1.49 1.3,-2.24c0.42,-0.75 0.75,-1.49 1.17,-2.25c0.42,-0.78 0.67,-1.5 1.55,-1.5c0.92,0 2.02,-0.01 2.33,-0.63c0.4,-0.81 -0.55,-1.59 -1.35,-1.86c-0.85,-0.28 -1.79,0.11 -2.67,-0.07c-0.83,-0.17 -1.39,-0.87 -1.76,-1.59l-0.21,-0.84l0.66,-0.43l0.09,-0.87" fill="none" id="svg_2" stroke="#336303"/>
  <path d="m56.56,134.81c-4.09,2.26 -5,2.71 -5.5,3.51c-0.45,0.72 -0.56,1.66 -0.43,2.54c0.12,0.84 0.51,1.58 0.7,2.39c0.22,0.94 1.13,1.74 0.69,2.31c-0.51,0.65 -1.74,0.25 -2.62,0.25c-0.89,0 -1.86,-0.7 -2.58,-0.24c-0.67,0.42 -0.13,1.61 0.37,2.24c0.52,0.65 0.9,1.36 1.72,1.59c0.87,0.24 1.97,-0.15 2.59,0.43c0.65,0.62 -0.2,1.81 -0.93,2.23c-0.74,0.43 -1.71,0.38 -2.6,0.25c-0.84,-0.13 -1.7,-0.25 -2.58,-0.25l-0.82,0.15l0.14,0.83" fill="none" id="svg_4" stroke="#336303"/>
  <path d="m40.06,54.56c1.19,0 2.2,-0.27 3.04,0.13c0.77,0.37 1.3,1.18 1.62,2.06c0.3,0.82 -0.06,1.74 -0.69,2.33c-0.62,0.59 -1.54,0.69 -2.44,0.99c-0.79,0.26 -1.54,0.74 -2.34,0.86c-0.94,0.13 -0.54,0.42 0.26,0.81c0.74,0.36 1.62,0.43 2.43,0.58c0.9,0.17 1.49,0.4 1.36,1.28c-0.12,0.86 0.42,1.64 1.13,2.09l0.8,0.37l0.64,0.54" fill="none" id="svg_5" stroke="#336303"/>
  <path d="m52.31,144.31c1.49,-0.25 2.4,-0.48 3.25,-0.5c0.94,-0.02 1.62,0.26 2.1,0.94c0.48,0.68 1.55,0.75 2.44,0.52c0.82,-0.21 1.62,-0.83 1.95,-1.59c0.34,-0.79 0.31,-1.71 0.75,-2.49c0.42,-0.73 1.19,-1.58 1.93,-1.13c0.6,0.37 0.08,1.61 0.58,2.35c0.38,0.56 1.21,-0.39 2,-0.6l0.89,0" fill="none" id="svg_93" stroke="#336303"/>
  <path d="m51.56,150.06c0.76,1.19 1.1,2.06 1,2.92c-0.1,0.89 -0.5,1.86 0.01,2.5c0.51,0.64 1.25,0.16 2.02,-0.18l0.88,0.01l0.52,0.69l0.07,0.89" fill="none" id="svg_94" stroke="#336303"/>
  <path d="m230.06,28.81c0.25,1.7 0.39,2.58 0.18,3.48c-0.17,0.71 0.72,0.9 1,1.56c0.34,0.81 0.46,1.91 -0.04,2.65c-0.47,0.7 -1.59,0.74 -2.4,0.41c-0.74,-0.29 -1.54,-1.25 -2.33,-0.86c-0.61,0.3 -0.12,1.37 -0.16,2.28c-0.03,0.83 -1.11,1.32 -0.73,2c0.4,0.71 1.38,0.95 1.96,1.59l-0.04,0.91" fill="none" id="svg_95" stroke="#336303"/>
  <path d="m29.56,244.31c0.57,-0.88 0.75,-1.78 0.75,-2.66c0,-0.89 -0.51,-1.21 -1.37,-1.34c-0.87,-0.13 -1.89,-0.22 -2.47,-0.86c-0.61,-0.67 0.35,-1.49 0.59,-2.29c0.26,-0.87 -0.19,-1.79 -0.82,-2.33c-0.61,-0.52 -1.9,0.2 -2.43,-0.43c-0.56,-0.69 0.26,-1.65 0.75,-2.34c0.47,-0.67 1.1,-1.21 1.5,-1.93l0.21,-0.87l0.04,-0.84" fill="none" id="svg_96" stroke="#336303"/>
  <path d="m47.31,152.31c0.13,1.37 0.25,2.38 0.05,3.2l-0.78,0.41l0.12,0.85" fill="none" id="svg_97" stroke="#336303"/>
  <path d="m230.06,32.06c-3.2,0 -4.01,0.05 -4.95,0c-0.87,-0.04 -1.97,-0.08 -2.49,-0.8c-0.48,-0.65 0.23,-1.81 -0.31,-2.51c-0.49,-0.63 -1.43,0.26 -1.5,1.12c-0.07,0.89 0.26,1.81 0,2.69c-0.24,0.78 -1.22,1 -2.1,1c-0.89,0 -1.8,0.13 -2.69,0c-0.83,-0.12 -1.46,-0.17 -1.46,0.67l0,0.94l0,0.83l0,0.97" fill="none" id="svg_98" stroke="#336303"/>
  <path d="m225.56,39.56c1.23,-0.44 2.16,-0.98 2.74,-0.54c0.62,0.47 1.43,0.79 2.33,0.79c0.87,0 1.77,0 2.52,-0.25l0.84,0.16" fill="none" id="svg_99" stroke="#336303"/>
  <path d="m198.06,179.31c1.12,0 1.89,0.26 2.73,0.56c0.85,0.31 1.95,0.25 2.19,-0.51c0.26,-0.84 0.21,-1.77 0.59,-2.49c0.34,-0.63 1.16,-0.35 1.78,0.21c0.66,0.6 1.35,0.98 2.25,0.92l0.5,-0.69l0.68,-0.55l0.68,-0.46" fill="none" id="svg_100" stroke="#336303"/>
  <path d="m122.56,159.81c-0.43,0.83 -0.74,1.69 -1,2.51c-0.24,0.78 -0.83,1.55 -1.52,1.84c-0.76,0.33 -1.98,0.43 -1.36,0.94c0.63,0.51 1.85,0.42 1.88,1.24c0.02,0.84 -1,1.02 -1.64,1.61c-0.6,0.55 -0.51,1.6 -0.35,2.51c0.14,0.8 0.83,1.44 1.42,2.14l0.47,0.64l0.53,0.63" fill="none" id="svg_101" stroke="#336303"/>
  <path d="m127.56,231.06c-0.46,-1 -0.84,-1.81 -1.55,-2.24c-0.74,-0.46 -1.77,-0.13 -2.58,-0.51c-0.73,-0.33 -1.12,-1.12 -1.12,-2c0,-0.88 -0.3,-1.54 -1.07,-2c-0.62,-0.37 -1.14,-0.12 -1.8,0.53c-0.64,0.63 -1.21,1.22 -2.01,1.47l-0.91,0l-0.83,-0.2" fill="none" id="svg_102" stroke="#336303"/>
  <path d="m115.06,34.81c2.97,-1.39 3.75,-2.32 3.25,-3.04c-0.46,-0.66 -1.83,-0.41 -2.25,-1.13c-0.44,-0.77 0.27,-1.84 0.99,-2.29c0.7,-0.44 1.63,-0.28 2.01,-0.88l0.56,-0.49l0.51,-0.72l0.72,-0.49" fill="none" id="svg_103" stroke="#336303"/>
  <path d="m80.31,15.81c-0.23,-1.28 -0.16,-2.12 0.07,-2.93c0.26,-0.92 -0.16,-1.76 -0.97,-2.07c-0.74,-0.29 -1.7,0.07 -2.35,-0.2c-0.7,-0.29 -0.5,-1.46 -0.2,-2.2l0.45,-0.7l-0.02,-0.87" fill="none" id="svg_104" stroke="#336303"/>
  <path d="m162.81,115.81c1.1,-0.01 2.21,-0.34 1.91,-1.16c-0.28,-0.79 -1.79,-1.09 -1.64,-1.76c0.18,-0.8 1.64,-0.34 2.02,-1.04l0.46,-0.73l0,-0.89l-0.55,-0.41" fill="none" id="svg_105" stroke="#336303"/>
  <path d="m70.06,100.06c1.38,-0.28 2.47,0.04 2.99,-0.69c0.53,-0.74 -0.61,-1.37 -1.29,-1.91c-0.61,-0.48 -0.7,-1.47 -0.81,-2.28l0.76,-0.45l0.59,-0.6" fill="none" id="svg_106" stroke="#336303"/>
  <path d="m26.56,108.56c-0.66,-0.64 -1.41,-1.1 -2.25,-1.26c-0.86,-0.17 -1.67,0.44 -1.98,1.31c-0.29,0.82 -0.6,1.41 -1.48,1.45c-0.9,0.05 -1.83,-0.12 -2.32,-0.83c-0.51,-0.74 -1.14,-1.15 -1.23,-0.3l0,0.9l-0.5,0.6l-0.75,0.38" fill="none" id="svg_107" stroke="#336303"/>
  <path d="m164.81,111.81c1.1,0.11 1.33,1.04 1.96,1.49c0.68,0.49 1.67,0.25 2.48,0.01l0.92,0l0.9,0" fill="none" id="svg_108" stroke="#336303"/>
  <path d="m38.56,184.31c1.15,0.01 2.12,0.04 2.99,0.38c0.83,0.32 1.55,0.96 1.51,1.83c-0.04,0.85 0.4,1.22 1.3,1.4l0.87,0.14" fill="none" id="svg_109" stroke="#336303"/>
  <path d="m130.56,53.81c0,1.36 -0.07,2.39 0.59,2.97c0.61,0.54 1.8,0.39 2.31,1.03c0.51,0.64 -0.27,1.28 -0.65,2.12c-0.35,0.77 -0.24,1.76 -0.76,2.5c-0.51,0.71 -1.33,1.15 -1.99,1.59l0.1,0.89l0.39,0.77" fill="none" id="svg_110" stroke="#336303"/>
  <path d="m92.56,65.06c0.16,-1.12 0.37,-2.12 -0.04,-2.96c-0.38,-0.78 -1.18,-1.28 -1.96,-1.54c-0.75,-0.25 -1.39,-0.72 -1.61,-1.46c-0.22,-0.74 0.61,-1.34 0.83,-2.18l0.09,-0.89" fill="none" id="svg_111" stroke="#336303"/>
  <path d="m3.06,3.81c0.02,-1.18 0.26,-1.99 0.86,-2.59c0.56,-0.56 1.49,-0.2 2.03,0.38c0.54,0.58 1.47,0.86 2.36,0.71c0.76,-0.13 1.6,-0.5 2.5,-0.5c0.87,0 2.09,-0.08 2.25,0.75c0.15,0.77 -1.04,1 -1.77,1.36l-0.57,0.63l-0.15,0.81l0.62,0.46" fill="none" id="svg_112" stroke="#336303"/>
  <path d="m224.81,242.81c1.18,-0.25 2.04,-0.25 2.95,-0.25c0.9,0 1.96,0.14 2.31,-0.45c0.47,-0.77 0.24,-1.74 0.24,-2.65c0,-0.84 -0.33,-1.84 0.02,-2.62c0.34,-0.74 1.48,-0.78 2.33,-0.78c0.89,0 1.78,0 2.7,0l0.86,0.17" fill="none" id="svg_113" stroke="#336303"/>
  <path d="m159.56,248.06c1.07,-0.09 1.64,-0.61 1.75,-1.5c0.1,-0.77 1.01,-0.89 1.7,-0.75l0.8,0.25" fill="none" id="svg_114" stroke="#336303"/>
  <path d="m232.06,235.56c0.25,0.91 0.34,1.84 -0.08,2.58c-0.4,0.71 -1.26,1.45 -1.17,2.27c0.09,0.85 0.99,1.08 1.82,1.4c0.78,0.3 0.9,1.3 1.4,1.9l0.71,0.62" fill="none" id="svg_115" stroke="#336303"/>
  <path d="m73.81,211.31c3.3,-1.03 4.04,-1.2 5.13,-1.25c0.86,-0.04 1.91,0.08 2.21,-0.58c0.36,-0.79 0.67,-1.66 0.41,-2.53c-0.25,-0.81 -0.25,-1.4 0.62,-1.4l0.91,0l0.84,0" fill="none" id="svg_116" stroke="#336303"/>
  <path d="m200.06,67.56c2.04,1.15 2.24,1.99 1.67,2.47c-0.71,0.61 -1.39,1.24 -1.79,2.03c-0.38,0.75 0.19,1.54 0.69,2.31c0.49,0.75 1.27,1.06 2.17,1.19c0.67,0.1 1.6,-0.12 2.46,0.06c0.88,0.18 1.93,0.33 2.29,1.03c0.41,0.81 -0.16,1.75 -0.3,2.66l-0.19,0.83l0,0.88l0,0.89" fill="none" id="svg_117" stroke="#336303"/>
  <path d="m147.56,89.56c1.24,-2.77 1.48,-3.54 2.18,-4.2c0.65,-0.61 1.64,-0.59 2.52,-0.81c0.79,-0.2 1.36,-0.68 2.31,-0.85c0.66,-0.12 1.72,-0.23 2.7,-0.32c0.92,-0.08 2.06,0.49 2.7,-0.1c0.6,-0.55 0.11,-1.67 0.09,-2.59c-0.02,-0.98 0.2,-1.84 -0.28,-2.69c-0.42,-0.75 -1.76,-0.93 -1.94,-1.76c-0.16,-0.72 1.1,-1.3 1.9,-1.44c0.88,-0.16 1.63,0.26 2.51,0.51l0.86,0.24l0.85,0" fill="none" id="svg_118" stroke="#336303"/>
  <path d="m73.31,98.06c2.01,0 2.92,0 3.73,0.18l0.76,0.43l0.83,0.14l0.73,-0.38" fill="none" id="svg_119" stroke="#336303"/>
  <path d="m7.56,73.81c0.24,-1.61 -0.05,-2.35 -0.81,-2.68c-0.8,-0.35 -1.19,-1.2 -1.19,-2.07c0,-0.85 0.25,-1.75 0.94,-2.19l0.56,-0.7" fill="none" id="svg_120" stroke="#336303" transform="matrix(1 0 0 1 0 0)"/>
 </g>
</svg>