<?xml version="1.0"?>
<svg width="250.00000000000003" height="250.00000000000003" xmlns="http://www.w3.org/2000/svg" xmlns:svg="http://www.w3.org/2000/svg">
 <g class="layer" id="Layer_1">
  <title>Layer 1</title>
  <rect fill="#666666" height="253.03" id="svg_3" transform="matrix(1 0 0 1 0 0)" width="253.68" x="-1.36" y="-2.04"/>
  <path d="m57.63,36.76c-0.83,7.26 -0.94,7.83 -1.23,8.88c-0.13,0.49 -0.43,1.34 -0.81,2.62c-0.24,0.81 -0.94,1.95 -0.49,1.91c0.84,-0.07 0.85,-1.51 1.52,-2.15c0.64,-0.61 1.3,-1.21 1.79,-1.91c0.5,-0.71 1.3,-1.1 2.03,-1.57c0.76,-0.49 1.52,-0.8 2.11,-1.37c0.63,-0.61 1.93,-1.03 1.66,-1.65c-0.34,-0.76 -1.61,-0.55 -2.55,-0.67c-0.88,-0.11 -1.72,-0.2 -2.53,-0.38c-0.95,-0.21 -1.92,-0.21 -2.72,-0.4c-0.9,-0.22 -1.76,-0.47 -2.65,-0.61c-0.83,-0.13 -1.98,-0.35 -2.04,-0.03c-0.17,0.93 1.16,1.41 1.88,1.83c0.74,0.43 1.3,0.99 1.98,1.66c0.63,0.62 1.38,0.98 2.08,1.61c0.64,0.56 1.33,1.26 2.06,1.65c0.79,0.41 1.79,1.27 2.45,0.75c0.52,-0.42 -0.38,-1.54 -0.63,-2.38c-0.23,-0.78 -0.9,-1.48 -1.27,-2.27c-0.37,-0.78 -0.77,-1.5 -1.22,-2.28l-0.46,-0.77l-0.21,-0.87l-0.61,-0.47" fill="none" id="svg_81"/>
  <path d="m114.75,103.23c0.55,5.94 0.6,6.51 0.69,7.62c0.05,0.53 0.13,1.51 0.22,2.68c0.08,0.99 0.19,1.81 0.26,2.57c0.09,1 0.07,1.93 0.07,2.8c0,0.97 0.06,1.72 0.47,1.03c0.45,-0.76 0.91,-1.51 1.39,-2.34c0.4,-0.7 1.07,-1.44 1.54,-2.21c0.4,-0.64 0.78,-1.52 1.2,-2.34c0.44,-0.85 0.89,-1.56 1.4,-2.3c0.49,-0.71 1.65,-1.48 1.28,-2c-0.49,-0.69 -1.75,0.19 -2.53,0.46c-0.93,0.32 -1.61,0.51 -2.62,0.79c-0.88,0.24 -1.68,0.39 -2.56,0.51c-0.88,0.13 -1.83,0.2 -2.64,0.51c-0.78,0.3 -1.51,0.81 -2.27,1.28c-0.73,0.44 -0.77,1.12 0.05,1.37c0.79,0.24 1.69,0.4 2.67,0.6c0.75,0.15 1.63,0.32 2.5,0.5c0.83,0.17 1.73,0.48 2.56,0.64c0.9,0.17 1.83,0.32 2.66,0.5c0.88,0.19 1.83,0.29 1.35,-0.24c-0.6,-0.67 -1.13,-1.25 -1.69,-1.98c-0.57,-0.75 -1.11,-1.29 -1.79,-1.96c-0.6,-0.6 -1.37,-1.12 -1.96,-1.88c-0.54,-0.69 -1.02,-1.43 -1.44,-2.21l-0.32,-0.84l-0.38,-0.79l-0.36,-0.81" fill="#4c4c4c" id="svg_83" stroke="#7f7f7f" transform="matrix(1 0 0 1 0 0)"/>
  <path d="m38.75,187.15c1.98,1.84 2.57,2.35 3.17,2.88c0.58,0.51 1.48,1.29 2.09,1.88c0.63,0.61 1.28,1.32 1.99,1.94c0.57,0.5 1.27,1.1 1.78,1.84c0.5,0.75 1.02,1.45 1.6,2.08c0.6,0.65 1.08,1.43 1.65,2.05c0.2,0.22 0.23,-0.64 0.23,-1.52c0,-0.9 -0.09,-1.83 -0.18,-2.55c-0.12,-0.94 -0.25,-1.83 -0.37,-2.71c-0.12,-0.86 -0.3,-1.83 -0.38,-2.6c-0.09,-0.9 -0.1,-1.84 -0.2,-2.68c-0.13,-1 -0.26,-1.77 -0.44,-2.73c-0.16,-0.85 -0.32,-1.69 -0.44,-2.59c-0.11,-0.88 -0.52,-2.15 -0.97,-1.97c-0.78,0.29 -0.56,1.54 -0.97,2.43c-0.4,0.87 -0.75,1.5 -1.27,2.31c-0.45,0.7 -0.97,1.56 -1.33,2.33c-0.32,0.7 -0.85,1.57 -1.35,2.29c-0.54,0.78 -0.74,1.51 -1.2,2.32c-0.44,0.79 -0.75,1.58 -1.15,2.48c-0.35,0.78 0.15,0.89 0.91,0.54c0.8,-0.37 1.62,-0.85 2.34,-1.23c0.86,-0.46 1.7,-0.81 2.46,-1.16c0.79,-0.36 1.64,-0.76 2.4,-0.97c0.87,-0.24 1.77,-0.29 2.71,-0.4c0.89,-0.1 1.91,-0.09 2.61,-0.56c0.5,-0.33 -0.39,-0.81 -1.29,-0.98c-0.79,-0.15 -1.7,-0.32 -2.6,-0.55c-0.9,-0.23 -1.62,-0.39 -2.53,-0.6c-0.89,-0.21 -1.79,-0.4 -2.62,-0.65c-0.88,-0.27 -1.77,-0.52 -2.56,-0.78c-0.83,-0.28 -1.68,-0.65 -2.53,-0.69l-0.84,-0.23" fill="#4c4c4c" id="svg_84" stroke="#7f7f7f" transform="matrix(1 0 0 1 0 0)"/>
  <path d="m187.25,107.9c1.65,8.25 1.8,8.99 1.94,9.72c0.14,0.71 0.28,1.38 0.4,2.02c0.23,1.14 0.4,2.42 0.63,3.23c0.23,0.85 0.44,1.58 0.73,2.51c0.26,0.84 0.54,1.76 0.72,2.46c0.23,0.9 -0.21,2.59 0.72,2.68c0.73,0.08 0.42,-1.56 0.68,-2.36c0.27,-0.83 0.49,-1.68 0.7,-2.65c0.16,-0.75 0.5,-1.61 0.66,-2.5c0.16,-0.86 0.16,-1.76 0.43,-2.62c0.23,-0.74 0.59,-1.69 0.75,-2.5c0.18,-0.94 0.19,-1.78 0.38,-2.7c0.17,-0.82 0.26,-1.67 0.27,-2.37l-0.61,-0.41l-0.86,-0.01" fill="none" id="svg_86" stroke="#7f7f7f"/>
  <path d="m23.25,232.73c-0.3,-2.05 -0.37,-2.98 -0.43,-3.88c-0.06,-0.98 -0.21,-1.94 0.02,-2.78c0.22,-0.81 1.14,-1.1 2.01,-1.41c0.81,-0.28 1.56,-0.79 2.32,-1.19c0.79,-0.41 1.45,-0.98 1.83,-1.37l-0.48,-0.69l-0.47,-0.7" fill="none" id="svg_88" stroke="#7f7f7f"/>
  <path d="m26.25,143.15c-0.88,0.96 -1.46,1.57 -1.82,2.55c-0.29,0.79 -0.03,1.69 0.07,2.55c0.1,0.87 -0.82,1.13 -1.55,1.47l-0.6,0.58l-0.74,0.5" fill="none" id="svg_89" stroke="#7f7f7f"/>
  <path d="m101,200.4c1.74,-0.12 2.72,-0.34 3.53,0c0.61,0.26 0.59,1.38 0.47,2.25c-0.13,0.89 -0.36,1.63 0.36,2.12l0.77,0.5l0.77,0.31" fill="none" id="svg_90" stroke="#7f7f7f"/>
  <path d="m174.75,174.15c0.83,3.19 0.95,3.87 1.07,4.86c0.13,1.02 0.18,1.85 0.18,2.76c0,0.88 0.09,1.76 -0.01,2.66c-0.11,0.95 0.01,1.03 0.56,0.37c0.58,-0.7 1.19,-1.44 1.65,-1.99c0.59,-0.7 1.25,-1.45 1.79,-2.04c0.6,-0.66 1.13,-1.34 1.86,-1.95c0.67,-0.56 0.28,-0.92 -0.61,-1.04c-0.89,-0.12 -1.79,-0.13 -2.64,-0.13c-0.92,0 -1.67,0 -2.59,0c-0.9,0 -1.81,0 -2.71,0c-0.93,0 -2.33,-1.11 -2.7,-0.25c-0.29,0.7 1.42,0.97 2.21,1.4c0.77,0.43 1.47,0.71 2.31,1.07c0.83,0.36 1.67,0.83 2.46,1.23c0.79,0.39 1.48,0.91 2.35,1.21c0.79,0.28 1.63,0.61 2.41,1c0.81,0.41 1.36,1.06 1.74,1.83l0.49,0.81l0.59,0.61" fill="#4c4c4c" id="svg_92" stroke="#7f7f7f" transform="matrix(1 0 0 1 0 0)"/>
  <path d="m211.25,150.65c-0.53,1.55 -0.79,2.16 -1.32,3.13c-0.41,0.76 -0.83,1.55 -1.3,2.29c-0.48,0.75 -0.98,1.48 -1.5,2.2c-0.53,0.74 -1.38,1.74 -0.85,2.13c0.71,0.52 1.64,-0.34 2.52,-0.5c0.85,-0.16 1.82,-0.31 2.5,-0.47c0.93,-0.22 1.96,-0.46 2.65,-0.51c1.07,-0.09 1.86,-0.2 2.74,-0.44c0.83,-0.22 2.46,0.15 2.42,-0.58c-0.05,-0.88 -1.72,-0.39 -2.56,-0.7c-0.86,-0.32 -1.67,-0.42 -2.55,-0.68c-0.92,-0.26 -1.55,-0.59 -2.47,-0.88c-0.76,-0.25 -1.86,-0.52 -2.51,-0.73c-0.91,-0.29 -1.78,-0.58 -2.64,-0.84c-0.87,-0.27 -1.76,-0.33 -2.59,-0.68c-0.79,-0.34 -1.03,0.37 -1.28,1.22l-0.01,0.9l-0.25,0.78l0,0.92" fill="none" id="svg_93" stroke="#7f7f7f"/>
  <path d="m210.25,76.9c0.6,3.25 0.7,4.07 0.74,4.48c0.12,1.18 0.18,2.14 0.26,3.09c0.07,0.82 0.19,1.81 0.26,2.56c0.09,1 0.31,1.87 0.42,2.6c0.14,0.98 0.38,1.87 0.63,2.72c0.24,0.83 0.37,1.21 0.5,0.42c0.14,-0.93 0.47,-1.81 0.64,-2.6c0.2,-0.88 0.39,-1.78 0.58,-2.65c0.16,-0.75 0.46,-1.62 0.72,-2.5c0.25,-0.87 0.53,-1.74 0.78,-2.62c0.21,-0.72 0.48,-1.61 0.88,-2.45c0.39,-0.83 0.82,-1.74 0.42,-1.64c-0.85,0.2 -1.45,0.95 -2.08,1.47c-0.71,0.59 -1.42,1.26 -1.99,1.71c-0.78,0.63 -1.5,1.17 -2.19,1.67c-0.76,0.55 -1.49,0.91 -2.36,1.39c-0.77,0.42 -2.14,0.67 -2.11,1.53c0.02,0.65 1.29,0.62 2.2,0.89c0.91,0.27 1.65,0.39 2.45,0.59c0.92,0.23 1.68,0.5 2.63,0.72c1,0.23 1.89,0.42 2.76,0.66c0.87,0.24 1.66,0.4 2.42,0.66c0.83,0.29 1.73,0.65 2.58,0.99l0.82,0.34" fill="#4c4c4c" id="svg_94" stroke="#7f7f7f" transform="matrix(1 0 0 1 0 0)"/>
  <path d="m226.25,89.4c2.92,0 3.72,0.17 4.8,0c0.78,-0.13 1.33,-0.83 1.79,-1.49c0.45,-0.65 0.66,-1.51 0.66,-2.36c0,-0.93 -0.04,-1.81 0.13,-2.66c0.17,-0.9 0.42,-1.74 1,-2.27l0.77,-0.48l0.9,0l0.86,0" fill="none" id="svg_95" stroke="#7f7f7f"/>
  <path d="m217,129.65c1.82,0 2.83,0.05 3.65,-0.2c0.86,-0.27 1.87,-0.47 2.35,-1.17c0.48,-0.7 0.38,-1.74 0.25,-2.63c-0.13,-0.85 0.5,-0.97 1.4,-1c0.88,-0.03 1.54,-0.59 2.3,-0.93c0.8,-0.36 1.8,-0.12 1.94,-0.97c0.14,-0.87 0.36,-1.61 0.62,-2.45l0.29,-0.87" fill="none" id="svg_97" stroke="#7f7f7f"/>
  <path d="m70,164.9c0.76,-0.63 1.79,-0.9 2.16,-1.68c0.38,-0.79 -0.04,-1.69 -0.28,-2.57c-0.24,-0.86 -0.36,-1.76 -0.49,-2.6c-0.13,-0.87 -0.14,-1.74 0.3,-2.43l0.73,-0.48l0.73,-0.42" fill="none" id="svg_98" stroke="#7f7f7f"/>
  <path d="m19.75,190.65c-7.41,-4.01 -8.51,-4.91 -9,-4.37c-0.58,0.64 0.12,1.78 -0.01,2.66c-0.13,0.86 -0.24,1.71 -0.24,2.63l-0.35,0.75l-0.8,0.19" fill="none" id="svg_101" stroke="#7f7f7f"/>
  <path d="m39,177.15c3.58,-2.31 4.56,-2.66 5.07,-2.81c1,-0.29 1.47,-0.42 2.97,-0.76c0.79,-0.18 1.92,0.1 2.48,-0.54c0.54,-0.62 0.46,-1.63 0.75,-2.51c0.2,-0.61 0.72,-1.66 1.35,-2.21c0.77,-0.66 1.76,-0.72 2.38,-1.29c0.64,-0.6 0.95,-1.46 0.99,-2.42c0.04,-0.86 -0.11,-1.76 0.01,-2.63c0.13,-0.87 0.51,-1.7 1,-2.33c0.52,-0.68 1.04,-1.35 1.55,-2.14c0.51,-0.81 0.98,-1.63 1.23,-2.36c0.32,-0.93 0.27,-1.69 0.62,-2.57c0.34,-0.86 1.08,-1.5 1.52,-2.19l0.78,-0.23l0.85,-0.24l0.86,-0.01" fill="none" id="svg_103" stroke="#7f7f7f"/>
  <path d="m161.5,187.65c-1.25,3.21 -1.58,3.8 -2.06,4.64c-0.51,0.89 -1.04,1.57 -1.47,2.36c-0.36,0.66 -0.07,1.56 0.49,2.21c0.64,0.74 1.35,1.2 2.19,1.66c0.75,0.41 1.55,0.77 2.36,1.13c0.77,0.34 1.67,0.97 2.55,0.74c0.7,-0.19 0.91,-1.4 1.72,-1.49c0.8,-0.09 1.89,-0.12 2.51,0.51c0.58,0.59 0.68,1.57 0.72,2.44c0.04,0.9 0.47,1.98 -0.01,2.69c-0.48,0.71 -1.5,0.75 -2.35,1.08c-0.83,0.33 -1.54,0.79 -2.05,1.43l-0.49,0.75l-0.36,0.8" fill="none" id="svg_104" stroke="#7f7f7f"/>
  <path d="m0.25,59.15c1.71,0.43 2.54,0.96 2.26,1.57c-0.33,0.72 0.13,1.73 -0.26,2.55c-0.3,0.64 -0.83,1.35 -0.27,1.92c0.57,0.58 1.48,0.99 1.79,1.67c0.37,0.82 -0.52,1.24 -1.02,1.7l0.59,0.57l0.62,0.55l0.54,0.61" fill="none" id="svg_107" stroke="#7f7f7f"/>
  <path d="m5.25,152.65c2.26,-2.31 2.92,-3 3.58,-3.76c0.33,-0.38 1.04,-1.06 1.54,-2.14c0.35,-0.77 0.32,-1.64 0.01,-2.56c-0.31,-0.9 -0.36,-1.54 0.26,-2.05l0.11,-0.84" fill="none" id="svg_108" stroke="#7f7f7f"/>
  <path d="m140.5,162.15c-0.36,-5.3 0.11,-6.08 0.74,-6.5c0.88,-0.59 1.77,-0.51 2.73,-0.58c0.82,-0.06 1.42,-0.1 2.6,-0.2c0.76,-0.07 1.71,0.31 2.71,-0.23c0.69,-0.37 0.82,-1.4 1.27,-2.12c0.48,-0.76 0.98,-1.46 1.17,-2.34c0.19,-0.87 0.03,-1.79 -0.21,-2.64l-0.36,-0.75l-0.77,-0.41l-0.66,-0.5" fill="none" id="svg_110" stroke="#7f7f7f"/>
  <path d="m88.5,74.4c0.46,6.71 0.46,7.65 0.32,8.46c-0.14,0.84 -0.36,1.92 -1.21,1.94c-0.74,0.02 -1.63,0.31 -1.62,1.21c0.01,0.87 0.52,1.61 1.25,2.02c0.77,0.44 1.49,0.9 2.01,1.56c0.59,0.74 0.91,1.37 1.9,1.95c0.72,0.42 1.68,0.36 2.58,0.36c0.84,0 1.46,-0.49 2.01,-1.15c0.51,-0.63 1.44,-0.6 2.31,-0.6l0.81,0.26" fill="none" id="svg_111" stroke="#7f7f7f"/>
  <path d="m94,165.4c-0.22,7.75 -0.28,8.3 -0.18,9.27c0.09,0.81 0.87,1.94 1.56,2.09c0.8,0.17 1.68,0.04 2.5,-0.07c0.97,-0.14 1.96,-0.28 2.86,-0.28c0.87,0 1.59,0.36 1.25,0.99c-0.49,0.9 -1.02,1.59 -1.63,2.26c-0.6,0.66 -1.52,0.89 -2.32,1c-0.97,0.13 -1.98,0.46 -2.72,0c-0.63,-0.39 0.05,-1.43 0.39,-2.22c0.34,-0.81 0.8,-1.58 1.28,-2.28c0.52,-0.75 1.11,-1.38 1.7,-2.02l0.72,-0.49" fill="none" id="svg_113" stroke="#7f7f7f"/>
  <path d="m170,84.65c-1.82,4.34 -2.21,5.09 -2.57,5.81c-0.47,0.93 -0.79,2.13 -0.16,2.54c0.79,0.51 1.72,0.51 2.53,0.71c0.93,0.23 1.83,0.37 2.75,0.44c0.87,0.07 2,0.64 2.45,0.05c0.49,-0.64 -0.03,-1.91 -0.76,-2.18c-0.79,-0.28 -1.71,-0.32 -2.65,-0.63c-0.78,-0.25 -1.52,-0.67 -2.38,-1.04c-0.75,-0.33 -1.48,-0.81 -2.29,-1.34l-0.84,-0.42l-0.77,-0.41l-0.68,-0.54" fill="none" id="svg_115" stroke="#7f7f7f"/>
  <path d="m124.75,179.65c0.56,-0.98 1.07,-1.81 1.71,-2.32c0.71,-0.56 1.78,-0.81 2.02,-1.51c0.24,-0.69 -0.08,-1.72 -0.2,-2.73l-0.16,-0.81l-0.57,-0.62" fill="none" id="svg_118" stroke="#7f7f7f"/>
  <path d="m74.5,189.9c0.94,2.3 1.3,3.21 1.25,4.07c-0.05,0.85 -0.62,1.33 -1.43,1.68c-0.75,0.33 -0.82,1.38 -0.55,2.12l0.82,0.43" fill="none" id="svg_119" stroke="#7f7f7f"/>
  <path d="m89,230.65c3.07,4.93 3.58,5.35 4.28,5.79l1,0.43" fill="none" id="svg_120" stroke="#7f7f7f"/>
  <path d="m227,188.65c1.74,-1.74 2.25,-2.34 3.09,-2.98c0.64,-0.48 1.06,-1.17 1.41,-2.02c0.33,-0.8 1.09,-0.91 1.91,-0.61l0.69,0.36l0.91,0.41" fill="none" id="svg_121" stroke="#7f7f7f"/>
  <path d="m212.75,189.65c3.18,5.21 3.46,5.77 3.74,6.6c0.33,0.97 0.92,1.43 1.54,1.78c1.02,0.58 2.64,0.3 2.67,1.31c0.01,0.59 -1.29,0.18 -2.17,0.65c-0.87,0.47 -1.43,1.06 -2.32,1.29c-0.85,0.22 -1.71,0.53 -2.5,0.86l-0.79,0.4" fill="none" id="svg_122" stroke="#4c4c4c" transform="matrix(1 0 0 1 0 0)"/>
  <path d="m134.5,96.4c-0.44,5.5 -0.55,6.05 -0.86,7.14c-0.15,0.53 -0.44,1.52 -0.89,2.74c-0.3,0.81 -0.68,1.47 -1.05,2.24c-0.43,0.88 -0.66,1.72 -0.95,2.6c-0.29,0.88 -0.87,1.55 -0.63,1.17c0.43,-0.69 1.02,-1.37 1.63,-2.09c0.5,-0.6 1.13,-1.28 1.74,-2.04c0.51,-0.63 0.97,-1.39 1.51,-2.21c0.46,-0.71 -0.13,-1.18 -1.02,-1.57c-0.78,-0.34 -1.58,-0.72 -2.41,-1l-0.68,-0.43" fill="none" id="svg_123" stroke="#4c4c4c"/>
  <path d="m113,143.15c2.25,2.25 2.76,2.87 3.33,3.58c0.61,0.77 1.25,1.58 1.89,2.41c0.64,0.82 1.25,1.62 1.81,2.39c0.95,1.28 1.29,1.78 1.54,2.18c0.32,0.53 -0.2,0.57 -0.97,0.17c-0.7,-0.37 -1.6,-0.66 -2.47,-1.03c-0.77,-0.33 -1.53,-0.94 -2.22,-1.34c-0.78,-0.45 -1.8,-0.12 -2.61,-0.38c-0.84,-0.27 -0.7,-1.28 -0.09,-2.01c0.44,-0.53 1.09,-1.32 1.67,-2.09c0.52,-0.7 1.09,-1.37 1.5,-2.12l0.71,-0.43" fill="#4c4c4c" id="svg_124" stroke="#7f7f7f"/>
  <path d="m80,220.15c0,-1.38 0.01,-2.21 0,-3.13c-0.01,-0.85 -0.2,-1.71 -0.37,-2.63c-0.17,-0.89 -0.24,-1.79 -0.13,-2.71c0.08,-0.65 0.92,-0.2 1.56,0.3c0.77,0.6 1.47,1.17 2.02,1.76c0.61,0.67 1.81,1.53 1.35,2.13c-0.52,0.67 -1.74,0.02 -2.55,-0.18c-0.91,-0.22 -1.82,-0.38 -2.71,-0.51c-0.82,-0.12 -1.92,-0.57 -2.42,0c-0.58,0.65 -0.25,1.73 -0.25,2.61c0,0.9 0.76,1.1 1.62,1.1c0.83,0 1.73,0.08 2.62,-0.01c0.92,-0.09 1.81,-0.33 2.71,-0.24c0.83,0.08 1.6,0.57 2.12,1.23l0.55,0.64l0.52,0.61l0.74,0.4" fill="none" id="svg_125" stroke="#4c4c4c"/>
  <path d="m53.75,236.4c-0.74,-1.98 -0.99,-2.89 -1.57,-3.34l-0.76,-0.44l-0.77,-0.47l-0.85,-0.19" fill="none" id="svg_126" stroke="#7f7f7f"/>
  <path d="m171.25,136.4c4.67,7.58 4.92,8.13 5.16,9.15c0.21,0.86 0.78,1.74 0.22,2.68c-0.4,0.68 -1.71,0.53 -1.76,0.29c-0.19,-0.87 0.76,-1.58 1.28,-2.28c0.54,-0.72 1.8,-1.1 1.57,-1.79c-0.28,-0.81 -1.66,-0.73 -2.25,-1.32c-0.64,-0.64 -0.96,-1.44 -1.78,-1.62c-0.87,-0.19 -1.7,-0.25 -2.54,-0.36l-0.77,-0.24" fill="none" id="svg_127" stroke="#7f7f7f"/>
  <path d="m62,134.15c2.98,0.65 4,0.92 4.81,1c0.94,0.09 1.12,0.33 0.34,0.68c-0.83,0.37 -0.15,1.52 -0.67,2.25c-0.51,0.72 -1.11,-0.19 -0.36,0.13c0.78,0.33 1.67,0.87 2.39,1.23c0.83,0.42 1.59,0.69 2.21,1.17c0.71,0.56 1.3,1.32 1.28,2.18c-0.02,0.77 0.31,1.41 0.97,2.07l0.67,0.54" fill="none" id="svg_128" stroke="#7f7f7f"/>
  <path d="m74.5,107.65c-2.71,-2.12 -3.34,-2.75 -3.47,-3.67c-0.13,-0.93 0.18,-1.79 0.26,-2.42c0.14,-1.2 0.58,-2.18 0.1,-2.97c-0.46,-0.76 -1.52,-0.75 -2.42,-0.94c-0.88,-0.18 -1.75,-0.25 -2.63,-0.22l-0.25,0.81l-0.19,0.87l-0.14,0.89" fill="none" id="svg_131" stroke="#7f7f7f"/>
  <path d="m159.25,121.4c0.07,-2.18 0.11,-2.98 0.14,-3.83c0.04,-0.85 0.05,-1.98 0.1,-2.58c0.08,-0.95 0.52,-1.9 1.17,-2.43c0.75,-0.61 1.65,-0.57 2.58,-0.7c0.89,-0.12 1.71,-0.42 1.75,-1.32c0.04,-0.89 -0.19,-1.72 -0.36,-2.59c-0.16,-0.82 -0.7,-1.55 -1.23,-2.22l-0.7,-0.75l-0.57,-0.54l-0.53,-0.47" fill="none" id="svg_133" stroke="#7f7f7f"/>
  <path d="m130.25,204.15c0.91,-1.95 1.33,-2.82 1.8,-3.6c0.45,-0.74 1.1,-1.32 1.54,-2.11c0.45,-0.81 0.63,-1.59 1.31,-2.19c0.69,-0.61 1.14,-1.35 0.64,-1.1c-0.75,0.38 -1.41,0.85 -2.19,1.32c-0.78,0.48 -1.78,1.12 -1.35,1.88c0.37,0.66 1.52,0.69 2.38,0.8c0.62,0.08 0.63,-0.91 0.63,-1.8l0.16,-0.81l0.14,-0.91l0.34,-0.79" fill="none" id="svg_134" stroke="#7f7f7f"/>
  <path d="m229.75,144.4c0.18,2.39 0.31,3.07 0.56,4.18c0.2,0.87 0.34,1.83 1.09,2.07c0.87,0.28 1.6,-0.04 1.6,-0.9c0,-0.93 0.45,-2.09 -0.18,-2.6c-0.66,-0.53 -1.79,-0.07 -2.63,0c-0.89,0.08 -1.9,0.6 -1.69,1.44c0.21,0.82 0.88,1.5 1,2.38c0.11,0.86 -0.39,1.55 -0.74,2.3c-0.37,0.79 -0.22,2.13 0.57,2.35c0.77,0.22 0.95,-1.25 1.7,-1.66c0.75,-0.41 1.76,-0.07 2.64,-0.06l0.76,0.42" fill="none" id="svg_137" stroke="#4c4c4c"/>
  <path d="m229.25,103.4c4.09,-1.88 5.19,-2.15 5.75,-2.88c0.51,-0.66 -0.09,-1.86 -1.01,-1.89c-0.89,-0.03 -1.13,1.21 -1.23,2.07c-0.11,0.86 0,1.75 0,2.61c0,0.88 0.14,1.78 0.44,2.65l0.69,0.44l0.92,0.3l0.75,0.36" fill="none" id="svg_139" stroke="#7f7f7f"/>
  <path d="m29.82,77.31c-0.09,2.52 -0.2,3.48 -0.4,4.31c-0.2,0.87 -0.54,1.67 -0.71,2.5c-0.17,0.85 -0.56,1.72 -0.63,2.54c-0.08,0.9 -0.15,1.68 -0.39,2.68c-0.16,0.67 -1.11,2.11 -0.55,2.36c0.85,0.38 0.98,-1.41 1.62,-2.02c0.67,-0.63 1.44,-1.07 2.11,-1.77c0.57,-0.6 1.21,-1.24 1.89,-1.89c0.61,-0.59 1.32,-1.07 1.97,-1.66c0.68,-0.62 1.19,-1.32 1.83,-1.96c0.66,-0.66 1.88,-1.25 1.56,-1.85c-0.39,-0.73 -1.78,-0.27 -2.52,-0.35c-0.92,-0.1 -1.83,-0.02 -2.83,-0.11c-0.71,-0.06 -1.62,-0.17 -2.58,-0.17c-0.81,0 -1.68,0 -2.66,0c-0.89,0 -1.82,-0.11 -2.66,0.14c-0.75,0.22 -0.3,1.08 0.39,1.61c0.72,0.55 1.5,1.08 2.04,1.51c0.79,0.63 1.53,1.15 2.24,1.61c0.71,0.46 1.46,1.07 2.19,1.56c0.74,0.5 1.41,1.05 2.21,1.44c0.76,0.37 1.61,0.68 2.42,1.03c0.77,0.33 1.05,0.07 0.42,-0.5c-0.64,-0.58 -1.28,-1.14 -2.07,-1.65c-0.75,-0.48 -1.41,-1.09 -2.07,-1.63l-0.22,-0.79l-0.22,-0.76" fill="#4c4c4c" id="svg_145" stroke="#7f7f7f" transform="matrix(1 0 0 1 0 0)"/>
  <path d="m13.39,46.87c7.28,2.05 8.26,2.35 8.07,3.11c-0.19,0.78 -0.68,1.68 -0.68,2.54c0,0.91 -0.32,1.52 -1.23,1.52l-0.88,0.02" fill="none" id="svg_146" stroke="#4c4c4c" transform="matrix(1 0 0 1 0 0)"/>
  <path d="m4.91,9.91c3.66,-0.45 4.46,-0.62 5.62,-1.16c0.68,-0.32 1.27,-0.72 1.99,-1.41l0.35,-0.81l0.15,-0.95" fill="none" id="svg_148" stroke="#7f7f7f"/>
  <path d="m225.13,10.71c-1.72,0.63 -2.4,1.44 -2.58,2.31c-0.19,0.89 -0.45,1.88 0.01,2.64c0.43,0.72 1.56,0.67 2.5,0.99c0.76,0.26 1.57,0.62 2.36,1.01c0.78,0.39 1.54,0.87 2.15,1.48l0.34,0.77" fill="none" id="svg_149" stroke="#7f7f7f"/>
  <path d="m180.13,66.36c1.24,-3.91 1.4,-4.56 1.72,-5.44c0.38,-1.03 0.74,-1.64 1.47,-2.49c0.54,-0.63 1.12,-1.31 1.81,-1.81c0.73,-0.53 1.34,-1.16 1.98,-1.71c0.68,-0.58 1.24,-1.24 1.28,-2.13l-0.37,-0.73" fill="none" id="svg_151" stroke="#7f7f7f"/>
  <path d="m128.17,60.27c0.06,-4.26 0.18,-5.07 0.11,-6.2c-0.05,-0.78 -0.28,-1.54 -0.92,-2.29c-0.52,-0.6 -1.42,-1.22 -2.17,-1.63c-0.81,-0.44 -1.7,-0.35 -2.33,0.2c-0.7,0.6 -1.21,1.31 -1.89,1.95c-0.61,0.58 -1.5,0.56 -2.39,0.44l-0.89,-0.14l-0.82,-0.36" fill="none" id="svg_152" stroke="#7f7f7f"/>
  <path d="m89.04,57.23c4.4,-1.08 5,-1.4 5.53,-2.15c0.68,-0.98 0.72,-1.62 0.92,-2.45c0.24,-1.01 0.58,-1.89 1.24,-2.46c0.75,-0.65 1.52,-0.96 2.19,-1.33l0.85,-0.63" fill="none" id="svg_153" stroke="#7f7f7f"/>
  <path d="m52.96,46.8c-0.3,-1.37 -0.5,-2.21 -0.47,-2.85c0.05,-1.35 0.36,-2 0.61,-2.6c0.49,-1.15 1.11,-1.68 1.87,-2.15c0.73,-0.45 1.62,-0.86 2.02,-1.66c0.4,-0.79 0.22,-1.81 -0.17,-2.58c-0.37,-0.74 -0.98,-1.32 -1.59,-2c-0.6,-0.66 -1.22,-1.39 -2.19,-1.59c-0.85,-0.18 -1.79,0 -2.65,0l-0.83,-0.28" fill="none" id="svg_154" stroke="#7f7f7f"/>
  <path d="m34.26,45.27c1.65,1.57 2.21,2.2 2.49,2.54c0.57,0.69 1.28,1.7 1.72,2.57l0.2,0.72l-0.02,0.99l-0.2,0.82" fill="none" id="svg_155" stroke="#7f7f7f"/>
  <path d="m191.87,9.84c-0.09,2.42 -0.24,3.38 -0.48,4.22c-0.24,0.84 -0.62,1.66 -0.97,2.49c-0.34,0.79 -1.59,1.98 -0.93,2.29c0.8,0.38 1.21,-1.24 1.91,-1.82c0.71,-0.59 1.39,-1.15 2.11,-1.57c0.78,-0.46 1.61,-0.84 2.33,-1.24c0.71,-0.39 -0.25,-0.58 -1.09,-0.67c-0.86,-0.09 -1.79,-0.01 -2.63,-0.01c-0.92,0 -1.89,0.4 -1.54,1.21c0.34,0.77 1.23,1.11 1.96,1.55l0.27,0.82l0.35,0.85" fill="none" id="svg_156" stroke="#4c4c4c" transform="matrix(1 0 0 1 0 0)"/>
  <path d="m164.7,38.32c1.38,0.82 2,1.15 2.71,1.53c0.75,0.4 1.86,0.98 2.56,1.35c0.63,0.34 1.43,0.77 2.46,1.36l0.86,0.32" fill="none" id="svg_159" stroke="#7f7f7f"/>
  <polyline fill="none" id="svg_160" opacity="0.5" points="163.60976749489066,47.23026614006493 " stroke="#7f7f7f" stroke-linecap="round"/>
  <path d="m165.13,47.67c2.68,-4.16 3.18,-4.95 3.68,-5.72c0.24,-0.38 0.69,-1.1 1.53,-2.3c0.49,-0.7 1.02,-1.49 1.53,-2.19c0.51,-0.68 1.22,-1.22 1.96,-1.74l0.75,-0.41" fill="none" id="svg_161" stroke="#7f7f7f"/>
  <path d="m152.96,52.01c-3.7,-1.23 -4.4,-1.48 -5.06,-1.75c-1.1,-0.45 -1.74,-0.92 -2.44,-1.51c-0.68,-0.57 -1.39,-0.98 -2.24,-1.18c-0.84,-0.2 -1.8,-0.05 -2.27,0.61c-0.55,0.78 -0.92,1.63 -1.14,2.42c-0.25,0.88 -0.84,1.94 -0.31,2.65c0.51,0.69 1.99,-0.35 2.61,0.25c0.57,0.55 0.37,1.59 1.11,1.2c0.8,-0.42 1.4,-1.12 1.87,-1.83l0.25,-0.78l-0.22,-0.78" fill="none" id="svg_162" stroke="#7f7f7f"/>
  <path d="m79.04,7.01c0.2,2.22 0.21,2.97 0.22,3.75c0,0.74 0.09,2.01 -0.13,2.94c-0.21,0.86 -0.76,1.56 -1.62,1.57c-0.91,0.01 -1.9,-0.16 -2.55,0.37c-0.61,0.5 -0.48,1.53 -0.44,2.42l0.36,0.76l0.43,0.78" fill="none" id="svg_163" stroke="#7f7f7f"/>
  <path d="m127.98,23.8c0.56,1.95 0.85,2.77 1.01,3.21c0.33,0.93 0.5,1.39 1,2.72c0.29,0.78 0.62,1.79 1.07,2.66c0.35,0.66 0.33,-0.25 0.51,-1.09c0.19,-0.87 0.34,-1.75 0.58,-2.61c0.25,-0.88 0.38,-1.71 0.7,-2.55c0.33,-0.88 0.81,-1.62 0.64,-1.4c-0.54,0.68 -1.38,1.12 -1.95,1.54c-0.81,0.58 -1.66,0.92 -2.36,1.57c-0.66,0.6 -2.14,0.86 -1.96,1.73c0.15,0.73 1.54,0.08 2.55,0.17c0.76,0.07 1.74,0.14 2.43,0.14c1.04,0.01 2.05,0.04 2.85,0.11c0.96,0.08 1.78,0.11 2.71,0.11c0.84,0 1.16,0 0.27,0l-0.45,-0.67" fill="#4c4c4c" id="svg_164" stroke="#7f7f7f" transform="matrix(1 0 0 1 0 0)"/>
  <path d="m154.91,10.27c4.4,3.06 5.23,3.69 5.63,4c0.77,0.6 1.46,1.15 2.29,1.81c0.7,0.55 1.45,1.16 2.16,1.6c0.8,0.5 1.69,0.79 1.36,0.03c-0.34,-0.78 -0.91,-1.53 -1.29,-2.33c-0.36,-0.76 -0.77,-1.61 -1.25,-2.31c-0.46,-0.66 -1,-1.28 -1.66,-1.87c-0.53,-0.48 -1.39,-0.6 -2.3,-0.41c-0.8,0.17 -1.69,0.6 -2.45,0.99c-0.77,0.39 -1.64,0.74 -2.5,1.05c-0.68,0.25 -1.59,0.38 -2.49,0.48c-0.86,0.1 -1.74,0.33 -2.62,0.42l-0.97,0" fill="none" id="svg_166" stroke="#7f7f7f"/>
  <path d="m123.83,87.01c1.61,-1.16 2.29,-1.65 2.79,-2.54c0.42,-0.77 0.58,-1.73 0.67,-2.52l-0.38,-0.76l-0.56,-0.69l-0.77,-0.51" fill="none" id="svg_168" stroke="#7f7f7f"/>
  <path d="m113.39,37.23c3.73,-2.73 4.66,-3.25 5.13,-3.51c0.91,-0.49 1.34,-0.71 2.66,-1.41l0.66,-0.47" fill="none" id="svg_169" stroke="#7f7f7f"/>
  <path d="m86.87,147.95c2.35,1.67 2.78,2.41 3.7,3.08c0.72,0.53 1.71,0.62 2.36,0.14c0.68,-0.5 1.23,-1.21 1.89,-1.81c0.63,-0.57 1.28,-1.22 1.83,-1.9l0.19,-0.82" fill="none" id="svg_170" stroke="#7f7f7f"/>
  <path d="m12.96,166.22c5.78,0.77 6.89,0.97 7.46,1.2c1.13,0.46 1.61,1.08 2.03,1.96l0.07,0.88" fill="none" id="svg_171" stroke="#7f7f7f"/>
  <path d="m151.65,211.87c5.21,2.15 6.07,2.89 6.51,3.38l0.59,0.89l0.36,0.78l0.15,0.95" fill="none" id="svg_172" stroke="#7f7f7f"/>
  <path d="m244.26,1.14c-0.18,1.42 -0.29,2.09 -0.41,3.19c-0.1,0.89 -0.79,1.77 -0.48,2.57c0.18,0.47 0.75,-0.56 1.1,-1.35c0.36,-0.79 0.99,-1.35 1.76,-1.59c0.83,-0.25 0.18,-0.72 -0.69,-0.92c-0.89,-0.2 -1.7,-0.41 -2.54,-0.67l-0.88,-0.15l-0.25,0.7" fill="none" id="svg_174" stroke="#7f7f7f"/>
  <path d="m41,5.27c-0.43,-1.47 -0.56,-2.47 -0.01,-2.92c0.64,-0.51 1.59,-0.29 2.48,-0.4c0.87,-0.11 1.78,-0.22 2.6,-0.01c0.88,0.22 1.73,0.4 2.53,0.51c0.9,0.12 1.82,-0.48 2.61,-0.18c0.68,0.25 0.44,1.43 0.43,2.31c0,0.92 -0.09,1.8 -0.31,2.7c-0.22,0.86 -0.63,1.57 -1.11,2.35c-0.45,0.74 -1.27,1.71 -0.74,2.28c0.58,0.62 1.67,0.62 2.46,0.93c0.86,0.35 1.66,0.74 2.51,0.99l0.71,0.4l0.63,0.63l0.57,0.65" fill="none" id="svg_175" stroke="#7f7f7f"/>
  <path d="m173.61,246.07c1.14,-0.79 2.09,-1.23 2.96,-1.3c0.88,-0.07 1.77,0 2.65,0c0.91,0 1.78,-0.01 2.64,0.21c0.8,0.21 1.44,1.07 2.35,0.96c0.75,-0.09 0.92,-1.25 0.92,-2.17c0,-0.83 0.02,-1.71 -0.22,-2.58c-0.25,-0.89 -0.42,-1.78 -0.89,-2.52c-0.47,-0.74 -1.05,-1.49 -1.91,-1.55c-0.69,-0.05 -0.72,0.97 -0.9,1.82c-0.16,0.76 -1,1.21 -1.83,1.49c-0.84,0.28 -1.77,0 -2.63,-0.16l-0.81,-0.28" fill="none" id="svg_177" stroke="#7f7f7f"/>
  <path d="m66.65,246.72c-0.22,-1.48 -0.26,-2.33 -0.72,-3.16c-0.39,-0.72 -1.19,-1.21 -2.04,-1.19c-0.88,0.02 -1.76,0.29 -2.52,0.55c-0.81,0.27 -1.77,0.3 -2.75,0.32c-0.85,0.02 -1.76,0.2 -2.67,0.22c-0.85,0.02 -1.46,-0.53 -2.24,-0.97l-0.77,-0.44l-0.8,-0.37l-0.81,-0.33" fill="none" id="svg_179" stroke="#7f7f7f"/>
  <path d="m236.87,63.17c1.85,0 2.68,0 3.73,0c0.74,0 1.64,0 2.54,0c0.91,0 1.8,-0.11 2,-0.92c0.21,-0.88 0.11,-1.77 0,-2.64c-0.11,-0.88 0,-1.76 0.51,-2.39l0.65,-0.65l0.65,-0.65" fill="none" id="svg_181" stroke="#7f7f7f"/>
  <path d="m240.13,139.48c4.38,1.64 4.8,2.42 5,3.08c0.28,0.96 0.72,2 0.36,2.79c-0.36,0.79 -1.93,0.65 -2.1,1.46c-0.18,0.83 1.22,1.25 2.08,1.37c0.88,0.12 1.66,0.36 2.26,0.98c0.59,0.6 1.38,1.4 1.3,2.25c-0.07,0.85 -0.93,1.37 -1.59,1.84l-0.72,0.36l-0.88,0.21l-0.91,0.01" fill="none" id="svg_183" stroke="#7f7f7f"/>
  <path d="m241.22,185.35c2.26,2.9 2.51,3.22 3.01,3.88c0.69,0.9 1.72,1.83 1.32,2.49c-0.43,0.72 -1.51,0.8 -2.27,1.24c-0.81,0.47 -0.68,0.99 0.16,1.38c0.74,0.35 1.64,0.62 2.41,1.08c0.77,0.47 1.26,1.11 1.59,1.92c0.32,0.78 0.03,1.6 -0.56,2.21c-0.62,0.63 -1.32,1.21 -2.1,1.53c-0.7,0.28 -0.09,0.99 0.66,1.49c0.73,0.49 0.24,0.6 -0.57,0.3c-0.76,-0.27 -1.61,-0.59 -2.38,-0.96c-0.83,-0.4 -1.54,-0.96 -2.23,-1.49c-0.68,-0.53 -1.4,-1.19 -1.96,-1.92c-0.56,-0.72 -1.09,-1.26 -1.52,-2.13c-0.38,-0.78 -0.15,-1.09 -1,-1.27c-0.83,-0.18 -1.62,-1.39 -2.33,-1.01c-0.76,0.4 -0.33,1.75 -0.5,2.59l0.18,0.85l0.22,0.83" fill="none" id="svg_184" stroke="#7f7f7f"/>
  <path d="m242.31,35.56c-0.01,-2.72 0.1,-3.55 0.33,-4.71c0.16,-0.83 0.69,-1.81 0.24,-2.34c-0.54,-0.64 -1.66,-0.45 -2.52,-0.6c-0.93,-0.16 -2.12,-0.62 -2.59,0.09c-0.48,0.73 0.67,1.55 1.34,2.11c0.71,0.59 1.31,1.1 2.11,1.53c0.79,0.42 1.7,0.66 2.26,1.26c0.63,0.66 1.24,1.19 1.99,1.83c0.66,0.57 1.01,1.24 0.15,1.47c-0.84,0.22 -1.85,0.45 -2.27,1.13c-0.46,0.73 -0.22,1.71 -0.37,2.54l0.63,0.62l0.72,0.53" fill="none" id="svg_185" stroke="#7f7f7f"/>
  <path d="m191.93,216.06c2.92,1.87 3.45,2.43 3.75,3.38c0.28,0.87 0.16,1.76 0.16,2.64c0,0.88 -0.01,1.82 0,2.71c0.01,0.84 0.62,1.37 1.36,1.78c0.82,0.46 1.59,0.62 2.47,1.09c0.76,0.4 1.64,0.57 2.39,0.87c0.79,0.32 1.96,0.99 2.46,0.36c0.55,-0.68 -0.12,-1.81 0.02,-2.67c0.14,-0.87 0.72,-1.57 1.16,-2.38c0.41,-0.75 0.88,-1.47 1.74,-1.49c0.89,-0.02 1.77,0 2.66,0c0.92,0 1.59,0.34 2.52,0.59c0.85,0.22 1.5,0.7 2.41,0.95l0.76,0.51" fill="none" id="svg_186" stroke="#7f7f7f"/>
  <path d="m201.71,239.32c4.09,0.43 5.05,0.51 5.77,0.3c0.96,-0.28 1.69,-0.88 2.19,-1.29c0.97,-0.79 1.4,-1.15 2.01,-1.83c0.68,-0.75 1.31,-1.31 2.07,-1.53c0.83,-0.23 1.75,0 2.68,0l0.78,0.04" fill="none" id="svg_187" stroke="#7f7f7f"/>
  <path d="m181.5,217.15c-0.28,-4.97 -0.17,-5.73 0.14,-6.44c0.32,-0.75 0.82,-1.48 1.44,-2.2c0.65,-0.76 1.02,-1.09 1.69,-1.78c0.87,-0.88 1.45,-1.54 1.86,-2.31c0.43,-0.81 1.21,-1.57 0.96,-2.42c-0.23,-0.81 -0.99,-1.39 -1.77,-1.81c-0.68,-0.36 -1.26,-1.15 -1.94,-1.67c-0.72,-0.55 -1.34,-1.16 -2.14,-1.54c-0.85,-0.41 -1.32,-0.14 -1.32,0.67l0,0.93l0,0.91" fill="none" id="svg_188" stroke="#7f7f7f"/>
  <path d="m72.29,68.33c-0.49,1 -1.19,1.63 -1.87,2.13c-0.71,0.53 -1.87,0.67 -2.25,1.43c-0.41,0.8 0.28,1.74 0.88,2.14c0.73,0.5 1.19,1.17 1.5,1.93l0,0.89" fill="none" id="svg_192" stroke="#4c4c4c"/>
  <path d="m41.86,129.86c1.23,1.02 1.94,1.52 1.96,2.39c0.02,0.89 -0.46,1.56 -1.19,2.06c-0.72,0.49 -1.95,0.59 -2.21,1.47c-0.19,0.64 0.76,1.27 1.02,2.03l-0.41,0.76" fill="none" id="svg_193" stroke="#4c4c4c"/>
  <path d="m171.42,225.07c-0.65,1.2 -0.43,2.06 -0.22,2.85l-0.46,0.68l-0.77,0.3l-0.81,0.31" fill="none" id="svg_195" stroke="#4c4c4c"/>
  <circle cx="177.62" cy="180.75" fill="url(#svg_7)" id="svg_8" opacity="0.1" r="32.88" stroke-width="8"/>
  <circle cx="135" cy="31.46" fill="url(#svg_7)" id="svg_9" opacity="0.1" r="32.9"/>
  <circle cx="212.63" cy="84.71" fill="url(#svg_7)" id="svg_10" opacity="0.15" r="21.32"/>
  <circle cx="31.88" cy="85.84" fill="url(#svg_7)" id="svg_11" opacity="0.15" r="36.24" transform="matrix(1 0 0 1 0 0)"/>
  <circle cx="47.88" cy="190.59" fill="url(#svg_7)" id="svg_12" opacity="0.1" r="29.62" transform="matrix(1 0 0 1 0 0)"/>
 </g>
</svg>