<svg width="250" height="250" xmlns="http://www.w3.org/2000/svg">
 <g id="Layer_1">
  <title>Layer 1</title>
  <rect stroke="null" id="svg_3" height="250.78198" width="250.69277" y="-0.63107" x="-0.29391" fill="#666666"/>
  <line id="svg_6" y2="219.88953" x2="46.63246" y1="219.39448" x1="41.68201" stroke="#4c4c4c" fill="none"/>
  <line id="svg_7" y2="192.16701" x2="151.08697" y1="196.62241" x1="149.10679" stroke="#4c4c4c" fill="none"/>
  <line id="svg_8" y2="169.39493" x2="88.21625" y1="171.37511" x1="89.70138" stroke="#4c4c4c" fill="none"/>
  <line id="svg_9" y2="95.63322" x2="121.38427" y1="100.58367" x1="124.84958" stroke="#4c4c4c" fill="none"/>
  <line id="svg_10" y2="14.44584" x2="24.35544" y1="16.92106" x1="21.38517" stroke="#4c4c4c" fill="none"/>
  <line id="svg_11" y2="52.06926" x2="12.47436" y1="52.06926" x1="17.42481" stroke="#4c4c4c" fill="none"/>
  <line id="svg_12" y2="141.17737" x2="19.90003" y1="140.18728" x1="15.44463" stroke="#4c4c4c" fill="none"/>
  <line id="svg_13" y2="100.08863" x2="52.57301" y1="105.03908" x1="59.50364" stroke="#4c4c4c" fill="none"/>
  <line id="svg_14" y2="26.82196" x2="142.17616" y1="28.3071" x1="139.70093" stroke="#4c4c4c" fill="none"/>
  <line id="svg_15" y2="31.77241" x2="90.69147" y1="34.24764" x1="94.15679" stroke="#4c4c4c" fill="none"/>
  <line id="svg_16" y2="51.57421" x2="66.43427" y1="48.1089" x1="67.42436" stroke="#4c4c4c" fill="none"/>
  <line id="svg_17" y2="85.73232" x2="20.89012" y1="85.73232" x1="25.34553" stroke="#4c4c4c" fill="none"/>
  <line id="svg_18" y2="182.26611" x2="40.69192" y1="181.27602" x1="36.23652" stroke="#4c4c4c" fill="none"/>
  <line id="svg_19" y2="247.11701" x2="14.45454" y1="249.09719" x1="9.50409" stroke="#4c4c4c" fill="none"/>
  <line id="svg_20" y2="203.55304" x2="6.53382" y1="205.03818" x1="10.98922" stroke="#4c4c4c" fill="none"/>
  <line id="svg_21" y2="239.19629" x2="109.00814" y1="238.2062" x1="105.04778" stroke="#4c4c4c" fill="none"/>
  <line id="svg_22" y2="224.34493" x2="195.14598" y1="228.30529" x1="192.17571" stroke="#4c4c4c" fill="none"/>
  <line id="svg_23" y2="164.93953" x2="227.32391" y1="167.9098" x1="235.24463" stroke="#4c4c4c" fill="none"/>
  <line id="svg_24" y2="47.61385" x2="211.97751" y1="47.61385" x1="207.5221" stroke="#4c4c4c" fill="none"/>
  <line id="svg_25" y2="8.5053" x2="220.39327" y1="7.51521" x1="213.46264" stroke="#4c4c4c" fill="none"/>
  <line id="svg_26" y2="29.29719" x2="231.28427" y1="28.80214" x1="237.71985" stroke="#4c4c4c" fill="none"/>
  <line id="svg_27" y2="40.68322" x2="169.89868" y1="33.25755" x1="166.43337" stroke="#4c4c4c" fill="none"/>
  <line id="svg_28" y2="56.02962" x2="133.76039" y1="54.04944" x1="130.29508" stroke="#4c4c4c" fill="none"/>
  <line id="svg_29" y2="70.88097" x2="87.7212" y1="69.89088" x1="90.69147" stroke="#4c4c4c" fill="none"/>
  <line id="svg_30" y2="119.39539" x2="87.7212" y1="118.90034" x1="83.76084" stroke="#4c4c4c" fill="none"/>
  <line id="svg_31" y2="137.71205" x2="56.03832" y1="136.22692" x1="58.0185" stroke="#4c4c4c" fill="none"/>
  <line id="svg_32" y2="201.57286" x2="89.70138" y1="200.08773" x1="88.21625" stroke="#4c4c4c" fill="none"/>
  <line id="svg_33" y2="166.91971" x2="135.24553" y1="167.41475" x1="129.30499" stroke="#4c4c4c" fill="none"/>
  <line id="svg_34" y2="131.77151" x2="137.22571" y1="139.19719" x1="132.7703" stroke="#4c4c4c" fill="none"/>
  <line id="svg_35" y2="75.33638" x2="190.19553" y1="72.36611" x1="192.17571" stroke="#4c4c4c" fill="none"/>
  <line id="svg_36" y2="98.60349" x2="221.38336" y1="92.66295" x1="216.43291" stroke="#4c4c4c" fill="none"/>
  <line id="svg_37" y2="95.63322" x2="164.45318" y1="93.158" x1="168.90859" stroke="#4c4c4c" fill="none"/>
  <line id="svg_38" y2="148.60304" x2="200.09643" y1="145.13773" x1="193.66084" stroke="#4c4c4c" fill="none"/>
  <line id="svg_39" y2="204.04809" x2="116.43382" y1="204.04809" x1="122.37436" stroke="#4c4c4c" fill="none"/>
  <line id="svg_40" y2="232.7607" x2="86.23607" y1="227.81025" x1="77.8203" stroke="#4c4c4c" fill="none"/>
  <line id="svg_41" y2="243.15665" x2="40.69192" y1="242.16656" x1="43.16715" stroke="#4c4c4c" fill="none"/>
  <line id="svg_42" y2="165.43457" x2="9.50409" y1="167.41475" x1="11.48427" stroke="#4c4c4c" fill="none"/>
  <line id="svg_43" y2="116.92016" x2="17.91985" y1="120.88052" x1="27.32571" stroke="#4c4c4c" fill="none"/>
  <line id="svg_44" y2="58.0098" x2="39.70183" y1="59.49493" x1="33.76129" stroke="#4c4c4c" fill="none"/>
  <line id="svg_45" y2="30.28728" x2="7.02886" y1="32.7625" x1="10.49418" stroke="#4c4c4c" fill="none"/>
  <line id="svg_46" y2="19.89133" x2="50.59283" y1="21.87151" x1="49.10769" stroke="#4c4c4c" fill="none"/>
  <line id="svg_47" y2="18.4062" x2="94.65183" y1="19.39629" x1="97.12706" stroke="#4c4c4c" fill="none"/>
  <line id="svg_48" y2="7.02016" x2="68.90949" y1="10.98052" x1="70.39463" stroke="#4c4c4c" fill="none"/>
  <line id="svg_49" y2="95.63322" x2="95.14688" y1="94.64313" x1="93.66174" stroke="#4c4c4c" fill="none"/>
  <line id="svg_50" y2="19.89133" x2="118.414" y1="21.87151" x1="116.92886" stroke="#4c4c4c" fill="none"/>
  <line id="svg_51" y2="16.92106" x2="178.31445" y1="20.88142" x1="176.82931" stroke="#4c4c4c" fill="none"/>
  <line id="svg_52" y2="70.38593" x2="155.54237" y1="69.89088" x1="151.58201" stroke="#4c4c4c" fill="none"/>
  <line id="svg_53" y2="125.33593" x2="170.88877" y1="124.34584" x1="165.44328" stroke="#4c4c4c" fill="none"/>
  <line id="svg_54" y2="171.87016" x2="174.35409" y1="173.85034" x1="179.30454" stroke="#4c4c4c" fill="none"/>
  <line id="svg_55" y2="225.33502" x2="165.44328" y1="222.36475" x1="160.49282" stroke="#4c4c4c" fill="none"/>
  <line id="svg_56" y2="241.17647" x2="135.24553" y1="240.68142" x1="137.22571" stroke="#4c4c4c" fill="none"/>
  <line id="svg_57" y2="243.15665" x2="203.0667" y1="238.70124" x1="197.12616" stroke="#4c4c4c" fill="none"/>
  <line id="svg_58" y2="245.13683" x2="239.20499" y1="246.12692" x1="245.14553" stroke="#4c4c4c" fill="none"/>
  <line id="svg_59" y2="214.93908" x2="246.63066" y1="221.86971" x1="247.62075" stroke="#4c4c4c" fill="none"/>
  <line id="svg_60" y2="208.00845" x2="227.32391" y1="212.9589" x1="222.37345" stroke="#4c4c4c" fill="none"/>
  <line id="svg_61" y2="230.28547" x2="224.84868" y1="226.82016" x1="222.37345" stroke="#4c4c4c" fill="none"/>
  <line id="svg_62" y2="204.54313" x2="193.1658" y1="205.03818" x1="197.12616" stroke="#4c4c4c" fill="none"/>
  <line id="svg_63" y2="178.80079" x2="217.91805" y1="185.23638" x1="215.44282" stroke="#4c4c4c" fill="none"/>
  <line id="svg_64" y2="189.19674" x2="176.33427" y1="189.69178" x1="180.29463" stroke="#4c4c4c" fill="none"/>
  <line id="svg_65" y2="141.67241" x2="241.68021" y1="142.16746" x1="241.18517" stroke="#4c4c4c" fill="none"/>
  <line id="svg_66" y2="115.43502" x2="205.04688" y1="114.93998" x1="202.07661" stroke="#4c4c4c" fill="none"/>
  <line id="svg_67" y2="85.23728" x2="228.80904" y1="85.23728" x1="227.32391" stroke="#4c4c4c" fill="none"/>
  <line id="svg_68" y2="54.54448" x2="229.79913" y1="54.54448" x1="224.35364" stroke="#4c4c4c" fill="none"/>
  <line id="svg_69" y2="120.88052" x2="239.20499" y1="119.89043" x1="234.74958" stroke="#4c4c4c" fill="none"/>
  <line id="svg_70" y2="91.17782" x2="190.19553" y1="92.66295" x1="186.23517" stroke="#4c4c4c" fill="none"/>
  <line id="svg_71" y2="145.13773" x2="91.18652" y1="145.13773" x1="96.13697" stroke="#4c4c4c" fill="none"/>
  <line id="svg_72" y2="163.45439" x2="68.41445" y1="163.45439" x1="72.86985" stroke="#4c4c4c" fill="none"/>
  <line id="svg_73" y2="156.02872" x2="44.15724" y1="156.02872" x1="45.64237" stroke="#4c4c4c" fill="none"/>
  <line id="svg_74" y2="197.11746" x2="65.44418" y1="192.66205" x1="62.47391" stroke="#4c4c4c" fill="none"/>
  <line id="svg_75" y2="225.33502" x2="17.42481" y1="225.33502" x1="20.39508" stroke="#4c4c4c" fill="none"/>
  <line id="svg_76" y2="243.65169" x2="65.93922" y1="241.17647" x1="60.49373" stroke="#4c4c4c" fill="none"/>
  <line id="svg_77" y2="41.17827" x2="52.07796" y1="42.16836" x1="52.07796" stroke="#4c4c4c" fill="none"/>
  <line id="svg_78" y2="3.55485" x2="131.28517" y1="6.03007" x1="131.28517" stroke="#4c4c4c" fill="none"/>
  <line id="svg_79" y2="7.02016" x2="162.96805" y1="9.00034" x1="157.02751" stroke="#4c4c4c" fill="none"/>
  <line id="svg_80" y2="60.98007" x2="180.78967" y1="59.98998" x1="174.84913" stroke="#4c4c4c" fill="none"/>
  <line id="svg_81" y2="22.36656" x2="195.14598" y1="24.34674" x1="192.67075" stroke="#4c4c4c" fill="none"/>
  <line id="svg_82" y2="8.01025" x2="243.16535" y1="8.5053" x1="241.18517" stroke="#4c4c4c" fill="none"/>
  <line id="svg_83" y2="61.97016" x2="242.6703" y1="62.96025" x1="240.19508" stroke="#4c4c4c" fill="none"/>
  <line id="svg_84" y2="100.08863" x2="245.64057" y1="98.10845" x1="242.17526" stroke="#4c4c4c" fill="none"/>
  <line id="svg_85" y2="143.65259" x2="217.91805" y1="135.73187" x1="216.92796" stroke="#4c4c4c" fill="none"/>
  <line id="svg_86" y2="151.57331" x2="161.97796" y1="149.09809" x1="164.94823" stroke="#4c4c4c" fill="none"/>
  <line id="svg_87" y2="109.98953" x2="146.63156" y1="110.48457" x1="149.10679" stroke="#4c4c4c" fill="none"/>
  <line id="svg_88" y2="64.94043" x2="113.46355" y1="66.92061" x1="116.43382" stroke="#4c4c4c" fill="none"/>
  <line id="svg_89" y2="120.38548" x2="117.91895" y1="119.89043" x1="119.89913" stroke="#4c4c4c" fill="none"/>
  <line id="svg_90" y2="96.12827" x2="4.05859" y1="101.57376" x1="5.54373" stroke="#4c4c4c" fill="none"/>
  <line id="svg_91" y2="146.62286" x2="246.63066" y1="142.6625" x1="238.70994" stroke="#4c4c4c" fill="none"/>
  <line id="svg_92" y2="193.65214" x2="250.59102" y1="189.69178" x1="243.16535" stroke="#4c4c4c" fill="none"/>
 </g>
</svg>