<?xml version="1.0"?>
<svg width="250.00000000000006" height="250.00000000000006" xmlns="http://www.w3.org/2000/svg" xmlns:svg="http://www.w3.org/2000/svg">
 <g class="layer" id="Layer_1">
  <title>Layer 1</title>
  <g id="svg_121" transform="matrix(1 0 0 1 0 0)">
   <g id="svg_1">
    <title>Layer 1</title>
    <rect fill="#333333" height="250" id="svg_5" width="50" x="0.08" y="-0.27"/>
    <rect fill="#333333" height="250" id="svg_4" width="50" x="201.33" y="-0.27"/>
    <rect fill="#333333" height="50.91" id="svg_3" width="153.11" x="49.27" y="-0.17"/>
    <rect fill="#333333" height="50.23" id="svg_2" width="153.73" x="48.81" y="199.5"/>
    <line fill="none" fill-opacity="0" id="svg_132" stroke="#4c4c4c" x1="50.21" x2="-0.04" y1="50.73" y2="-0.02"/>
    <line fill="none" fill-opacity="0" id="svg_133" stroke="#4c4c4c" x1="251.31" x2="200.56" y1="249.88" y2="199.88"/>
    <line fill="none" fill-opacity="0" id="svg_134" stroke="#4c4c4c" x1="200.86" x2="250.96" y1="50.56" y2="-0.22"/>
    <line fill="none" fill-opacity="0" id="svg_135" stroke="#4c4c4c" x1="0.31" x2="50.31" y1="250.63" y2="199.38"/>
   </g>
  </g>
  <rect fill="none" height="235.75" id="svg_136" stroke="#000000" stroke-opacity="0" width="235.75" x="7.46" y="7.26"/>
  <rect fill="none" fill-opacity="0" height="220" id="svg_137" stroke="#4c4c4c" width="220" x="15.21" y="14.96"/>
  <rect fill="none" fill-opacity="0" height="203" id="svg_138" stroke="#4c4c4c" width="203" x="23.96" y="23.76"/>
  <rect fill="none" fill-opacity="0" height="186.5" id="svg_139" stroke="#4c4c4c" width="186.5" x="32.21" y="32.26"/>
  <line fill="none" fill-opacity="0" id="svg_165" stroke="#4c4c4c" x1="35.94" x2="34.19" y1="7.69" y2="-0.31"/>
  <line fill="none" fill-opacity="0" id="svg_166" stroke="#4c4c4c" x1="71.69" x2="70.94" y1="14.44" y2="7.44"/>
  <line fill="none" fill-opacity="0" id="svg_167" stroke="#4c4c4c" x1="42.94" x2="41.19" y1="23.44" y2="14.94"/>
  <line fill="none" fill-opacity="0" id="svg_168" stroke="#4c4c4c" x1="60.19" x2="57.94" y1="50.44" y2="31.69"/>
  <line fill="none" fill-opacity="0" id="svg_169" stroke="#4c4c4c" x1="68.19" x2="67.94" y1="31.44" y2="23.69"/>
  <line fill="none" fill-opacity="0" id="svg_171" stroke="#4c4c4c" x1="92.94" x2="92.94" y1="23.19" y2="14.69"/>
  <line fill="none" fill-opacity="0" id="svg_172" stroke="#4c4c4c" x1="116.69" x2="117.19" y1="14.69" y2="7.19"/>
  <line fill="none" fill-opacity="0" id="svg_173" stroke="#4c4c4c" x1="93.69" x2="93.94" y1="7.19" y2="-0.06"/>
  <line fill="none" fill-opacity="0" id="svg_174" stroke="#4c4c4c" x1="138.44" x2="138.94" y1="6.94" y2="-0.06"/>
  <line fill="none" fill-opacity="0" id="svg_175" stroke="#4c4c4c" x1="155.94" x2="156.44" y1="14.69" y2="7.19"/>
  <line fill="none" fill-opacity="0" id="svg_176" stroke="#4c4c4c" x1="180.69" x2="181.44" y1="6.94" y2="-0.06"/>
  <line fill="none" fill-opacity="0" id="svg_177" stroke="#4c4c4c" x1="216.19" x2="218.69" y1="6.94" y2="-0.56"/>
  <line fill="none" fill-opacity="0" id="svg_178" stroke="#4c4c4c" x1="200.44" x2="202.69" y1="14.69" y2="6.69"/>
  <line fill="none" fill-opacity="0" id="svg_179" stroke="#4c4c4c" x1="127.44" x2="127.69" y1="32.19" y2="23.69"/>
  <line fill="none" fill-opacity="0" id="svg_180" stroke="#4c4c4c" x1="163.19" x2="163.69" y1="31.44" y2="23.69"/>
  <line fill="none" fill-opacity="0" id="svg_181" stroke="#4c4c4c" x1="203.19" x2="205.19" y1="31.94" y2="23.94"/>
  <line fill="none" fill-opacity="0" id="svg_182" stroke="#4c4c4c" x1="177.94" x2="179.44" y1="23.94" y2="14.94"/>
  <line fill="none" fill-opacity="0" id="svg_186" stroke="#4c4c4c" x1="101.69" x2="101.19" y1="31.94" y2="50.19"/>
  <line fill="none" fill-opacity="0" id="svg_187" stroke="#4c4c4c" x1="148.19" x2="148.69" y1="31.94" y2="50.44"/>
  <line fill="none" fill-opacity="0" id="svg_188" stroke="#4c4c4c" x1="7.44" x2="-0.81" y1="24.19" y2="17.44"/>
  <line fill="none" fill-opacity="0" id="svg_189" stroke="#4c4c4c" x1="23.69" x2="14.94" y1="40.19" y2="35.69"/>
  <line fill="none" fill-opacity="0" id="svg_191" stroke="#4c4c4c" x1="-0.06" x2="6.94" y1="55.94" y2="58.19"/>
  <line fill="none" fill-opacity="0" id="svg_192" stroke="#4c4c4c" x1="15.19" x2="23.44" y1="69.69" y2="71.94"/>
  <line fill="none" fill-opacity="0" id="svg_193" stroke="#4c4c4c" x1="32.19" x2="49.94" y1="86.19" y2="90.69"/>
  <line fill="none" fill-opacity="0" id="svg_197" stroke="#4c4c4c" x1="-0.31" x2="7.69" y1="219.19" y2="214.44"/>
  <line fill="none" fill-opacity="0" id="svg_198" stroke="#4c4c4c" x1="15.44" x2="23.69" y1="204.44" y2="200.69"/>
  <line fill="none" fill-opacity="0" id="svg_199" stroke="#4c4c4c" x1="32.19" x2="49.94" y1="190.19" y2="187.44"/>
  <line fill="none" fill-opacity="0" id="svg_200" stroke="#4c4c4c" x1="23.94" x2="31.44" y1="176.44" y2="176.19"/>
  <line fill="none" fill-opacity="0" id="svg_201" stroke="#4c4c4c" x1="7.19" x2="-0.06" y1="177.19" y2="177.69"/>
  <line fill="none" fill-opacity="0" id="svg_202" stroke="#4c4c4c" x1="7.69" x2="15.19" y1="193.44" y2="192.19"/>
  <line fill="none" fill-opacity="0" id="svg_203" stroke="#4c4c4c" x1="7.69" x2="15.19" y1="155.69" y2="154.94"/>
  <line fill="none" fill-opacity="0" id="svg_204" stroke="#4c4c4c" x1="7.19" x2="15.19" y1="124.94" y2="125.69"/>
  <line fill="none" fill-opacity="0" id="svg_205" stroke="#4c4c4c" x1="7.44" x2="14.94" y1="48.94" y2="50.69"/>
  <line fill="none" fill-opacity="0" id="svg_206" stroke="#4c4c4c" x1="7.44" x2="14.94" y1="85.94" y2="86.94"/>
  <line fill="none" fill-opacity="0" id="svg_207" stroke="#4c4c4c" x1="7.19" x2="-0.06" y1="132.44" y2="131.69"/>
  <line fill="none" fill-opacity="0" id="svg_208" stroke="#4c4c4c" x1="7.19" x2="-0.06" y1="94.19" y2="93.19"/>
  <line fill="none" fill-opacity="0" id="svg_209" stroke="#4c4c4c" x1="15.19" x2="23.44" y1="108.69" y2="109.44"/>
  <line fill="none" fill-opacity="0" id="svg_210" stroke="#4c4c4c" x1="15.44" x2="23.69" y1="145.19" y2="145.19"/>
  <line fill="none" fill-opacity="0" id="svg_211" stroke="#4c4c4c" x1="23.94" x2="31.69" y1="62.69" y2="63.94"/>
  <line fill="none" fill-opacity="0" id="svg_212" stroke="#4c4c4c" x1="23.94" x2="32.19" y1="99.69" y2="100.94"/>
  <line fill="none" fill-opacity="0" id="svg_213" stroke="#4c4c4c" x1="23.94" x2="31.69" y1="135.19" y2="135.69"/>
  <line fill="none" fill-opacity="0" id="svg_214" stroke="#4c4c4c" x1="32.44" x2="50.19" y1="141.94" y2="142.44"/>
  <line fill="none" fill-opacity="0" id="svg_216" stroke="#4c4c4c" x1="243.19" x2="251.19" y1="27.44" y2="20.69"/>
  <line fill="none" fill-opacity="0" id="svg_217" stroke="#4c4c4c" x1="226.69" x2="234.94" y1="41.19" y2="37.19"/>
  <line fill="none" fill-opacity="0" id="svg_218" stroke="#4c4c4c" x1="200.94" x2="218.19" y1="74.94" y2="73.44"/>
  <line fill="none" fill-opacity="0" id="svg_219" stroke="#4c4c4c" x1="218.44" x2="226.69" y1="87.44" y2="86.69"/>
  <line fill="none" fill-opacity="0" id="svg_223" stroke="#4c4c4c" x1="200.19" x2="218.19" y1="142.19" y2="142.69"/>
  <line fill="none" fill-opacity="0" id="svg_224" stroke="#4c4c4c" x1="201.44" x2="218.19" y1="175.69" y2="176.69"/>
  <line fill="none" fill-opacity="0" id="svg_225" stroke="#4c4c4c" x1="218.69" x2="227.19" y1="121.69" y2="122.19"/>
  <line fill="none" fill-opacity="0" id="svg_226" stroke="#4c4c4c" x1="218.94" x2="226.44" y1="166.69" y2="167.44"/>
  <line fill="none" fill-opacity="0" id="svg_227" stroke="#4c4c4c" x1="226.44" x2="235.19" y1="67.19" y2="66.94"/>
  <path d="m227.19,108.44c1.31,0 2.21,0 3.1,0c0.89,0 1.74,0 2.68,0l1.88,0" fill="none" fill-opacity="0" id="svg_228" stroke="#4c4c4c"/>
  <line fill="none" fill-opacity="0" id="svg_229" stroke="#4c4c4c" x1="226.69" x2="234.69" y1="149.69" y2="150.69"/>
  <line fill="none" fill-opacity="0" id="svg_230" stroke="#4c4c4c" x1="226.69" x2="234.69" y1="203.69" y2="206.94"/>
  <line fill="none" fill-opacity="0" id="svg_231" stroke="#4c4c4c" x1="199.69" x2="218.44" y1="192.94" y2="204.44"/>
  <line fill="none" fill-opacity="0" id="svg_232" stroke="#4c4c4c" x1="243.19" x2="250.94" y1="226.69" y2="231.19"/>
  <line fill="none" fill-opacity="0" id="svg_233" stroke="#4c4c4c" x1="243.44" x2="250.69" y1="190.19" y2="192.19"/>
  <line fill="none" fill-opacity="0" id="svg_234" stroke="#4c4c4c" x1="243.69" x2="250.94" y1="154.94" y2="156.44"/>
  <line fill="none" fill-opacity="0" id="svg_235" stroke="#4c4c4c" x1="242.94" x2="250.94" y1="101.94" y2="102.69"/>
  <line fill="none" fill-opacity="0" id="svg_236" stroke="#4c4c4c" x1="235.19" x2="242.94" y1="81.94" y2="82.44"/>
  <line fill="none" fill-opacity="0" id="svg_237" stroke="#4c4c4c" x1="235.19" x2="242.44" y1="132.19" y2="133.44"/>
  <line fill="none" fill-opacity="0" id="svg_238" stroke="#4c4c4c" x1="235.44" x2="242.69" y1="195.19" y2="196.44"/>
  <line fill="none" fill-opacity="0" id="svg_239" stroke="#4c4c4c" x1="242.94" x2="250.94" y1="63.44" y2="63.94"/>
  <line fill="none" fill-opacity="0" id="svg_241" stroke="#4c4c4c" x1="29.69" x2="24.19" y1="242.69" y2="250.94"/>
  <line fill="none" fill-opacity="0" id="svg_242" stroke="#4c4c4c" x1="45.19" x2="49.19" y1="243.19" y2="234.69"/>
  <line fill="none" fill-opacity="0" id="svg_243" stroke="#4c4c4c" x1="79.44" x2="78.69" y1="242.69" y2="249.69"/>
  <line fill="none" fill-opacity="0" id="svg_244" stroke="#4c4c4c" x1="222.94" x2="228.44" y1="242.69" y2="249.94"/>
  <line fill="none" fill-opacity="0" id="svg_245" stroke="#4c4c4c" x1="197.44" x2="199.94" y1="226.94" y2="234.94"/>
  <line fill="none" fill-opacity="0" id="svg_246" stroke="#4c4c4c" x1="185.44" x2="183.44" y1="218.19" y2="200.19"/>
  <line fill="none" fill-opacity="0" id="svg_250" stroke="#4c4c4c" x1="65.19" x2="67.69" y1="234.69" y2="226.69"/>
  <line fill="none" fill-opacity="0" id="svg_251" stroke="#4c4c4c" x1="106.44" x2="107.44" y1="234.44" y2="226.69"/>
  <line fill="none" fill-opacity="0" id="svg_252" stroke="#4c4c4c" x1="167.19" x2="166.44" y1="234.19" y2="226.44"/>
  <line fill="none" fill-opacity="0" id="svg_253" stroke="#4c4c4c" x1="182.94" x2="185.44" y1="234.44" y2="242.44"/>
  <line fill="none" fill-opacity="0" id="svg_254" stroke="#4c4c4c" x1="152.44" x2="153.94" y1="243.19" y2="250.19"/>
  <line fill="none" fill-opacity="0" id="svg_255" stroke="#4c4c4c" x1="121.44" x2="121.69" y1="243.19" y2="249.44"/>
  <line fill="none" fill-opacity="0" id="svg_256" stroke="#4c4c4c" x1="85.69" x2="87.19" y1="226.44" y2="218.69"/>
  <line fill="none" fill-opacity="0" id="svg_257" stroke="#4c4c4c" x1="151.19" x2="150.69" y1="226.44" y2="218.69"/>
  <line fill="none" fill-opacity="0" id="svg_258" stroke="#4c4c4c" x1="68.19" x2="62.19" y1="198.44" y2="218.19"/>
  <line fill="none" fill-opacity="0" id="svg_259" stroke="#4c4c4c" x1="130.69" x2="129.69" y1="234.44" y2="243.19"/>
  <line fill="none" fill-opacity="0" id="svg_260" stroke="#4c4c4c" x1="99.69" x2="101.19" y1="218.19" y2="200.94"/>
  <line fill="none" fill-opacity="0" id="svg_261" stroke="#4c4c4c" x1="32.94" x2="39.94" y1="226.94" y2="218.19"/>
  <text fill="#515151" font-family="Cursive" font-size="4" id="svg_18" letter-spacing="0" opacity="0.25" stroke="#4c4c4c" stroke-width="0" text-anchor="middle" transform="matrix(1.25513 0.147763 -0.11692 0.993141 -9.06516 -27.8216)" word-spacing="0" x="185.6" xml:space="preserve" y="20.94">Maxut</text>
  <path d="m41.98,15.61c0,0 49.99,-0.26 50.51,-0.36c0.53,-0.11 0.23,7.07 0.25,7.74c0.02,0.67 -49.25,0.11 -49.25,0.11c0,0 -1.52,-7.48 -1.52,-7.48l0.01,-0.01z" fill="#000000" id="svg_8" stroke="#000000" stroke-opacity="0" transform="matrix(1 0 0 1 0 0)"/>
  <path d="m117.48,7.6c0,0 38.25,0.25 38.25,0.25c0,0 0,6.5 -0.23,6.4c-0.23,-0.1 -38.27,0.35 -38.27,0.35c0,0 0.25,-7 0.25,-7z" fill="#000000" id="svg_9" stroke="#000000" stroke-opacity="0" transform="matrix(1 0 0 1 0 0)"/>
  <path d="m28.73,243.1c0,0 -20.33,0.5 -20.33,0.5c0,0 -6.17,6.25 -6.17,6.25c0,0 22.38,-0.25 22.38,-0.25c0,0 4.12,-6.5 4.12,-6.5z" fill="#000000" id="svg_10" stroke="#000000" stroke-opacity="0"/>
  <path d="m219.23,121.1c0,0 7.5,0.25 7.5,0.25c0,0 -0.25,-34.25 -0.48,-34.35c-0.23,-0.1 -7.02,1.1 -7.02,1.1c0,0 0,33 0,33z" fill="#000000" id="svg_11" stroke="#000000" stroke-opacity="0" transform="matrix(1 0 0 1 0 0)"/>
  <path d="m6.84,94.47c0,0 0.12,37.37 0.12,37.37c0,0 -6.75,-0.5 -6.84,-0.59c-0.09,-0.09 -0.04,-37.66 -0.04,-37.66c0,0 6.75,0.88 6.75,0.88l0.01,0z" fill="#000000" id="svg_7" stroke="#000000" stroke-opacity="0"/>
  <path d="m15.59,234.58c0,0 7.75,-7.52 7.75,-7.52c0,0 0.13,-25.73 0.04,-25.81c-0.09,-0.08 -7.66,3.64 -7.66,3.64c0,0 -0.13,29.68 -0.13,29.68l0,0.01z" fill="#000000" id="svg_12" stroke="#000000" stroke-opacity="0" transform="matrix(1 0 0 1 0 0)"/>
  <rect fill="none" fill-opacity="0" height="235.25" id="svg_13" stroke="#4c4c4c" transform="matrix(1 0 0 1 0 0)" width="235.62" x="7.26" y="7.36"/>
  <path d="m182.85,235.3c0,0 2.01,7 2.01,7c0,0 -54.62,-0.13 -54.73,-0.18c-0.11,-0.05 1.11,-6.69 1.11,-6.69c0,0 51.61,-0.13 51.61,-0.13z" fill="#000000" id="svg_14" stroke="#000000" stroke-opacity="0"/>
  <path d="m227.6,204.65c0,0 6.88,2.75 6.88,2.75c0,0 0.25,25.13 0.25,25.13c0,0 -7.25,-7 -7.35,-7.03c-0.1,-0.03 0.22,-20.85 0.22,-20.85z" fill="#000000" id="svg_15" stroke="#000000" stroke-opacity="0"/>
  <path d="m243.29,7.99c0,0 8.13,-7.61 8.08,-7.62c-0.04,-0.01 -0.33,19.92 -0.38,19.91c-0.04,-0.01 -7.71,6.22 -7.71,6.22c0,0 0,-18.52 0,-18.52l0.01,0.01z" fill="#000000" id="svg_16" stroke="#000000" stroke-opacity="0"/>
  <path d="m65.82,234.4c0,0 2.25,-7.25 2.25,-7.25c0,0 38.63,0.13 38.63,0.13c0,0 -0.88,6.99 -0.88,6.99c0,0 -40,0.13 -40,0.13z" fill="#000000" id="svg_17" stroke="#000000" stroke-opacity="0" transform="matrix(1 0 0 1 0 0)"/>
  <path d="m227.42,108.92c0,0 7.17,-0.13 7.17,-0.13c0,0 0.65,41.38 0.65,41.38c0,0 -7.69,-0.75 -7.81,-0.79c-0.12,-0.04 -0.01,-27.46 -0.01,-27.46c0,0 -1.17,-0.88 -1.29,-0.92c-0.12,-0.04 -0.01,-11.96 -0.01,-11.96c0,0 1.3,-0.13 1.3,-0.13l0,0.01z" fill="#000000" id="svg_19" stroke="#000000" stroke-opacity="0"/>
  <path d="m6.97,214.85c0,0 -0.26,-37.32 -0.26,-37.32c0,0 -6.74,0.38 -6.7,0.35c0.03,-0.03 0.36,40.52 0.36,40.52c0,0 6.61,-3.55 6.61,-3.55l-0.01,0z" fill="#000000" id="svg_20" stroke="#000000" stroke-opacity="0" transform="matrix(1 0 0 1 0 0)"/>
  <rect fill="url(#svg_32)" height="50.68" id="svg_35" opacity="0.35" stroke="#000000" stroke-opacity="0" transform="matrix(0.00735376 0.772575 -1.01444 0.00292963 102.434 -22.5008)" width="38.5" x="48.7" y="9.48"/>
  <rect fill="url(#svg_32)" height="38.75" id="svg_36" opacity="0.35" stroke="#000000" stroke-opacity="0" transform="matrix(0 0.766871 -1 0 164.889 -81.5145)" width="40.25" x="116.36" y="8.78"/>
  <path d="m251.52,0.28c0,0 -32.13,-0.39 -32.36,-0.42c-0.24,-0.03 6.92,42.35 1.19,46.15c-5.73,3.8 31.05,-25.71 31.05,-25.71c0,0 0.13,-20.02 0.13,-20.02l-0.01,0z" fill="url(#svg_45)" id="svg_47" opacity="0.35" stroke="#000000" stroke-opacity="0" transform="rotate(-0.768478 235.337 23.1003)"/>
  <path d="m-3.06,96.15c0,0 15.14,0.3 15.05,0.29c-0.09,-0.02 -0.12,6.79 -0.21,6.77c-0.09,-0.02 -16.72,9.36 -14.73,0.08c1.99,-9.29 -0.12,-7.14 -0.12,-7.14l0.01,0z" fill="url(#svg_50)" id="svg_51" opacity="0.35" stroke="#000000" stroke-opacity="0" transform="rotate(-84.1945 4.46714 101.624)"/>
  <path d="m211.65,95.28l1.4,7.05l20.13,7.5c1.59,-2.32 4.94,-24.36 -1.22,-21.55c-6.16,2.81 -20.31,7 -20.31,7z" fill="url(#svg_54)" id="svg_53" opacity="0.35" stroke="#000000" stroke-opacity="0" transform="rotate(92.841 222.921 98.1028)"/>
 </g>
 <defs>
  <linearGradient id="svg_32" spreadMethod="pad" x1="0" x2="1" y1="0" y2="0">
   <stop id="jq_stop_5403" offset="0" stop-color="#ff0000"/>
   <stop id="jq_stop_4211" offset="1" stop-color="#000000" stop-opacity="0"/>
  </linearGradient>
  <linearGradient id="svg_45" spreadMethod="pad" x1="0" x2="1" y1="0" y2="0">
   <stop id="svg_23" offset="0" stop-color="#000000" stop-opacity="0"/>
   <stop id="svg_6" offset="1" stop-color="#ff0000"/>
   <stop id="jq_stop_1263" offset="1" stop-color="#000000" stop-opacity="0"/>
   <stop id="jq_stop_1078" offset="1.04" stop-color="0" stop-opacity="0"/>
  </linearGradient>
  <linearGradient id="svg_50" spreadMethod="pad" x1="1" x2="0" y1="0" y2="0">
   <stop id="svg_21" offset="0.05" stop-color="#ff0000"/>
   <stop id="svg_24" offset="1" stop-color="#000000" stop-opacity="0"/>
  </linearGradient>
  <linearGradient id="svg_54" spreadMethod="pad" x1="0" x2="1" y1="1" y2="1">
   <stop id="svg_22" offset="0.05" stop-color="#ff0000"/>
   <stop id="svg_25" offset="1" stop-color="#000000" stop-opacity="0"/>
  </linearGradient>
 </defs>
</svg>