<svg width="250" height="250" xmlns="http://www.w3.org/2000/svg">
 <g id="Layer_1">
  <title>Layer 1</title>
  <g>
   <g id="svg_1">
    <title>Layer 1</title>
    <rect fill="#333333" x="-0.5" y="0" width="50" height="249.99995" id="svg_5" stroke="null"/>
    <rect fill="#333333" x="200.5" y="0" width="50" height="249.99999" id="svg_4" stroke="null"/>
    <rect stroke="null" fill="#333333" x="48.69474" y="-0.91277" width="153.11368" height="50.91293" id="svg_3"/>
    <rect stroke="null" fill="#333333" x="47.97643" y="199.76175" width="153.73199" height="50.23217" id="svg_2"/>
    <g>
     <g id="svg_6">
      <title>Layer 1</title>
      <g id="svg_91">
       <line transform="rotate(-1.55327 222.767 27.8038)" stroke="#4c4c4c" id="svg_122" y2="0.7094" x2="251.92309" y1="54.89825" x1="193.61058" fill="none"/>
       <line id="svg_120" y2="248.96487" x2="250.44104" y1="198.73271" x1="199.27865" stroke="#4c4c4c" fill="none"/>
       <line id="svg_119" y2="251.75555" x2="-0.25467" y1="198.73271" x1="49.97749" stroke="#4c4c4c" fill="none"/>
       <line id="svg_118" y2="241.05796" x2="241.6039" y1="8.96676" x1="241.6039" stroke="#4c4c4c" fill="none"/>
       <line id="svg_117" y2="10.82721" x2="10.44292" y1="9.43187" x1="241.6039" stroke="#4c4c4c" fill="none"/>
       <line id="svg_116" y2="239.19751" x2="11.83826" y1="240.12773" x1="241.13879" stroke="#4c4c4c" fill="none"/>
       <line id="svg_115" y2="239.66262" x2="10.90803" y1="10.82721" x1="11.37315" stroke="#4c4c4c" fill="none"/>
       <line id="svg_114" y2="17.33878" x2="232.76676" y1="19.19924" x1="19.28006" stroke="#4c4c4c" fill="none"/>
       <line id="svg_113" y2="16.87367" x2="232.76676" y1="227.10458" x1="227.65052" stroke="#4c4c4c" fill="none"/>
       <line id="svg_112" y2="18.73412" x2="20.6754" y1="225.24413" x1="23.46608" stroke="#4c4c4c" fill="none"/>
       <line id="svg_111" y2="227.10458" x2="23.00096" y1="225.24413" x1="226.25518" stroke="#4c4c4c" fill="none"/>
       <line id="svg_110" y2="27.10615" x2="222.06917" y1="29.43171" x1="29.04743" stroke="#4c4c4c" fill="none"/>
       <line transform="rotate(-0.0151855 124.395 213.849)" stroke="#4c4c4c" id="svg_109" y2="214.08167" x2="33.69855" y1="213.61607" x1="215.09249" fill="none"/>
       <line id="svg_108" y2="214.54654" x2="33.69855" y1="28.50149" x1="29.97765" stroke="#4c4c4c" fill="none"/>
       <line id="svg_107" y2="214.08143" x2="215.55759" y1="26.64104" x1="222.06917" stroke="#4c4c4c" fill="none"/>
       <line id="svg_106" y2="37.33863" x2="211.83669" y1="39.19908" x1="40.21013" stroke="#4c4c4c" fill="none"/>
       <line id="svg_105" y2="206.17451" x2="206.72045" y1="36.87351" x1="210.90646" stroke="#4c4c4c" fill="none"/>
       <line stroke="#4c4c4c" id="svg_104" y2="206.17451" x2="42.07058" y1="39.19908" x1="41.14035" fill="none"/>
       <line stroke="#4c4c4c" id="svg_103" y2="206.17451" x2="42.53569" y1="204.31406" x1="207.18557" fill="none"/>
       <line id="svg_102" y2="214.43127" x2="66.05033" y1="226.19598" x1="60.90327" stroke="#4c4c4c" fill="none"/>
       <line id="svg_101" y2="226.19598" x2="138.4768" y1="239.06363" x1="142.15327" stroke="#4c4c4c" fill="none"/>
       <line id="svg_100" y2="205.2401" x2="181.12386" y1="213.32833" x1="186.27092" stroke="#4c4c4c" fill="none"/>
       <line id="svg_99" y2="225.09304" x2="172.30033" y1="213.32833" x1="167.52092" stroke="#4c4c4c" fill="none"/>
       <line id="svg_98" y2="213.28748" x2="104.65327" y1="226.15513" x1="102.81503" stroke="#4c4c4c" fill="none"/>
       <line id="svg_97" y2="251.89042" x2="178.18268" y1="240.12572" x1="173.40327" stroke="#4c4c4c" fill="none"/>
       <line id="svg_96" y2="240.12572" x2="203.55033" y1="226.15513" x1="196.19739" stroke="#4c4c4c" fill="none"/>
       <line id="svg_95" y2="239.02278" x2="76.34445" y1="226.15513" x1="80.38856" stroke="#4c4c4c" fill="none"/>
       <line id="svg_94" y2="252.62572" x2="41.78562" y1="238.65513" x1="46.93268" stroke="#4c4c4c" fill="none"/>
       <line id="svg_93" y2="204.8316" x2="130.38856" y1="213.28748" x1="130.38856" stroke="#4c4c4c" fill="none"/>
       <line id="svg_92" y2="205.19925" x2="81.85915" y1="213.65513" x1="79.65327" stroke="#4c4c4c" fill="none"/>
      </g>
      <path transform="rotate(1.13946 23.9312 23.0176)" id="svg_90" d="m-2.15225,-2.11199l52.16688,50.25918" opacity="undefined" stroke="#4c4c4c" fill="none"/>
      <line id="svg_89" y2="250.78748" x2="110.16798" y1="238.65513" x1="110.90327" stroke="#4c4c4c" fill="none"/>
      <line id="svg_88" y2="-1.54095" x2="35.90327" y1="9.85611" x1="40.31504" stroke="#4c4c4c" fill="none"/>
      <line id="svg_87" y2="17.94434" x2="60.16798" y1="9.48846" x1="58.69739" stroke="#4c4c4c" fill="none"/>
      <line id="svg_86" y2="28.23846" x2="48.03562" y1="17.94434" x1="42.52092" stroke="#4c4c4c" fill="none"/>
      <line id="svg_85" y2="37.79728" x2="71.19739" y1="28.23846" x1="68.25621" stroke="#4c4c4c" fill="none"/>
      <line id="svg_84" y2="17.94434" x2="82.59445" y1="27.87081" x1="85.53562" stroke="#4c4c4c" fill="none"/>
      <line id="svg_83" y2="9.48846" x2="100.60915" y1="17.5767" x1="102.81503" stroke="#4c4c4c" fill="none"/>
      <line id="svg_82" y2="-1.54095" x2="81.85915" y1="9.48846" x1="85.53562" stroke="#4c4c4c" fill="none"/>
      <line id="svg_81" y2="17.5767" x2="120.82974" y1="27.50317" x1="123.03562" stroke="#4c4c4c" fill="none"/>
      <line id="svg_80" y2="16.8414" x2="154.65327" y1="26.76787" x1="155.75621" stroke="#4c4c4c" fill="none"/>
      <line id="svg_79" y2="16.8414" x2="176.34445" y1="26.76787" x1="176.71209" stroke="#4c4c4c" fill="none"/>
      <line id="svg_78" y2="16.47375" x2="203.18268" y1="26.40022" x1="201.71209" stroke="#4c4c4c" fill="none"/>
      <path id="svg_77" d="m105.02092,27.87081l2.57353,9.92647" opacity="undefined" stroke="#4c4c4c" fill="none"/>
      <line id="svg_76" y2="9.12081" x2="136.27092" y1="17.20905" x1="137.37386" stroke="#4c4c4c" fill="none"/>
      <line id="svg_75" y2="-1.1733" x2="125.9768" y1="9.48846" x1="126.71209" stroke="#4c4c4c" fill="none"/>
      <line id="svg_74" y2="-1.9086" x2="162.37386" y1="8.75317" x1="162.37386" stroke="#4c4c4c" fill="none"/>
      <line id="svg_73" y2="-0.80566" x2="197.30033" y1="8.75317" x1="195.46209" stroke="#4c4c4c" fill="none"/>
      <line id="svg_72" y2="16.47375" x2="181.4915" y1="9.12081" x1="181.85915" stroke="#4c4c4c" fill="none"/>
      <line id="svg_71" y2="36.69434" x2="139.21209" y1="27.13552" x1="138.84445" stroke="#4c4c4c" fill="none"/>
      <line id="svg_70" y2="36.69434" x2="172.30033" y1="26.76787" x1="171.56503" stroke="#4c4c4c" fill="none"/>
      <line stroke="#4c4c4c" id="svg_69" y2="36.69434" x2="203.18268" y1="26.76787" x1="205.75621" fill="none"/>
      <line id="svg_68" y2="8.75317" x2="217.15327" y1="16.47375" x1="215.68268" stroke="#4c4c4c" fill="none"/>
      <line id="svg_67" y2="21.62081" x2="-0.12614" y1="26.76787" x1="10.90327" stroke="#4c4c4c" fill="none"/>
      <line id="svg_66" y2="46.98846" x2="-0.12614" y1="46.62081" x1="10.90327" stroke="#4c4c4c" fill="none"/>
      <line id="svg_65" y2="71.98846" x2="0.60915" y1="72.35611" x1="10.53562" stroke="#4c4c4c" fill="none"/>
      <line id="svg_64" y2="95.88552" x2="-0.86143" y1="96.98846" x1="10.90327" stroke="#4c4c4c" fill="none"/>
      <line id="svg_63" y2="120.51787" x2="0.24151" y1="120.51787" x1="10.53562" stroke="#4c4c4c" fill="none"/>
      <line id="svg_62" y2="143.76134" x2="1.34445" y1="144.12898" x1="10.53562" stroke="#4c4c4c" fill="none"/>
      <line id="svg_61" y2="167.6584" x2="0.24151" y1="167.29075" x1="10.53562" stroke="#4c4c4c" fill="none"/>
      <line id="svg_60" y2="186.4084" x2="1.71209" y1="185.30545" x1="10.16798" stroke="#4c4c4c" fill="none"/>
      <line id="svg_59" y2="210.6731" x2="0.60915" y1="206.62898" x1="10.16798" stroke="#4c4c4c" fill="none"/>
      <line id="svg_58" y2="36.73519" x2="20.46209" y1="34.89696" x1="10.53562" stroke="#4c4c4c" fill="none"/>
      <line id="svg_57" y2="60.9999" x2="20.82974" y1="60.9999" x1="10.90327" stroke="#4c4c4c" fill="none"/>
      <line id="svg_56" y2="83.42637" x2="20.82974" y1="84.52931" x1="10.53562" stroke="#4c4c4c" fill="none"/>
      <line id="svg_55" y2="107.69108" x2="21.93268" y1="107.69108" x1="10.16798" stroke="#4c4c4c" fill="none"/>
      <line id="svg_54" y2="131.58813" x2="21.93268" y1="132.32343" x1="10.16798" stroke="#4c4c4c" fill="none"/>
      <line id="svg_53" y2="153.64696" x2="21.93268" y1="156.22049" x1="10.16798" stroke="#4c4c4c" fill="none"/>
      <line id="svg_52" y2="172.7646" x2="21.93268" y1="175.33813" x1="10.53562" stroke="#4c4c4c" fill="none"/>
      <line id="svg_51" y2="192.2499" x2="22.66798" y1="195.19107" x1="10.90327" stroke="#4c4c4c" fill="none"/>
      <line id="svg_50" y2="214.67637" x2="22.66798" y1="221.29401" x1="10.53562" stroke="#4c4c4c" fill="none"/>
      <line id="svg_49" y2="48.86755" x2="29.65327" y1="48.13225" x1="20.46209" stroke="#4c4c4c" fill="none"/>
      <line id="svg_48" y2="71.66166" x2="30.75621" y1="71.66166" x1="21.19739" stroke="#4c4c4c" fill="none"/>
      <line id="svg_47" y2="95.19108" x2="30.75621" y1="95.92637" x1="21.93268" stroke="#4c4c4c" fill="none"/>
      <line id="svg_46" y2="117.98519" x2="30.75621" y1="118.35284" x1="21.56504" stroke="#4c4c4c" fill="none"/>
      <line id="svg_45" y2="139.30872" x2="31.12386" y1="141.5146" x1="21.93268" stroke="#4c4c4c" fill="none"/>
      <line id="svg_44" y2="158.42637" x2="31.85915" y1="162.10284" x1="21.93268" stroke="#4c4c4c" fill="none"/>
      <line id="svg_43" y2="179.38225" x2="31.85915" y1="181.95578" x1="23.03562" stroke="#4c4c4c" fill="none"/>
      <line id="svg_42" y2="200.70578" x2="32.96209" y1="205.48519" x1="23.03562" stroke="#4c4c4c" fill="none"/>
      <line id="svg_41" y2="58.05872" x2="41.05033" y1="58.42637" x1="30.02092" stroke="#4c4c4c" fill="none"/>
      <line id="svg_40" y2="81.22049" x2="41.05033" y1="82.69108" x1="30.75621" stroke="#4c4c4c" fill="none"/>
      <line id="svg_39" y2="105.85284" x2="41.05033" y1="106.58813" x1="31.12386" stroke="#4c4c4c" fill="none"/>
      <line id="svg_38" y2="126.07343" x2="41.05033" y1="127.17637" x1="31.49151" stroke="#4c4c4c" fill="none"/>
      <line id="svg_37" y2="146.29402" x2="41.05033" y1="147.7646" x1="31.49151" stroke="#4c4c4c" fill="none"/>
      <line id="svg_36" y2="167.61754" x2="41.05033" y1="168.35284" x1="32.2268" stroke="#4c4c4c" fill="none"/>
      <line id="svg_35" y2="186.36754" x2="41.05033" y1="187.83813" x1="32.59445" stroke="#4c4c4c" fill="none"/>
      <line id="svg_34" y2="51.80872" x2="220.82974" y1="52.54402" x1="210.16797" stroke="#4c4c4c" fill="none"/>
      <line id="svg_33" y2="76.07343" x2="220.09445" y1="76.80872" x1="209.43268" stroke="#4c4c4c" fill="none"/>
      <line id="svg_32" y2="98.4999" x2="218.9915" y1="97.7646" x1="208.69739" stroke="#4c4c4c" fill="none"/>
      <line id="svg_31" y2="118.72049" x2="218.62386" y1="119.45578" x1="208.32974" stroke="#4c4c4c" fill="none"/>
      <path id="svg_30" d="m207.96209,142.2499l9.55882,1.47059" opacity="undefined" stroke="#4c4c4c" fill="none"/>
      <line id="svg_29" y2="162.83813" x2="217.15327" y1="165.04402" x1="207.2268" stroke="#4c4c4c" fill="none"/>
      <path id="svg_28" d="m220.82974,63.94108l10.29412,0.73529" opacity="undefined" stroke="#4c4c4c" fill="none"/>
      <line id="svg_27" y2="90.41166" x2="230.38856" y1="91.14696" x1="219.35915" stroke="#4c4c4c" fill="none"/>
      <line id="svg_26" y2="110.9999" x2="230.38856" y1="111.73519" x1="218.25621" stroke="#4c4c4c" fill="none"/>
      <line stroke="#4c4c4c" id="svg_25" y2="132.32343" x2="229.28562" y1="131.58813" x1="218.9915" fill="none"/>
      <line id="svg_24" y2="155.48519" x2="228.91797" y1="155.48519" x1="217.15327" stroke="#4c4c4c" fill="none"/>
      <line id="svg_23" y2="192.2499" x2="216.05033" y1="190.77931" x1="206.85915" stroke="#4c4c4c" fill="none"/>
      <line id="svg_22" y2="179.7499" x2="228.18268" y1="179.7499" x1="216.05033" stroke="#4c4c4c" fill="none"/>
      <line id="svg_21" y2="204.38225" x2="227.81503" y1="200.70578" x1="215.68268" stroke="#4c4c4c" fill="none"/>
      <line id="svg_20" y2="29.7499" x2="232.2268" y1="34.89696" x1="221.19739" stroke="#4c4c4c" fill="none"/>
      <line id="svg_19" y2="197.7646" x2="241.41797" y1="196.66166" x1="227.81503" stroke="#4c4c4c" fill="none"/>
      <line id="svg_18" y2="163.20578" x2="241.05033" y1="165.04402" x1="228.91797" stroke="#4c4c4c" fill="none"/>
      <line id="svg_17" y2="137.10284" x2="241.41797" y1="138.20578" x1="229.65327" stroke="#4c4c4c" fill="none"/>
      <line id="svg_16" y2="113.57343" x2="241.05033" y1="115.41166" x1="229.65327" stroke="#4c4c4c" fill="none"/>
      <line id="svg_15" y2="84.52931" x2="241.05033" y1="83.42637" x1="230.75621" stroke="#4c4c4c" fill="none"/>
      <line id="svg_14" y2="55.11755" x2="241.78562" y1="56.22049" x1="231.12386" stroke="#4c4c4c" fill="none"/>
      <line id="svg_13" y2="23.13225" x2="250.9768" y1="26.44108" x1="241.05033" stroke="#4c4c4c" fill="none"/>
      <line id="svg_12" y2="65.41166" x2="250.60915" y1="66.14696" x1="241.05033" stroke="#4c4c4c" fill="none"/>
      <line id="svg_11" y2="95.92637" x2="250.60915" y1="95.55872" x1="241.05033" stroke="#4c4c4c" fill="none"/>
      <line id="svg_10" y2="124.23519" x2="250.60915" y1="125.33813" x1="241.05033" stroke="#4c4c4c" fill="none"/>
      <line id="svg_9" y2="151.07343" x2="250.60915" y1="152.54402" x1="241.05033" stroke="#4c4c4c" fill="none"/>
      <line id="svg_8" y2="178.64696" x2="250.60915" y1="180.48519" x1="241.05033" stroke="#4c4c4c" fill="none"/>
      <line id="svg_7" y2="214.67637" x2="250.9768" y1="216.5146" x1="241.05033" stroke="#4c4c4c" fill="none"/>
     </g>
    </g>
   </g>
  </g>
 </g>

</svg>