<?xml version="1.0"?>
<svg width="250.00000000000003" height="250.00000000000003" xmlns="http://www.w3.org/2000/svg" xmlns:svg="http://www.w3.org/2000/svg">
 <g class="layer" id="Layer_1">
  <title>Layer 1</title>
  <g id="svg_121">
   <g id="svg_1">
    <title>Layer 1</title>
    <rect fill="#333333" height="250" id="svg_5" width="50" x="0.08" y="0.11"/>
    <rect fill="#333333" height="250" id="svg_4" width="50" x="201.33" y="0.11"/>
    <rect fill="#333333" height="50.91" id="svg_3" width="153.11" x="49.27" y="0.2"/>
    <rect fill="#333333" height="50.23" id="svg_2" width="153.73" x="48.81" y="199.87"/>
    <line fill="none" fill-opacity="0" id="svg_132" stroke="#4c4c4c" x1="50.21" x2="-0.04" y1="51.11" y2="0.36"/>
    <line fill="none" fill-opacity="0" id="svg_133" stroke="#4c4c4c" x1="251.31" x2="200.56" y1="250.25" y2="200.25"/>
    <line fill="none" fill-opacity="0" id="svg_134" stroke="#4c4c4c" x1="200.86" x2="250.96" y1="50.93" y2="0.16"/>
    <line fill="none" fill-opacity="0" id="svg_135" stroke="#4c4c4c" x1="0.31" x2="50.31" y1="251" y2="199.75"/>
   </g>
  </g>
  <rect fill="none" fill-opacity="0" height="235.75" id="svg_136" stroke="#4c4c4c" transform="matrix(1 0 0 1 0 0)" width="235.75" x="7.46" y="7.26"/>
  <rect fill="none" fill-opacity="0" height="220" id="svg_137" stroke="#4c4c4c" width="220" x="15.21" y="14.96"/>
  <rect fill="none" fill-opacity="0" height="203" id="svg_138" stroke="#4c4c4c" width="203" x="23.96" y="23.76"/>
  <rect fill="none" fill-opacity="0" height="186.5" id="svg_139" stroke="#4c4c4c" width="186.5" x="32.21" y="32.01"/>
  <line fill="none" fill-opacity="0" id="svg_165" stroke="#4c4c4c" x1="35.94" x2="34.19" y1="7.69" y2="-0.31"/>
  <line fill="none" fill-opacity="0" id="svg_166" stroke="#4c4c4c" x1="71.69" x2="70.94" y1="14.44" y2="7.44"/>
  <line fill="none" fill-opacity="0" id="svg_167" stroke="#4c4c4c" x1="42.94" x2="41.19" y1="23.44" y2="14.94"/>
  <line fill="none" fill-opacity="0" id="svg_168" stroke="#4c4c4c" x1="60.19" x2="57.94" y1="50.44" y2="31.69"/>
  <line fill="none" fill-opacity="0" id="svg_169" stroke="#4c4c4c" x1="68.19" x2="67.94" y1="31.44" y2="23.69"/>
  <line fill="none" fill-opacity="0" id="svg_171" stroke="#4c4c4c" x1="92.94" x2="92.94" y1="23.19" y2="14.69"/>
  <line fill="none" fill-opacity="0" id="svg_172" stroke="#4c4c4c" x1="116.69" x2="117.19" y1="14.69" y2="7.19"/>
  <line fill="none" fill-opacity="0" id="svg_173" stroke="#4c4c4c" x1="93.69" x2="93.94" y1="7.19" y2="-0.06"/>
  <line fill="none" fill-opacity="0" id="svg_174" stroke="#4c4c4c" x1="138.44" x2="138.94" y1="6.94" y2="-0.06"/>
  <line fill="none" fill-opacity="0" id="svg_175" stroke="#4c4c4c" x1="155.94" x2="156.44" y1="14.69" y2="7.19"/>
  <line fill="none" fill-opacity="0" id="svg_176" stroke="#4c4c4c" x1="180.69" x2="181.44" y1="6.94" y2="-0.06"/>
  <line fill="none" fill-opacity="0" id="svg_177" stroke="#4c4c4c" x1="216.19" x2="218.69" y1="6.94" y2="-0.56"/>
  <line fill="none" fill-opacity="0" id="svg_178" stroke="#4c4c4c" x1="200.44" x2="202.69" y1="14.69" y2="6.69"/>
  <line fill="none" fill-opacity="0" id="svg_179" stroke="#4c4c4c" x1="127.44" x2="127.69" y1="32.19" y2="23.69"/>
  <line fill="none" fill-opacity="0" id="svg_180" stroke="#4c4c4c" x1="163.19" x2="163.69" y1="31.44" y2="23.69"/>
  <line fill="none" fill-opacity="0" id="svg_181" stroke="#4c4c4c" x1="203.19" x2="205.19" y1="31.94" y2="23.94"/>
  <line fill="none" fill-opacity="0" id="svg_182" stroke="#4c4c4c" x1="177.94" x2="179.44" y1="23.94" y2="14.94"/>
  <line fill="none" fill-opacity="0" id="svg_186" stroke="#4c4c4c" x1="101.69" x2="101.19" y1="31.94" y2="50.19"/>
  <line fill="none" fill-opacity="0" id="svg_187" stroke="#4c4c4c" x1="148.19" x2="148.69" y1="31.94" y2="50.44"/>
  <line fill="none" fill-opacity="0" id="svg_188" stroke="#4c4c4c" x1="7.44" x2="-0.81" y1="24.19" y2="17.44"/>
  <line fill="none" fill-opacity="0" id="svg_189" stroke="#4c4c4c" x1="23.69" x2="14.94" y1="40.19" y2="35.69"/>
  <line fill="none" fill-opacity="0" id="svg_191" stroke="#4c4c4c" x1="-0.06" x2="6.94" y1="55.94" y2="58.19"/>
  <line fill="none" fill-opacity="0" id="svg_192" stroke="#4c4c4c" x1="15.19" x2="23.44" y1="69.69" y2="71.94"/>
  <line fill="none" fill-opacity="0" id="svg_193" stroke="#4c4c4c" x1="32.19" x2="49.94" y1="86.19" y2="90.69"/>
  <line fill="none" fill-opacity="0" id="svg_197" stroke="#4c4c4c" x1="-0.31" x2="7.69" y1="219.19" y2="214.44"/>
  <line fill="none" fill-opacity="0" id="svg_198" stroke="#4c4c4c" x1="15.44" x2="23.69" y1="204.44" y2="200.69"/>
  <line fill="none" fill-opacity="0" id="svg_199" stroke="#4c4c4c" x1="32.19" x2="49.94" y1="190.19" y2="187.44"/>
  <line fill="none" fill-opacity="0" id="svg_200" stroke="#4c4c4c" x1="23.94" x2="31.44" y1="176.44" y2="176.19"/>
  <line fill="none" fill-opacity="0" id="svg_201" stroke="#4c4c4c" x1="7.19" x2="-0.06" y1="177.19" y2="177.69"/>
  <line fill="none" fill-opacity="0" id="svg_202" stroke="#4c4c4c" x1="7.69" x2="15.19" y1="193.44" y2="192.19"/>
  <line fill="none" fill-opacity="0" id="svg_203" stroke="#4c4c4c" x1="7.69" x2="15.19" y1="155.69" y2="154.94"/>
  <line fill="none" fill-opacity="0" id="svg_204" stroke="#4c4c4c" x1="7.19" x2="15.19" y1="124.94" y2="125.69"/>
  <line fill="none" fill-opacity="0" id="svg_205" stroke="#4c4c4c" x1="7.44" x2="14.94" y1="48.94" y2="50.69"/>
  <line fill="none" fill-opacity="0" id="svg_206" stroke="#4c4c4c" x1="7.44" x2="14.94" y1="85.94" y2="86.94"/>
  <line fill="none" fill-opacity="0" id="svg_207" stroke="#4c4c4c" x1="7.19" x2="-0.06" y1="132.44" y2="131.69"/>
  <line fill="none" fill-opacity="0" id="svg_208" stroke="#4c4c4c" x1="7.19" x2="-0.06" y1="94.19" y2="93.19"/>
  <line fill="none" fill-opacity="0" id="svg_209" stroke="#4c4c4c" x1="15.19" x2="23.44" y1="108.69" y2="109.44"/>
  <line fill="none" fill-opacity="0" id="svg_210" stroke="#4c4c4c" x1="15.44" x2="23.69" y1="145.19" y2="145.19"/>
  <line fill="none" fill-opacity="0" id="svg_211" stroke="#4c4c4c" x1="23.94" x2="31.69" y1="62.69" y2="63.94"/>
  <line fill="none" fill-opacity="0" id="svg_212" stroke="#4c4c4c" x1="23.94" x2="32.19" y1="99.69" y2="100.94"/>
  <line fill="none" fill-opacity="0" id="svg_213" stroke="#4c4c4c" x1="23.94" x2="31.69" y1="135.19" y2="135.69"/>
  <line fill="none" fill-opacity="0" id="svg_214" stroke="#4c4c4c" x1="32.44" x2="50.19" y1="141.94" y2="142.44"/>
  <line fill="none" fill-opacity="0" id="svg_216" stroke="#4c4c4c" x1="243.19" x2="251.19" y1="27.44" y2="20.69"/>
  <line fill="none" fill-opacity="0" id="svg_217" stroke="#4c4c4c" x1="226.69" x2="234.94" y1="41.19" y2="37.19"/>
  <line fill="none" fill-opacity="0" id="svg_218" stroke="#4c4c4c" x1="200.94" x2="218.19" y1="74.94" y2="73.44"/>
  <line fill="none" fill-opacity="0" id="svg_219" stroke="#4c4c4c" x1="218.44" x2="226.69" y1="87.44" y2="86.69"/>
  <line fill="none" fill-opacity="0" id="svg_223" stroke="#4c4c4c" x1="200.19" x2="218.19" y1="142.19" y2="142.69"/>
  <line fill="none" fill-opacity="0" id="svg_224" stroke="#4c4c4c" x1="201.44" x2="218.19" y1="175.69" y2="176.69"/>
  <line fill="none" fill-opacity="0" id="svg_225" stroke="#4c4c4c" x1="218.69" x2="227.19" y1="121.69" y2="122.19"/>
  <line fill="none" fill-opacity="0" id="svg_226" stroke="#4c4c4c" x1="218.94" x2="226.44" y1="166.69" y2="167.44"/>
  <line fill="none" fill-opacity="0" id="svg_227" stroke="#4c4c4c" x1="226.44" x2="235.19" y1="67.19" y2="66.94"/>
  <path d="m227.19,108.44c1.31,0 2.21,0 3.1,0c0.89,0 1.74,0 2.68,0l1.88,0" fill="none" fill-opacity="0" id="svg_228" stroke="#4c4c4c"/>
  <line fill="none" fill-opacity="0" id="svg_229" stroke="#4c4c4c" x1="226.69" x2="234.69" y1="149.69" y2="150.69"/>
  <line fill="none" fill-opacity="0" id="svg_230" stroke="#4c4c4c" x1="226.69" x2="234.69" y1="203.69" y2="206.94"/>
  <line fill="none" fill-opacity="0" id="svg_231" stroke="#4c4c4c" x1="199.69" x2="218.44" y1="192.94" y2="204.44"/>
  <line fill="none" fill-opacity="0" id="svg_232" stroke="#4c4c4c" x1="243.19" x2="250.94" y1="226.69" y2="231.19"/>
  <line fill="none" fill-opacity="0" id="svg_233" stroke="#4c4c4c" x1="243.44" x2="250.69" y1="190.19" y2="192.19"/>
  <line fill="none" fill-opacity="0" id="svg_234" stroke="#4c4c4c" x1="243.69" x2="250.94" y1="154.94" y2="156.44"/>
  <line fill="none" fill-opacity="0" id="svg_235" stroke="#4c4c4c" x1="242.94" x2="250.94" y1="101.94" y2="102.69"/>
  <line fill="none" fill-opacity="0" id="svg_236" stroke="#4c4c4c" x1="235.19" x2="242.94" y1="81.94" y2="82.44"/>
  <line fill="none" fill-opacity="0" id="svg_237" stroke="#4c4c4c" x1="235.19" x2="242.44" y1="132.19" y2="133.44"/>
  <line fill="none" fill-opacity="0" id="svg_238" stroke="#4c4c4c" x1="235.44" x2="242.69" y1="195.19" y2="196.44"/>
  <line fill="none" fill-opacity="0" id="svg_239" stroke="#4c4c4c" x1="242.94" x2="250.94" y1="63.44" y2="63.94"/>
  <line fill="none" fill-opacity="0" id="svg_241" stroke="#4c4c4c" x1="29.69" x2="24.19" y1="242.69" y2="250.94"/>
  <line fill="none" fill-opacity="0" id="svg_242" stroke="#4c4c4c" x1="45.19" x2="49.19" y1="243.19" y2="234.69"/>
  <line fill="none" fill-opacity="0" id="svg_243" stroke="#4c4c4c" x1="79.44" x2="78.69" y1="242.69" y2="249.69"/>
  <line fill="none" fill-opacity="0" id="svg_244" stroke="#4c4c4c" x1="222.94" x2="228.44" y1="242.69" y2="249.94"/>
  <line fill="none" fill-opacity="0" id="svg_245" stroke="#4c4c4c" x1="197.44" x2="199.94" y1="226.94" y2="234.94"/>
  <line fill="none" fill-opacity="0" id="svg_246" stroke="#4c4c4c" x1="185.44" x2="183.44" y1="218.19" y2="200.19"/>
  <line fill="none" fill-opacity="0" id="svg_250" stroke="#4c4c4c" x1="65.19" x2="67.69" y1="234.69" y2="226.69"/>
  <line fill="none" fill-opacity="0" id="svg_251" stroke="#4c4c4c" x1="106.44" x2="107.44" y1="234.44" y2="226.69"/>
  <line fill="none" fill-opacity="0" id="svg_252" stroke="#4c4c4c" x1="167.19" x2="166.44" y1="234.19" y2="226.44"/>
  <line fill="none" fill-opacity="0" id="svg_253" stroke="#4c4c4c" x1="182.94" x2="185.44" y1="234.44" y2="242.44"/>
  <line fill="none" fill-opacity="0" id="svg_254" stroke="#4c4c4c" x1="152.44" x2="153.94" y1="243.19" y2="250.19"/>
  <line fill="none" fill-opacity="0" id="svg_255" stroke="#4c4c4c" x1="121.44" x2="121.69" y1="243.19" y2="249.44"/>
  <line fill="none" fill-opacity="0" id="svg_256" stroke="#4c4c4c" x1="85.69" x2="87.19" y1="226.44" y2="218.69"/>
  <line fill="none" fill-opacity="0" id="svg_257" stroke="#4c4c4c" x1="151.19" x2="150.69" y1="226.44" y2="218.69"/>
  <line fill="none" fill-opacity="0" id="svg_258" stroke="#4c4c4c" x1="68.19" x2="62.19" y1="198.44" y2="218.19"/>
  <line fill="none" fill-opacity="0" id="svg_259" stroke="#4c4c4c" x1="130.69" x2="129.69" y1="234.44" y2="243.19"/>
  <line fill="none" fill-opacity="0" id="svg_260" stroke="#4c4c4c" x1="99.69" x2="101.19" y1="218.19" y2="200.94"/>
  <line fill="none" fill-opacity="0" id="svg_261" stroke="#4c4c4c" x1="32.94" x2="39.94" y1="226.94" y2="218.19"/>
  <text fill="#515151" font-family="Cursive" font-size="4" id="svg_18" letter-spacing="0" opacity="0.25" stroke="#4c4c4c" stroke-width="0" text-anchor="middle" transform="matrix(1.25513 0.147763 -0.11692 0.993141 -9.06516 -27.8216)" word-spacing="0" x="185.6" xml:space="preserve" y="20.94">Maxut</text>
  <path d="m24.56,36.09c-0.25,-1.61 -0.28,-2.51 0.12,-3.26c0.39,-0.74 0.83,-1.49 0.62,-2.35c-0.19,-0.82 -0.81,-1.43 -1,-2.21c-0.21,-0.86 -0.66,-2.07 -0.08,-2.31c0.73,-0.31 1.08,1.1 1.63,1.79c0.53,0.66 1.19,1.2 1.81,1.8c0.57,0.55 1.26,1.07 1.83,1.71l0.57,0.5" fill="none" fill-opacity="0" id="svg_16" stroke="#336303"/>
  <path d="m30.81,136.34c-1.2,0 -2.1,0 -2.97,0c-0.9,0 -1.87,-0.35 -2.67,0c-0.65,0.29 -0.85,1.3 -0.85,2.21c0,0.9 0,1.78 0,2.67c0,0.89 -0.14,1.79 0,2.66c0.13,0.78 0.23,1.92 1.06,1.83c0.79,-0.08 1.47,-0.29 1.6,0.58l0.69,-0.25l0.57,-0.68l0.83,0.14" fill="none" fill-opacity="0" id="svg_17" stroke="#336303"/>
  <path d="m27.31,175.34c-1.29,0 -2.31,0.27 -3.02,-0.21c-0.66,-0.44 -0.55,-1.52 -0.35,-2.39c0.17,-0.75 -0.03,-1.84 0.56,-2.32c0.69,-0.56 1.75,-0.07 2.45,0.3l0.64,-0.48" fill="none" fill-opacity="0" id="svg_19" stroke="#336303"/>
  <path d="m23.44,187.59c-0.25,-1.13 -0.19,-2.1 -0.25,-3c-0.06,-0.87 -0.25,-1.73 -0.25,-2.61c0,-0.91 0,-1.79 0,-2.67c0,-0.9 -0.05,-1.8 0.13,-2.62c0.18,-0.84 0.38,-1.65 0.38,-2.56c0,-0.89 -0.16,-1.74 -0.25,-2.57c-0.1,-0.87 0.25,-1.71 0.25,-2.58c0,-0.89 -0.25,-1.72 -0.38,-2.58c-0.13,-0.87 0.04,-1.73 0.39,-2.5c0.33,-0.72 0.33,-1.61 0.15,-2.43c-0.19,-0.84 -0.43,-1.66 -0.65,-2.5c-0.21,-0.81 -0.44,-1.68 -0.37,-2.58c0.06,-0.86 0.12,-1.74 0.12,-2.64c0,-0.88 0.12,-1.75 0.24,-2.51c0.15,-0.89 0.04,-1.81 0.26,-2.62c0.23,-0.83 0.45,-1.41 0.25,-2.21l-0.41,-0.72l-0.09,-0.86l0.34,-0.72" fill="none" fill-opacity="0" id="svg_20" stroke="#336303"/>
  <path d="m32.56,226.09c-1.19,0 -2.07,0 -2.95,0c-0.89,0 -1.77,-0.06 -2.61,-0.13c-0.9,-0.07 -1.25,-0.15 -0.63,-0.64c0.62,-0.49 1.23,-0.92 1.84,-1.38c0.72,-0.53 1.22,-0.94 1.48,-1.76c0.24,-0.74 -0.42,-0.42 -1.04,0.15l-0.73,0.38" fill="none" fill-opacity="0" id="svg_21" stroke="#336303"/>
  <path d="m111.44,234.09c-1.54,0 -2.43,0.37 -3.3,0.13c-0.65,-0.18 -0.83,-1.1 -0.59,-1.84l0.39,-0.7l0,-0.88" fill="none" fill-opacity="0" id="svg_22" stroke="#336303"/>
  <path d="m121.94,243.34c1.48,0.13 2.36,0.14 3.22,0.27c0.84,0.12 1.76,0.14 2.54,-0.04c0.82,-0.19 1.64,-0.44 2.5,-0.48c0.88,-0.04 1.7,-0.36 2.59,-0.38c0.88,-0.01 1.81,-0.15 2.68,0c0.75,0.13 1.62,0.31 2.48,0.38c0.89,0.06 1.79,0 2.67,0c0.89,0 1.8,-0.13 2.67,0c0.84,0.13 1.67,0.25 2.6,0.25c0.88,0 1.77,0 2.66,0c0.88,0 1.72,-0.2 2.43,-0.69c0.63,-0.44 0.48,-1.33 -0.22,-1.69l-0.5,-0.63l-0.18,-0.83l0.29,-0.66" fill="none" fill-opacity="0" id="svg_23" stroke="#336303"/>
  <path d="m5.06,246.09c1.45,-0.32 2.34,-0.64 3.07,-1.13c0.71,-0.48 1.22,-0.37 0.4,-0.28c-0.52,0.06 -0.58,-1.33 0.22,-1.59c0.85,-0.27 1.69,0.15 2.54,0.25c0.88,0.11 1.79,0.41 2.66,0.12c0.76,-0.25 1.29,-1 2.12,-1.14c0.82,-0.14 1.59,0.21 2.45,0.4c0.83,0.19 1.67,0.36 2.53,0.45l0.78,0.16l0.85,0.13" fill="none" fill-opacity="0" id="svg_24" stroke="#336303"/>
  <path d="m130.81,242.71c0.74,-0.8 -0.11,-1.02 -0.13,-1.9c-0.02,-0.88 0.25,-1.69 0.4,-2.47c0.15,-0.74 -0.85,-1.13 -1.65,-1.5l-0.5,-0.63l0.31,-0.63l0.43,-0.66" fill="none" fill-opacity="0" id="svg_25" stroke="#336303"/>
  <path d="m238.02,238.34c-0.63,-1.19 -1.5,-1.42 -1.87,-2.15c-0.38,-0.73 -0.67,-1.59 -1.44,-2.07c-0.67,-0.42 -1.53,-0.59 -2.27,-1.08c-0.72,-0.48 -0.89,-1.4 -1.51,-1.95c-0.64,-0.56 -1.22,-1.19 -1.94,-1.63c-0.68,-0.42 -1.41,-0.75 -2.05,-1.36c-0.59,-0.55 -1.03,-1.28 -0.54,-1.93c0.5,-0.66 1.08,-1.4 1.11,-2.21c0.03,-0.79 -0.36,-1.58 -0.37,-2.44c-0.01,-0.91 -0.25,-1.75 -0.25,-2.62c0,-0.91 0.09,-1.76 0.22,-2.6c0.13,-0.87 0.19,-1.85 -0.21,-2.52c-0.45,-0.73 -1.34,-1.04 -1.84,-1.69c-0.52,-0.68 -1.21,-1.12 -2.11,-1.12l-0.89,0" fill="none" fill-opacity="0" id="svg_26" stroke="#336303"/>
  <path d="m219.77,243.46c1.56,-0.13 2.49,-0.29 3.29,-0.02c0.82,0.28 1.32,1.06 0.97,1.82l0.34,0.73l0.7,0.43" fill="none" fill-opacity="0" id="svg_27" stroke="#336303"/>
  <path d="m227.27,223.46c-1.15,-0.38 -1.78,0.35 -2.56,0.38c-0.85,0.03 -1.55,-0.71 -2.14,-1.34c-0.58,-0.62 -0.67,-1.58 -1.24,-2.23c-0.54,-0.61 -1.43,-0.61 -2.28,-0.84c-0.74,-0.2 -1.46,-0.79 -2.29,-0.96c-0.88,-0.18 -1.73,-0.12 -2.48,-0.43l-0.5,-0.54l-0.58,-0.49" fill="none" fill-opacity="0" id="svg_28" stroke="#336303"/>
  <path d="m66.52,231.34c0,-1.09 0.5,-1.74 0.71,-2.51c0.22,-0.83 0.65,-1.54 1.45,-1.62c0.9,-0.08 1.85,0.39 2.67,0c0.61,-0.29 0.37,-1.38 0.13,-2.11c-0.26,-0.79 -0.21,-1.7 0.4,-2.02l0.76,-0.25l0,-0.87" fill="none" fill-opacity="0" id="svg_29" stroke="#336303"/>
  <path d="m227.27,57.59c0,1.33 -0.11,2.19 -0.13,3.09c-0.02,0.88 0.08,1.77 0.13,2.62c0.05,0.91 0,1.79 0,2.7c0,0.88 -0.32,1.68 -0.2,2.45c0.14,0.84 0.06,1.69 -0.26,2.49c-0.34,0.84 -0.27,1.73 -0.42,2.59c-0.15,0.84 -0.5,1.65 -0.5,2.55c0,0.89 0,1.74 0,2.65c0,0.85 0,1.76 0,2.68c0,0.88 0.12,1.74 0.13,2.6c0.01,0.91 -0.6,1.34 -1.44,1.46c-0.92,0.13 -1.66,0.5 -2.5,0.63c-0.82,0.13 -1.43,0.69 -2.25,0.5c-0.82,-0.19 -1.51,-0.68 -1.56,-1.53c-0.06,-0.91 0,-1.8 0.04,-2.68c0.05,-0.89 -0.27,-1.64 -0.4,-2.42c-0.15,-0.86 0.36,-1.69 0.36,-2.58c0,-0.86 0.11,-1.96 -0.54,-2.42c-0.72,-0.51 -1.7,-0.31 -2.5,-0.38c-0.89,-0.07 -1.75,-0.2 -2.52,-0.5c-0.85,-0.33 -1.61,-0.77 -2.34,-0.98l-0.46,0.67" fill="none" fill-opacity="0" id="svg_30" stroke="#336303"/>
  <path d="m227.15,97.96c0,-2.03 0.06,-2.97 0.13,-3.84c0.06,-0.87 -0.18,-1.76 -0.37,-2.56c-0.21,-0.86 -0.19,-1.74 -0.37,-2.56c-0.2,-0.89 -0.17,-1.86 -0.8,-2.3c-0.72,-0.49 -1.65,-0.5 -2.33,-0.91c-0.62,-0.37 -1.39,-0.2 -2.09,0.31c-0.72,0.53 -1.35,1.05 -2.14,1.46c-0.71,0.36 -1.02,1.2 -1.15,2.04c-0.13,0.87 0.25,1.63 0.46,2.47l0.41,0.64l0.13,0.83" fill="none" fill-opacity="0" id="svg_31" stroke="#336303"/>
  <path d="m235.15,46.09c0.19,1.67 0.63,2.61 0.5,3.44c-0.14,0.86 -1.1,1.35 -1.41,2.19c-0.3,0.82 -0.09,1.78 -0.09,2.65c0,0.9 -0.13,1.79 -0.13,2.65c0,0.9 0.5,1.59 0.89,2.37c0.4,0.79 0.55,1.65 0.61,2.52c0.06,0.87 0.51,1.71 0.37,2.6c-0.12,0.77 -0.83,1.25 -1.5,1.69c-0.68,0.44 -1.42,0.66 -2.22,1.04c-0.76,0.36 -1.37,1.15 -2.23,1.1c-0.85,-0.04 -1.63,-0.45 -2.46,-0.73c-0.75,-0.25 -1.58,-0.77 -1.48,-1.6c0.09,-0.76 0.4,-1.59 0.5,-2.44l-0.51,-0.6l-0.56,-0.49l-0.7,-0.35" fill="none" fill-opacity="0" id="svg_32" stroke="#336303"/>
  <path d="m201.27,31.46c0.9,0.35 1.94,0.77 2.6,0.25c0.57,-0.45 0.63,-1.41 1.21,-2.01c0.63,-0.66 1.33,-1.33 1.19,-2.21c-0.13,-0.78 -0.53,-1.56 -0.63,-2.38c-0.1,-0.87 0.41,-1.77 1.23,-2.02c0.85,-0.26 1.78,-0.02 2.54,0.25c0.75,0.27 1.53,0.5 2.42,0.5c0.88,0 1.77,0 2.67,0c0.86,0 1.79,0 2.64,0c0.92,0 1.8,-0.04 2.69,0c0.88,0.04 1.69,0.23 2.59,0.29c0.87,0.06 1.76,0.08 2.64,0.08c0.88,0 1.69,0.3 2.42,-0.17c0.72,-0.46 1.34,-1.11 2.15,-1.5c0.73,-0.36 1.65,-0.29 2.34,-0.72c0.76,-0.47 1.03,-1.38 1.5,-2.05c0.5,-0.72 0.8,-1.51 1.19,-2.25c0.39,-0.74 0.94,-1.37 1.59,-1.84c0.69,-0.49 1,-0.91 0.16,-1.1c-0.84,-0.19 -1.75,-0.13 -2.63,-0.13c-0.89,0 -1.78,0 -1.99,0.73l-0.05,0.87l-0.75,0.27" fill="none" fill-opacity="0" id="svg_33" stroke="#336303"/>
  <path d="m11.27,124.46c1.1,0.05 1.36,1.09 2.17,1.13c0.78,0.04 1.3,-0.84 1.15,-1.65c-0.17,-0.86 0.48,-1.52 0.69,-2.35c0.22,-0.86 -0.14,-1.76 -0.37,-2.57c-0.25,-0.84 -0.3,-1.72 -0.5,-2.57c-0.18,-0.79 -0.25,-1.69 -0.25,-2.59c0,-0.89 0.05,-1.75 0.25,-2.61c0.19,-0.82 0.53,-1.52 1.16,-2.01c0.63,-0.49 1.36,-0.77 2.19,-0.66l0.65,0.57l0.66,0.45l0.49,-0.69" fill="none" fill-opacity="0" id="svg_34" stroke="#336303"/>
  <path d="m234.9,26.71c0.54,-1.4 0.8,-1.97 0.45,-2.65c-0.41,-0.77 -0.76,-1.51 -0.91,-2.35c-0.16,-0.87 -0.03,-1.78 0.49,-2.48c0.5,-0.68 0.96,-1.53 0.33,-1.93c-0.72,-0.46 -1.28,-1.13 -1.23,-1.98c0.05,-0.76 1.02,-0.9 1.59,-1.5c0.59,-0.62 0.97,-1.43 1.74,-1.61c0.84,-0.2 1.48,-0.73 2.15,-1.29c0.6,-0.5 1.27,-1.02 1.64,-1.77c0.34,-0.7 1.17,-1.1 1.51,-0.54c0.45,0.75 0.37,1.68 -0.02,2.28l-0.68,0.54l-0.44,0.54" fill="none" fill-opacity="0" id="svg_35" stroke="#336303"/>
  <path d="m3.99,92.96c1.93,0.38 2.85,0.92 3.13,0.31c0.37,-0.8 0.02,-1.75 0.25,-2.5c0.25,-0.8 0.8,-1.59 0.46,-2.43c-0.32,-0.78 -1.15,-1.52 -0.78,-2c0.53,-0.68 1.17,-1 2.01,-1.13c0.89,-0.14 1.88,-0.33 2.64,0.12c0.64,0.39 0.82,1.27 1.54,1.77l0.77,0.35" fill="none" fill-opacity="0" id="svg_37" stroke="#336303"/>
  <path d="m7.87,104.84c-0.5,-1.11 -0.8,-1.91 -0.88,-2.79c-0.07,-0.88 0.12,-1.74 0.3,-2.57c0.19,-0.85 -0.11,-1.69 -0.3,-2.45c-0.22,-0.84 0.35,-1.68 0.51,-2.53c0.13,-0.67 -0.42,-1.36 -0.89,-2.02c-0.45,-0.62 -0.64,-1.31 -0.26,-1.94c0.4,-0.67 0.64,-1.48 0.97,-2.24c0.35,-0.8 0.17,-1.74 0.17,-2.63c0,-0.89 -0.07,-1.79 -0.13,-2.63c-0.06,-0.87 -0.51,-1.62 -0.77,-2.44c-0.24,-0.76 0.62,-1.3 1.29,-1.91c0.6,-0.55 0.56,-1.44 0.22,-2.15l-0.63,-0.64" fill="none" fill-opacity="0" id="svg_38" stroke="#336303"/>
  <path d="m59.37,38.09c-0.87,-0.73 -1.41,-1.4 -1.73,-2.12c-0.33,-0.76 0,-1.63 0.23,-2.38c0.26,-0.83 0.74,-1.42 1.44,-1.76c0.77,-0.38 1.71,-0.48 2.58,-0.36c0.87,0.11 1.61,0.58 2.49,0.63c0.9,0.05 1.86,0.17 2.57,-0.25c0.64,-0.38 0.65,-1.33 0.95,-2.04c0.31,-0.72 -0.31,-1.63 -0.15,-2.47c0.17,-0.9 0.78,-1.76 0.49,-2.59c-0.29,-0.81 -1.22,-1.16 -2.04,-1.4c-0.8,-0.23 -1.49,0.13 -2.38,0.13c-0.88,0 -1.76,-0.13 -2.46,0.19l-0.01,0.9l-0.53,0.63l-0.73,0.33" fill="none" fill-opacity="0" id="svg_39" stroke="#336303"/>
  <path d="m76.37,32.21c-1.65,-0.19 -2.56,-0.35 -3.35,-0.41c-1.05,-0.09 -1.84,-0.09 -2.79,-0.09c-0.9,0 -1.67,-0.28 -2.25,-0.93c-0.58,-0.66 -1.18,-1.44 -1.02,-2.11c0.19,-0.77 0.25,-1.64 0.74,-2.36c0.47,-0.69 1.56,-1.09 1.29,-1.89c-0.26,-0.77 -1.46,-1.35 -0.91,-1.72c0.74,-0.5 1.83,-0.51 2.63,-0.17c0.73,0.32 1.31,0.93 2.08,1.18c0.83,0.27 1.82,0.26 2.54,-0.08c0.74,-0.35 1.44,-0.91 2.31,-1.04l0.88,0.04l0.7,0.45l0.65,0.5" fill="none" fill-opacity="0" id="svg_40" stroke="#336303"/>
  <path d="m148.24,35.71c-0.55,-0.85 -1.45,-1.59 -1.5,-2.46c-0.04,-0.76 0.75,-1.36 1.6,-1.12c0.84,0.24 0.85,0.09 1.41,-0.61c0.52,-0.66 1.7,-0.32 2.55,-0.11c0.84,0.21 1.5,0.77 2.29,1.04l0.64,-0.46" fill="none" fill-opacity="0" id="svg_41" stroke="#336303"/>
  <path d="m180.87,-0.16c-0.38,1.19 -0.27,2.05 -0.09,2.84c0.19,0.81 0.12,1.69 0.22,2.6c0.08,0.72 -0.41,1.39 -1.28,1.43c-0.88,0.04 -1.09,0.92 -1.86,1c-0.89,0.09 -1.76,-0.04 -2.65,-0.17c-0.88,-0.12 -1.64,-0.2 -2.51,-0.45c-0.77,-0.21 -1.56,-0.46 -2.4,-0.64l-0.56,0.4l-0.38,0.74" fill="none" fill-opacity="0" id="svg_42" stroke="#336303"/>
  <path d="m147.49,37.71c0.38,-0.84 0.41,-1.72 0.73,-2.52c0.3,-0.75 0.16,-1.63 0.01,-2.47c-0.15,-0.87 -1.05,-0.88 -1.96,-0.88c-0.88,0 -1.8,-0.11 -2.67,0c-0.76,0.1 -1.49,0.82 -2.35,0.63c-0.8,-0.18 -1.47,-0.63 -2.32,-0.75l-0.7,0.23" fill="none" fill-opacity="0" id="svg_44" stroke="#336303"/>
  <path d="m181.24,1.46c-0.25,2.83 -0.81,3.61 -1.37,4.26c-0.54,0.63 -0.86,1.6 -0.12,1.89c0.8,0.31 1.36,-0.66 2.25,-0.52c0.83,0.13 1.42,0.69 1.47,1.55c0.04,0.59 -0.15,1.21 -1.03,1.32l-0.69,0.46l-0.14,0.86l0.5,0.58" fill="none" fill-opacity="0" id="svg_45" stroke="#336303"/>
  <path d="m34.74,1.34c0.08,1.69 -0.18,2.7 0.13,3.53c0.29,0.81 0.18,1.19 -0.58,1.59c-0.68,0.36 -0.55,1.5 -1.11,2.18c-0.53,0.65 -1.48,0.15 -1.98,-0.52l-0.81,-0.27l-0.84,-0.14" fill="none" fill-opacity="0" id="svg_46" stroke="#336303"/>
  <path d="m40.49,11.84c0,-1.29 0.01,-2.09 -0.18,-2.9c-0.2,-0.87 -0.59,-1.53 -1.47,-1.6c-0.87,-0.07 -1.65,0.91 -2.21,0.35c-0.55,-0.55 -0.96,-1.14 -1.51,-1.71c-0.6,-0.63 -0.64,-1.58 -0.65,-2.44l-0.67,-0.53" fill="none" fill-opacity="0" id="svg_47" stroke="#336303"/>
 </g>
</svg>