<svg width="250" height="250" xmlns="http://www.w3.org/2000/svg">
 <g>
  <title>Layer 1</title>
  <path transform="rotate(-63.9413 108.241 86.2091)" stroke="null" id="svg_18" d="m146.89426,93.37509c3.07252,-1.28413 6.01105,-2.76456 8.59969,-4.09348l-77.56461,-0.60978l-10.63918,5.25141l-33.70518,-0.45103c4.2233,-2.3909 8.84977,-5.19957 12.27988,-7.30917l-12.20157,-7.092l35.96268,0l7.31726,4.43113l79.19156,0l-9.8231,-4.42122c3.03154,-1.3933 7.51805,-3.25267 9.95182,-4.22758l26.63344,11.26828l-26.69402,11.44308l-9.3087,-4.18965l0.00001,0z" fill="#333333"/>
  <g transform="rotate(27.3812 139.59 147.114)" stroke="null" id="svg_25">
   <path stroke="null" id="svg_5" d="m174.52522,35.13423l0,0c24.01301,6.24653 23.83952,61.30775 -0.39996,123.00108c-24.23638,61.68542 -63.35347,106.62492 -87.36647,100.37839l0,0c24.0441,-22.80558 48.35823,-62.09199 65.62335,-106.03445s25.46593,-87.41174 22.14308,-117.34502z" fill="#333333"/>
   <rect stroke="null" transform="matrix(1.35322 0.349607 -0.429662 1.10109 16.3045 -78.1558)" id="svg_11" height="190.00407" width="4.76033" y="66.17195" x="138.02261" fill="#333333"/>
  </g>
  <path transform="rotate(-84.1052 56.241 96.2091)" stroke="null" id="svg_26" d="m94.89426,103.37509c3.07252,-1.28413 6.01105,-2.76456 8.59969,-4.09348l-77.5646,-0.60978l-10.63918,5.25142l-33.70519,-0.45103c4.22331,-2.39091 8.84978,-5.19958 12.27989,-7.30918l-12.20157,-7.092l35.96268,0l7.31727,4.43114l79.19155,0l-9.8231,-4.42122c3.03154,-1.3933 7.51805,-3.25267 9.95182,-4.22758l26.63345,11.26828l-26.69402,11.44308l-9.3087,-4.18965l0.00001,0z" fill="#333333"/>
 </g>

</svg>