<svg width="250.00000000000003" height="250.00000000000003" xmlns="http://www.w3.org/2000/svg">
 <g>
  <title>Layer 1</title>
  <g stroke="null" id="svg_8">
   <g stroke="null" id="svg_3">
    <path stroke="null" id="svg_11" d="m221.80747,174.19478l-7.18134,5.50648l7.18134,-5.50648z" opacity="undefined" fill="#333333"/>
    <path stroke="null" id="svg_2" d="m81.70736,17.29524l0,0c27.96811,-20.33186 82.51705,4.66469 121.84543,55.85167c39.32334,51.18043 48.52306,109.15453 20.55495,129.48639l0,0c-0.86848,-33.46259 2.64313,-86.04715 -25.3694,-122.50623s-84.27939,-52.53696 -117.03099,-62.83183z" fill="#333333"/>
    <rect stroke="null" transform="matrix(1.10781 -2.51955 2.09332 0.846804 -206.522 413.987)" id="svg_9" height="53.57143" width="3.21429" y="82.6585" x="133.40007" fill="#333333"/>
    <rect stroke="null" transform="matrix(2.386 -0.778276 0.295693 2.5072 -147.82 -122.531)" id="svg_12" height="48.32558" width="2.85714" y="85.31534" x="92.07321" fill="#333333"/>
   </g>
   <path stroke="null" id="svg_4" d="m75.60317,194.10331l-7.67237,-15.54339l120.2148,-119.00579l7.67237,15.54339l-120.2148,119.00579z" opacity="undefined" fill="#333333"/>
   <g stroke="null" transform="matrix(-0.802669 2.52189 -1.69646 -0.485301 686.207 -211.786)" id="svg_7">
    <path stroke="null" id="svg_5" d="m151.2487,217.03643l-0.33624,-11.09237l2.67228,2.39568l0.33624,11.09237l-7.77904,3.81707l-2.67228,-2.39568l7.77904,-3.81707z" fill="#333333"/>
    <rect stroke="null" transform="matrix(-0.43146 -0.388799 0.287359 -0.583094 236.804 238.52)" id="svg_6" height="25.5734" width="3.84448" y="-78.86553" x="159.98258" fill="#333333"/>
   </g>
  </g>
  <path transform="rotate(-99.1407 35.1861 72.1647)" stroke="null" fill="#333333" d="m2.56474,74.75769l0.85657,-3.30722c42.77564,-3.78829 46.72245,-2.17997 48.20142,-2.45693l16.18464,3.20107l-16.22145,3.25072l-49.02118,-0.68764z" id="svg_20"/>
  <path transform="rotate(-80.6243 63.0432 88.9504)" stroke="null" fill="#333333" d="m30.42188,91.5434l0.85657,-3.30722c42.77564,-3.78829 46.72245,-2.17997 48.20142,-2.45693l16.18464,3.20107l-16.22145,3.25072l-49.02118,-0.68764z" id="svg_21"/>
 </g>

</svg>