<?xml version="1.0"?>
<svg width="250" height="250" xmlns="http://www.w3.org/2000/svg" xmlns:svg="http://www.w3.org/2000/svg">
 <g class="layer">
  <title>Layer 1</title>
  <g id="svg_11" transform="rotate(134.374 126.83 124.568)">
   <path d="m129.43,221.56l-1.49,13.91l3.4,19.03l-3.4,17.38l-3.4,-10.76c0,0 -0.21,-13.08 0.35,-13.08c0.57,0 -3.97,-14.9 -3.76,-15.06c0.21,-0.16 -5.88,5.95 -5.67,5.79c0.21,-0.16 4.32,-15.57 4.54,-16.55c0.21,-0.99 1.49,-19.7 1.7,-20.69c0.21,-0.99 8.29,-24.67 7.94,-25.66c-0.35,-0.99 -6.45,-15.57 -6.24,-14.9c0.21,0.67 2.62,-22.19 2.84,-22.35c0.21,-0.16 -4.18,-22.19 -3.97,-22.35c0.21,-0.16 -3.52,-9.49 -8.51,-8.28c-4.99,1.22 -9.82,-9.54 -9.6,-10.39c0.21,-0.85 10.52,-1.87 10.74,-2.03c0.21,-0.16 9.99,6.78 10.21,6.62c0.21,-0.16 -0.78,-20.53 -0.57,-20.69c0.21,-0.16 -4.18,-22.19 -3.97,-22.35c0.21,-0.16 5.46,-21.36 5.67,-21.52c0.21,-0.16 -8.15,-18.05 -7.94,-18.21c0.21,-0.16 2.05,-27.15 2.27,-27.31c0.21,-0.16 5.46,-14.74 5.67,-14.9c0.21,-0.16 6.02,7.61 6.24,7.45c0.21,-0.16 -1.35,9.26 -1.13,9.1c0.21,-0.16 -0.78,19.19 -0.57,19.03c0.21,-0.16 5.46,18.37 5.67,18.21c0.21,-0.16 -0.78,15.88 -0.57,15.72c0.21,-0.16 7.16,2.64 7.37,1.66c0.21,-0.99 6.02,11.75 6.24,11.59c0.21,-0.16 -6.45,0.99 -6.24,0.83c0.21,-0.16 -7.02,-3.15 -6.81,-3.31c0.21,-0.16 0.35,10.92 0.57,10.76c0.21,-0.16 -1.35,22.5 -0.57,22.35c0.78,-0.16 1.49,17.54 1.7,17.38c0.21,-0.16 -3.05,19.19 -3.05,18.37c0,-0.83 3.4,15.72 3.62,15.57c0.21,-0.16 -2.48,15.88 -2.27,15.72c0.21,-0.16 0.92,24.16 1.13,24c0.21,-0.16 -2.48,15.06 -2.27,15.72c0.21,0.67 -5.88,24.16 -5.88,24.16z" fill="#4f2803" id="svg_8"/>
   <ellipse cx="120.02" cy="230.2" fill="#007f00" id="svg_10" rx="4.22" ry="1.98" transform="matrix(-1.2347 0.764409 0.827032 1.1412 69.437 -114.822)"/>
  </g>
 </g>
</svg>