<svg width="250" height="250" xmlns="http://www.w3.org/2000/svg">
 <g>
  <title>Layer 1</title>
  <g transform="rotate(-46.6526 174.125 124.124)" stroke="null">
   <g stroke="null">
    <title stroke="null">Layer 1</title>
    <g stroke="null" id="svg_2">
     <path stroke="null" fill="#333333" opacity="undefined" d="m219.70949,32.45432l-55.22712,133.89627l-14.50879,-4.00591l69.73591,-129.89036z" id="svg_6"/>
     <path stroke="null" fill="#333333" opacity="undefined" d="m128.53985,212.81488l22.98451,-51.4641l10.36064,2.97879l-22.98451,51.4641l-10.36064,-2.97879z" id="svg_5"/>
     <path stroke="null" fill="#333333" d="m213.62975,137.00755l0,0c-12.34878,23.61225 -38.28634,37.39604 -57.937,30.78018c-19.64813,-6.615 -25.56296,-31.12265 -13.21418,-54.7349l0,0c1.3604,16.284 -0.25008,45.73927 13.74653,50.45156s41.96658,-15.86844 57.40462,-26.49685l0.00003,0.00001z" id="svg_3"/>
    </g>
   </g>
  </g>
  <g transform="rotate(-50.5728 96.8873 131.003)" stroke="null" id="svg_8">
   <path stroke="null" id="svg_1" d="m138.47008,30.69035l-50.37837,146.52009l-13.23497,-4.38359l63.61334,-142.1365z" opacity="undefined" fill="#333333"/>
   <path stroke="null" id="svg_4" d="m55.30444,228.05529l20.96655,-56.31616l9.45101,3.25963l-20.96655,56.31616l-9.45101,-3.25963z" opacity="undefined" fill="#333333"/>
   <path stroke="null" id="svg_7" d="m132.92377,145.1008l0,0c-11.2646,25.83843 -34.92494,40.92176 -52.85034,33.68215c-17.92309,-7.23867 -23.31862,-34.05691 -12.05402,-59.89533l0,0c1.24096,17.81927 -0.22813,50.05159 12.53963,55.20816s38.28206,-17.36452 52.3647,-28.99499l0.00003,0.00001z" fill="#333333"/>
  </g>
 </g>

</svg>