<svg width="250" height="250" xmlns="http://www.w3.org/2000/svg">
 <g>
  <title>Layer 1</title>
  <g transform="rotate(53.6162 174.103 115.56)" stroke="null" id="svg_4">
   <rect stroke="null" transform="matrix(-0.896628 -1.37191 -1.22709 1.00245 239.838 351.015)" fill="#333333" x="91.89938" y="-60.90103" width="6.53885" height="26.72895" id="svg_5"/>
   <rect stroke="null" transform="matrix(-1.22693 1.0027 0.896849 1.37173 18.5595 -153.15)" fill="#333333" x="3.99107" y="228.4894" width="8.13954" height="23.25581" id="svg_6"/>
   <path stroke="null" fill="#333333" opacity="NaN" d="m226.16047,174.01701l-117.39402,-147.23822l105.59077,157.453" id="svg_8"/>
  </g>
  <g stroke="null" id="svg_14">
   <g stroke="null" id="svg_12">
    <path stroke="null" id="svg_3" d="m107.19968,6.6819l-10.39863,228.04177l-57.91614,4.52368l-24.35104,-225.32756l92.66582,-7.23789z" fill="#333333"/>
    <path stroke="null" id="svg_10" d="m44.59695,65.0124l0,0c3.45228,-0.3749 5.74803,-12.43201 5.12769,-26.93032l25.00292,-2.71518l0,0c0.62034,14.4983 3.92186,25.94759 7.37414,25.57269l4.49276,105.00287l0,0c-3.45228,0.3749 -5.74803,12.432 -5.12769,26.93031l-25.00292,2.71518c-0.62034,-14.49831 -3.92186,-25.94758 -7.37414,-25.57268l-4.49276,-105.00287z" fill="#4c4c4c"/>
   </g>
   <path stroke="null" id="svg_13" d="m89.48653,118.49956l0,0c0.80316,-10.36698 5.90656,-18.46383 11.39877,-18.08482l0,0c2.63745,0.18201 5.01366,2.33422 6.6059,5.98317c1.59224,3.64896 2.27007,8.49575 1.88438,13.47415l0,0c-0.80316,10.36697 -5.90656,18.46383 -11.39877,18.08482l0,0c-5.49221,-0.37901 -9.29343,-9.09035 -8.49028,-19.45732zm4.97226,0.34313l0,0c-0.40158,5.18349 1.49904,9.53916 4.24514,9.72866c2.7461,0.1895 5.2978,-3.85892 5.69938,-9.04241c0.40158,-5.18349 -1.49904,-9.53916 -4.24514,-9.72866l0,0c-2.7461,-0.1895 -5.29781,3.85892 -5.69938,9.04241z" fill="#333333"/>
  </g>
 </g>

</svg>