<?xml version="1.0"?>
<svg width="250" height="250" xmlns="http://www.w3.org/2000/svg" xmlns:svg="http://www.w3.org/2000/svg">
 <g class="layer">
  <title>Layer 1</title>
  <g id="svg_8" transform="matrix(1.0423 -0.810078 0.810078 1.0423 -63.4981 96.8661)">
   <path d="m84.02,14.53l1.56,-20.12l10.72,-1.09l5.6,19.39l-1.57,20.11l-10.72,1.09l-5.6,-19.38z" fill="#333333" id="svg_1"/>
   <rect fill="#333333" height="4.49" id="svg_5" transform="rotate(-1.28688 91.2137 -2.07799) matrix(0.951963 -0.101542 0.0971669 0.994831 0.50393 6.57272)" width="17.42" x="86.47" y="-1.23"/>
   <rect fill="#333333" height="5.06" id="svg_7" transform="matrix(0.994831 -0.101542 0.101542 0.994831 -4.42795 4.95213)" width="17.42" x="87.35" y="31.09"/>
   <path d="m90.03,2.76l0.6,9.16l-12.25,-3.5l11.65,-5.66z" fill="#333333" id="svg_2"/>
   <path d="m96.25,25.6l-0.6,-9.16l12.25,3.5l-11.65,5.66z" fill="#333333" id="svg_4"/>
   <path d="m94.9,11.6l-0.6,-9.16l12.25,3.5l-11.65,5.66z" fill="#333333" id="svg_10"/>
   <path d="m91.11,16.59l0.6,9.16l-12.25,-3.5l11.65,-5.66z" fill="#333333" id="svg_11"/>
   <rect fill="#333333" height="181.64" id="svg_6" transform="rotate(-4.5591 101.67 120.432)" width="6.58" x="98.38" y="29.61"/>
  </g>
 </g>
</svg>